<svg width="120" height="120" viewBox="0 0 120 120" fill="none" xmlns="http://www.w3.org/2000/svg">
<path d="M60 120C26.9159 120 0 93.0841 0 60C0 26.9159 26.9159 0 60 0C93.0841 0 120 26.9159 120 60C120 93.0841 93.0841 120 60 120ZM60 3.24324C28.7042 3.24324 3.24324 28.7042 3.24324 60C3.24324 91.2958 28.7042 116.757 60 116.757C91.2958 116.757 116.757 91.2958 116.757 60C116.757 28.7042 91.2958 3.24324 60 3.24324Z" fill="#63C210"/>
<path d="M29.1896 44.5943C34.8558 33.3082 46.5346 25.5402 60 25.5402C73.4654 25.5402 85.1441 33.3082 90.8104 44.5943H94.4092C88.5073 31.4636 75.3045 22.297 60 22.297C44.6955 22.297 31.4928 31.4636 25.5908 44.5943H29.1896Z" fill="#63C210"/>
<path d="M90.8104 75.4061C85.1441 86.6922 73.4654 94.4602 60 94.4602C46.5346 94.4602 34.8558 86.6922 29.1896 75.4061H25.5908C31.4928 88.5368 44.6955 97.7034 60 97.7034C75.3045 97.7034 88.5073 88.5368 94.4092 75.4061H90.8104Z" fill="#63C210"/>
<path d="M16.6214 76.2158L15.8679 77.8678L14.0637 78.0739L15.4021 79.3012L15.0407 81.0807L16.6214 80.187L18.2021 81.0807L17.8406 79.3012L19.179 78.0739L17.3749 77.8678L16.6214 76.2158Z" fill="#63C210"/>
<path d="M103.378 76.2158L104.132 77.8678L105.936 78.0739L104.597 79.3012L104.959 81.0807L103.378 80.187L101.797 81.0807L102.159 79.3012L100.82 78.0739L102.625 77.8678L103.378 76.2158Z" fill="#63C210"/>
<path d="M44.9525 77.9255L43.7579 80.5442L40.8984 80.8709L43.0198 82.8162L42.4468 85.6368L44.9525 84.2204L47.4579 85.6368L46.8852 82.8162L49.0065 80.8709L46.147 80.5442L44.9525 77.9255Z" fill="#63C210"/>
<path d="M75.0467 77.9257L73.8524 80.5443L70.9927 80.8711L73.1142 82.8163L72.5412 85.6369L75.0467 84.2205L77.5523 85.6369L76.9794 82.8163L79.1008 80.8711L76.2412 80.5443L75.0467 77.9257Z" fill="#63C210"/>
<path d="M59.9999 81.1743L58.5665 84.3167L55.135 84.7089L57.6808 87.0431L56.9932 90.4278L59.9999 88.7281L63.0066 90.4278L62.319 87.0431L64.8647 84.7089L61.4331 84.3167L59.9999 81.1743Z" fill="#63C210"/>
<path d="M44.9525 34.3632L43.7579 36.9819L40.8984 37.3086L43.0198 39.2538L42.4468 42.0745L44.9525 40.658L47.4579 42.0745L46.8852 39.2538L49.0065 37.3086L46.147 36.9819L44.9525 34.3632Z" fill="#63C210"/>
<path d="M75.0467 34.363L73.8524 36.9818L70.9927 37.3084L73.1142 39.2537L72.5412 42.0744L75.0467 40.6579L77.5523 42.0744L76.9794 39.2537L79.1008 37.3084L76.2412 36.9818L75.0467 34.363Z" fill="#63C210"/>
<path d="M59.9999 29.5721L58.5665 32.7146L55.135 33.1067L57.6808 35.4409L56.9932 38.8257L59.9999 37.1258L63.0066 38.8257L62.319 35.4409L64.8647 33.1067L61.4331 32.7146L59.9999 29.5721Z" fill="#63C210"/>
<path d="M15.0792 40.0247L16.9875 40.9104L18.2061 38.2843L19.1396 38.7178L17.9211 41.3435L20.6773 42.6231L20.1374 43.7858L13.6018 40.7524L14.1414 39.59L15.5346 36.5862L16.4729 37.0221L15.0792 40.0247Z" fill="#63C210"/>
<path d="M24.0496 33.5868C24.3588 34.0833 24.5096 34.5987 24.5026 35.1321C24.4954 35.6661 24.3304 36.1821 24.0077 36.6809C23.6887 37.1737 23.2864 37.5344 22.8006 37.7625C22.3152 37.9906 21.7807 38.0673 21.1968 37.9917C20.6128 37.9168 20.0201 37.6845 19.4192 37.2953L19.116 37.099C18.515 36.7102 18.0597 36.2656 17.7508 35.7656C17.4416 35.2652 17.2908 34.7469 17.2978 34.2113C17.305 33.6748 17.4673 33.1606 17.7864 32.6676C18.1095 32.1692 18.5128 31.8061 18.997 31.5796C19.4816 31.3528 20.0153 31.2784 20.5973 31.356C21.1801 31.4344 21.7731 31.6687 22.3769 32.0591L22.6798 32.2555C23.2835 32.6461 23.7403 33.09 24.0496 33.5868ZM19.8949 32.5195C19.3795 32.5417 18.9733 32.7832 18.6758 33.2429C18.4838 33.539 18.397 33.8463 18.4149 34.1645C18.4331 34.4825 18.5593 34.7991 18.7942 35.1138C19.0285 35.429 19.3655 35.7287 19.8061 36.0137L20.1173 36.2152C20.558 36.5002 20.9712 36.6852 21.3565 36.7691C21.7422 36.8538 22.085 36.8388 22.3854 36.7244C22.6848 36.6099 22.9305 36.4049 23.1226 36.1079C23.4199 35.6483 23.4722 35.1799 23.2777 34.7025C23.0832 34.2251 22.651 33.7694 21.9811 33.3363L21.6691 33.1344C21.0015 32.7023 20.4104 32.4973 19.8949 32.5195Z" fill="#63C210"/>
<path d="M28.6072 28.2976C28.8353 28.8364 28.9037 29.3686 28.8138 29.8946C28.7235 30.4209 28.4796 30.905 28.0838 31.3472C27.6919 31.7842 27.2386 32.0781 26.7231 32.2277C26.208 32.3777 25.668 32.3703 25.1027 32.2044C24.5377 32.0392 23.9883 31.7177 23.4557 31.2395L23.1865 30.9984C22.6529 30.521 22.2727 30.011 22.046 29.4687C21.8187 28.9259 21.7503 28.3906 21.8404 27.8625C21.9306 27.3344 22.1718 26.8514 22.5634 26.4138C22.9598 25.9717 23.415 25.6763 23.9292 25.5277C24.4427 25.3788 24.9815 25.3888 25.5445 25.5567C26.1071 25.7241 26.6565 26.0484 27.1922 26.5279L27.4614 26.769C27.9968 27.2488 28.3788 27.7587 28.6072 28.2976ZM24.6692 26.5964C24.1565 26.5377 23.7175 26.7127 23.3521 27.1202C23.1169 27.3834 22.9832 27.6737 22.9514 27.9907C22.9196 28.3077 22.9953 28.64 23.1779 28.9876C23.3601 29.3352 23.6467 29.6836 24.0377 30.034L24.3141 30.2814C24.7045 30.6314 25.0837 30.8784 25.4515 31.0218C25.8194 31.1652 26.1602 31.204 26.4741 31.1377C26.7884 31.0709 27.0631 30.9061 27.2988 30.6433C27.6642 30.2354 27.7886 29.781 27.6706 29.2794C27.5534 28.7769 27.1971 28.2599 26.6029 27.7275L26.3261 27.4792C25.7345 26.9491 25.1815 26.655 24.6692 26.5964Z" fill="#63C210"/>
<path d="M29.3911 20.7308C29.9513 20.638 30.5012 20.7058 31.0396 20.9331C31.5788 21.1608 32.065 21.5387 32.4981 22.0666L32.7209 22.3382C33.1561 22.8687 33.4328 23.4198 33.55 23.9918C33.6676 24.5635 33.6224 25.1166 33.4166 25.6506C33.2108 26.1843 32.8524 26.6606 32.343 27.0798L31.1644 28.0466L30.7284 28.4048L26.1565 22.8352L27.147 22.022L27.8093 21.4787C28.3039 21.0728 28.8312 20.8233 29.3911 20.7308ZM31.4973 22.8753C31.0076 22.2783 30.5028 21.9291 29.9834 21.8262C29.4635 21.7236 28.9572 21.874 28.4655 22.2779L27.8037 22.8214L31.0659 26.7955L31.6898 26.2836C32.1997 25.8651 32.4543 25.386 32.4531 24.8472C32.4523 24.3081 32.2104 23.7435 31.7266 23.1544L31.4973 22.8753Z" fill="#63C210"/>
<path d="M36.3467 19.3964C35.8217 19.286 35.4303 18.9871 35.1728 18.5001C34.9923 18.1588 34.9266 17.8033 34.9752 17.4342C35.0247 17.0649 35.1815 16.7141 35.4459 16.3819C35.7108 16.0494 36.0643 15.7663 36.5077 15.5319C36.9713 15.2865 37.4238 15.1582 37.8636 15.1475C38.3039 15.1364 38.6958 15.2298 39.039 15.427C39.3823 15.6245 39.6488 15.9025 39.8384 16.2615L38.71 16.8578C38.5422 16.5402 38.3077 16.3391 38.0081 16.2552C37.7071 16.1717 37.3624 16.2326 36.9716 16.4397C36.6042 16.634 36.3667 16.8613 36.2597 17.121C36.1528 17.3815 36.1674 17.6401 36.3032 17.8957C36.4232 18.1238 36.6327 18.2588 36.9319 18.3024C37.2312 18.3455 37.6477 18.3122 38.1826 18.2006C38.7424 18.0874 39.2246 18.0414 39.6296 18.0621C40.0342 18.0834 40.379 18.1792 40.6636 18.3495C40.9475 18.5206 41.1783 18.7732 41.356 19.1088C41.5442 19.4644 41.6146 19.8226 41.5667 20.1841C41.5185 20.5452 41.3609 20.8872 41.0928 21.2099C40.8255 21.5326 40.4626 21.8149 40.004 22.0572C39.5789 22.2829 39.1335 22.4203 38.669 22.4698C38.2046 22.5197 37.7727 22.454 37.3728 22.2738C36.973 22.0933 36.659 21.7876 36.4305 21.3557L37.5636 20.7567C37.7663 21.1383 38.0407 21.3561 38.388 21.4091C38.7353 21.4621 39.1161 21.3798 39.5301 21.1605C39.8979 20.9661 40.1395 20.7415 40.2542 20.4867C40.3689 20.2318 40.3586 19.9752 40.2232 19.7194C40.1303 19.544 40.0166 19.4165 39.8812 19.3369C39.7458 19.2574 39.5558 19.2174 39.3102 19.2161C39.0655 19.2153 38.7298 19.2565 38.3039 19.3401C37.524 19.4882 36.8716 19.5072 36.3467 19.3964Z" fill="#63C210"/>
<path d="M46.2713 17.5106L43.6655 18.4402L43.6801 20.1896L42.4167 20.6402L42.5552 12.9406L43.3574 12.6548L43.6417 12.5538L48.6305 18.4242L47.3672 18.8748L46.2713 17.5106ZM45.584 16.6582L43.6263 14.219L43.6537 17.3463L45.584 16.6582Z" fill="#63C210"/>
<path d="M49.1926 12.0478L49.6237 14.1062L52.4572 13.5126L52.6686 14.5202L49.8342 15.1137L50.4574 18.0882L49.2036 18.3506L47.7256 11.2983L48.9802 11.0355L52.2206 10.3566L52.4327 11.3689L49.1926 12.0478Z" fill="#63C210"/>
<path d="M59.079 15.9213L59.1613 16.9467L55.3875 17.2499L54.4499 17.3248L53.8743 10.142L55.1522 10.0398L58.5559 9.76697L58.6386 10.7979L55.2343 11.0708L55.391 13.0194L58.3264 12.7843L58.4067 13.7902L55.4718 14.0262L55.6452 16.1966L59.079 15.9213Z" fill="#63C210"/>
<path d="M65.6198 11.0863L63.3817 10.9596L63.0329 17.1211L61.7577 17.0486L62.1068 10.8876L59.8933 10.7624L59.952 9.72986L63.4406 9.92702L65.6783 10.0534L65.6198 11.0863Z" fill="#63C210"/>
<path d="M71.402 11.1054L72.7948 11.3845L69.5358 15.3799L69.0156 17.9758L67.7491 17.7221L68.2689 15.1253L66.8018 10.1829L68.1946 10.4623L69.1297 14.1071L71.402 11.1054Z" fill="#63C210"/>
<path d="M76.1663 15.9036C75.916 15.4285 75.8967 14.9368 76.107 14.4272C76.2547 14.0709 76.4859 13.7937 76.8018 13.5959C77.1178 13.3975 77.4875 13.2947 77.9124 13.2863C78.3373 13.2779 78.781 13.3694 79.245 13.561C79.7296 13.7613 80.1163 14.0274 80.4058 14.3599C80.6952 14.6917 80.8737 15.0528 80.9406 15.4432C81.0075 15.8332 80.964 16.216 80.8088 16.5905L79.629 16.1028C79.766 15.7706 79.7716 15.4622 79.6448 15.1779C79.5178 14.8929 79.2497 14.6664 78.8416 14.4978C78.4571 14.339 78.1309 14.301 77.8625 14.3845C77.5942 14.4685 77.4044 14.6443 77.2936 14.9126C77.1953 15.151 77.2251 15.3985 77.3822 15.6566C77.5398 15.9143 77.8324 16.2136 78.2593 16.5545C78.7033 16.9128 79.0462 17.2549 79.2889 17.5795C79.5312 17.9045 79.6772 18.2312 79.7271 18.559C79.7774 18.8864 79.7302 19.2258 79.5853 19.5764C79.4317 19.9486 79.2005 20.2313 78.8917 20.4252C78.5837 20.6189 78.219 20.7153 77.7994 20.7151C77.3806 20.7151 76.9312 20.6162 76.4529 20.4182C76.0075 20.2345 75.6175 19.9791 75.2827 19.6537C74.9482 19.3279 74.7228 18.9533 74.6064 18.5302C74.4901 18.1078 74.5258 17.6708 74.7118 17.2194L75.8967 17.7091C75.7316 18.1082 75.7392 18.4586 75.9201 18.7602C76.1006 19.0618 76.4071 19.3018 76.8403 19.4803C77.2251 19.6395 77.5517 19.6818 77.8213 19.6082C78.0913 19.5337 78.2813 19.3628 78.3923 19.0943C78.4683 18.911 78.4936 18.7424 78.4683 18.5875C78.4429 18.4324 78.3528 18.2597 78.1971 18.0709C78.0416 17.8817 77.7956 17.6497 77.4595 17.3753C76.8472 16.8685 76.4165 16.3783 76.1663 15.9036Z" fill="#63C210"/>
<path d="M86.7228 17.5132L87.9481 18.2302L83.5674 20.948L82.2301 23.2332L81.1152 22.5816L82.4517 20.2964L82.6724 15.1445L83.8985 15.8616L83.597 19.6124L86.7228 17.5132Z" fill="#63C210"/>
<path d="M87.4824 21.9193C87.3688 21.3952 87.4824 20.9161 87.8221 20.4822C88.0601 20.1785 88.3578 19.9734 88.7152 19.8677C89.0727 19.7621 89.4572 19.7621 89.8685 19.8685C90.279 19.9754 90.6824 20.1829 91.0767 20.4917C91.4897 20.8154 91.7913 21.1758 91.9809 21.5733C92.1697 21.9711 92.2446 22.3666 92.2038 22.7606C92.1638 23.1549 92.0185 23.5112 91.7686 23.8307L90.7631 23.0429C90.9852 22.7606 91.0727 22.4649 91.0272 22.156C90.9816 21.8484 90.7844 21.5577 90.4369 21.285C90.1094 21.0288 89.805 20.9049 89.5243 20.9133C89.2432 20.9217 89.0132 21.04 88.8343 21.2684C88.6759 21.4711 88.6372 21.7177 88.7199 22.0084C88.8018 22.2994 89.0034 22.6664 89.323 23.1091C89.6538 23.5742 89.8925 23.9962 90.0386 24.3744C90.1844 24.7521 90.2373 25.1056 90.1978 25.4354C90.1574 25.7645 90.0208 26.0784 89.7869 26.3769C89.5382 26.6941 89.2401 26.9046 88.8905 27.008C88.5413 27.1118 88.1644 27.1065 87.7606 26.9934C87.3569 26.8806 86.9511 26.6644 86.5432 26.3449C86.1644 26.048 85.8571 25.6976 85.622 25.2934C85.3877 24.8896 85.2712 24.4684 85.2732 24.0296C85.2748 23.5918 85.4263 23.18 85.7273 22.7952L86.7365 23.5858C86.47 23.9264 86.3834 24.266 86.4763 24.6045C86.569 24.9434 86.8001 25.2569 87.1692 25.546C87.4962 25.8025 87.7995 25.9316 88.0793 25.9323C88.3592 25.9339 88.5885 25.8199 88.7678 25.5919C88.8897 25.4358 88.9598 25.2795 88.9769 25.1239C88.9943 24.968 88.9535 24.7776 88.855 24.5534C88.7561 24.3294 88.5811 24.0399 88.3316 23.6844C87.8784 23.0322 87.5953 22.4438 87.4824 21.9193Z" fill="#63C210"/>
<path d="M97.327 27.9175L95.7688 26.3061L91.3323 30.5957L90.4446 29.678L94.8812 25.388L93.3396 23.7941L94.0831 23.0756L96.5124 25.5868L98.0702 27.1989L97.327 27.9175Z" fill="#63C210"/>
<path d="M96.9456 35.9811L96.1166 36.5917L93.8723 33.5425L93.3145 32.7855L99.1171 28.5133L99.8769 29.5455L101.901 32.2959L101.068 32.9091L99.0442 30.1591L97.4701 31.3175L99.2161 33.689L98.4024 34.2876L96.6573 31.9161L94.9033 33.2076L96.9456 35.9811Z" fill="#63C210"/>
<path d="M99.9455 43.7901L99.3675 42.6518L101.441 41.5983L104.352 40.2594L98.4732 40.8917L98.0587 40.0751L102.033 35.7039L99.2409 37.2658L97.1667 38.3193L96.5864 37.1763L103.011 33.9133L103.504 34.8845L103.764 35.3964L99.8025 39.7059L105.617 39.0451L106.37 40.5282L99.9455 43.7901Z" fill="#63C210"/>
<path d="M17.8845 88.933L22.9794 85.3817L21.3724 84.1893L22.2849 83.5531L24.9568 85.4236L25.0514 85.5594L18.6457 90.025L17.8845 88.933Z" fill="#63C210"/>
<path d="M22.4133 94.7582C21.8634 94.1647 21.6322 93.5203 21.72 92.8236C21.8083 92.1276 22.283 91.3793 23.1461 90.5799L24.0784 89.7149C24.9379 88.9176 25.7131 88.5026 26.4039 88.4698C27.0948 88.4366 27.7164 88.7175 28.2691 89.3134C28.8214 89.9089 29.0553 90.551 28.9714 91.2383C28.8875 91.9264 28.416 92.6687 27.5564 93.4656L26.6237 94.3302C24.9725 95.8617 23.5689 96.0039 22.4133 94.7582ZM27.7632 91.0436C27.8586 90.6778 27.766 90.3432 27.4852 90.0403C27.2088 89.7425 26.8838 89.6264 26.5113 89.6932C26.1375 89.7601 25.6766 90.0475 25.1288 90.5563L23.9138 91.683C23.365 92.1921 23.0394 92.636 22.9368 93.0152C22.8338 93.3945 22.9206 93.733 23.1969 94.0312C23.4757 94.3313 23.8042 94.4436 24.1827 94.3668C24.5612 94.2905 25.0276 93.9959 25.5819 93.4816L26.7965 92.3548C27.3454 91.8464 27.6673 91.409 27.7632 91.0436Z" fill="#63C210"/>
<path d="M27.5653 99.5946C26.9389 99.0831 26.6211 98.4766 26.6127 97.7746C26.6038 97.0727 26.9713 96.2666 27.7144 95.3557L28.5193 94.3697C29.2604 93.462 29.9707 92.9438 30.6505 92.8159C31.3303 92.6877 31.9851 92.8801 32.6142 93.3943C33.2432 93.9082 33.5639 94.5112 33.5758 95.2039C33.5869 95.8965 33.2227 96.697 32.4811 97.6052L31.6766 98.5903C30.2527 100.335 28.882 100.669 27.5653 99.5946ZM32.3518 95.1774C32.3961 94.8019 32.2584 94.4835 31.938 94.2223C31.6232 93.9654 31.286 93.8955 30.9257 94.0131C30.5654 94.1304 30.1481 94.4792 29.675 95.0592L28.627 96.3423C28.1543 96.9215 27.8922 97.4065 27.8435 97.7959C27.794 98.1861 27.927 98.5097 28.2414 98.7665C28.5589 99.0257 28.8997 99.0911 29.2643 98.9631C29.6285 98.8358 30.0496 98.479 30.5273 97.8934L31.5753 96.6104C32.0489 96.0301 32.3074 95.5528 32.3518 95.1774Z" fill="#63C210"/>
<path d="M32.7861 102.117L39.1319 98.776L39.5267 99.4583L33.1803 102.798L32.7861 102.117ZM34.9616 96.2946C35.1991 96.149 35.4611 96.0772 35.749 96.0796C36.036 96.0825 36.3259 96.1687 36.6184 96.339C36.917 96.5132 37.1387 96.7249 37.284 96.9748C37.4292 97.2246 37.4961 97.4871 37.4838 97.7625C37.4715 98.0382 37.3905 98.305 37.2391 98.5634L37.0321 98.9191C36.8832 99.1745 36.6924 99.3748 36.4597 99.5192C36.2264 99.6641 35.9664 99.735 35.6794 99.7326C35.3924 99.7298 35.1006 99.6432 34.8052 99.4706C34.5102 99.298 34.289 99.0873 34.144 98.8373C33.9987 98.5876 33.9302 98.3251 33.9382 98.0492C33.9466 97.7737 34.0249 97.5084 34.1741 97.2526L34.3811 96.8971C34.5307 96.6414 34.7236 96.4411 34.9616 96.2946ZM34.8487 98.3082C34.8792 98.507 34.9976 98.6668 35.2039 98.7867C35.4034 98.9036 35.5982 98.9261 35.7863 98.8545C35.974 98.7825 36.1252 98.6496 36.238 98.4563L36.4455 98.1007C36.5603 97.903 36.6022 97.7044 36.5714 97.5024C36.5405 97.301 36.4233 97.1409 36.2198 97.0222C36.0199 96.9059 35.8255 96.8844 35.6363 96.9574C35.4475 97.031 35.2951 97.1656 35.1806 97.3627L34.9728 97.7183C34.8598 97.9118 34.8186 98.1087 34.8487 98.3082ZM35.9876 101.963C36.2244 101.819 36.486 101.748 36.7732 101.75C37.0606 101.752 37.3503 101.839 37.6433 102.01C37.9418 102.184 38.1628 102.395 38.3068 102.644C38.4498 102.893 38.5167 103.155 38.506 103.432C38.4955 103.707 38.4157 103.974 38.2668 104.23L38.057 104.59C37.9078 104.845 37.7153 105.045 37.4801 105.19C37.2449 105.336 36.9844 105.408 36.6986 105.407C36.4128 105.405 36.1225 105.318 35.8272 105.145C35.5316 104.974 35.3114 104.762 35.1656 104.513C35.0203 104.263 34.9526 104 34.9617 103.722C34.9701 103.445 35.0495 103.179 35.198 102.923L35.4087 102.563C35.5573 102.308 35.7505 102.107 35.9876 101.963ZM35.8686 103.775C35.8571 103.91 35.8813 104.039 35.941 104.16C35.9996 104.282 36.0961 104.381 36.228 104.458C36.4434 104.583 36.6406 104.61 36.8191 104.536C36.998 104.463 37.1462 104.327 37.2629 104.127L37.4723 103.766C37.5872 103.57 37.6291 103.371 37.5975 103.171C37.5655 102.971 37.4479 102.812 37.2448 102.693C37.0449 102.577 36.8496 102.554 36.6601 102.625C36.4701 102.695 36.3176 102.829 36.2027 103.027L35.9929 103.387C35.9211 103.509 35.8799 103.639 35.8686 103.775Z" fill="#63C210"/>
<path d="M47.1103 109.21C46.603 109.29 45.9822 109.218 45.2458 108.994C44.6151 108.802 44.1034 108.491 43.7105 108.062C43.3178 107.633 43.0704 107.109 42.9666 106.489C42.8632 105.869 42.9246 105.187 43.1511 104.444L43.2992 103.958C43.5288 103.205 43.848 102.598 44.2569 102.136C44.6662 101.674 45.1434 101.372 45.6897 101.231C46.2353 101.089 46.8268 101.116 47.4642 101.31C48.3399 101.577 48.9473 101.997 49.2857 102.567C49.6234 103.138 49.7283 103.806 49.5996 104.571L48.3011 104.175C48.4301 103.249 48.0516 102.652 47.1657 102.382C46.5797 102.204 46.073 102.285 45.647 102.626C45.2207 102.967 44.8841 103.544 44.6366 104.355L44.4854 104.851C44.3227 105.386 44.2585 105.865 44.2938 106.287C44.3286 106.709 44.4593 107.061 44.685 107.342C44.9099 107.623 45.2207 107.824 45.6162 107.944C46.0046 108.063 46.3162 108.112 46.5513 108.092C46.7865 108.072 46.9805 108.019 47.1342 107.932L47.5716 106.495L46.0581 106.034L46.3638 105.033L49.2016 105.897L48.3274 108.765C48.0224 108.981 47.617 109.13 47.1103 109.21Z" fill="#63C210"/>
<path d="M56.3958 108.423C56.3182 108.995 56.1258 109.465 55.8186 109.834C55.5117 110.202 55.1258 110.458 54.6607 110.602C54.1955 110.746 53.6888 110.781 53.1416 110.706C52.5803 110.631 52.0953 110.461 51.6866 110.199C51.2781 109.937 50.978 109.59 50.7868 109.155C50.5955 108.721 50.5389 108.217 50.6169 107.641L51.3128 102.498L52.6794 102.683L51.9835 107.826C51.9119 108.356 51.9915 108.768 52.223 109.064C52.4542 109.359 52.8101 109.54 53.2907 109.605C53.778 109.671 54.1708 109.593 54.4685 109.37C54.7662 109.149 54.9515 108.771 55.0231 108.237L55.7191 103.095L57.0916 103.28L56.3958 108.423Z" fill="#63C210"/>
<path d="M62.5863 109.224L59.5993 109.294L59.0213 111.093L57.5735 111.126L60.3254 103.278L61.2443 103.257L61.5701 103.25L64.6962 110.96L63.2479 110.994L62.5863 109.224ZM62.1698 108.116L60.9901 104.952L59.9579 108.168L62.1698 108.116Z" fill="#63C210"/>
<path d="M72.2512 109.579L72.2639 109.648L70.8023 109.915L68.7475 107.259L67.2911 107.524L67.8259 110.457L66.4644 110.706L65.0669 103.051L67.7804 102.555C68.6636 102.395 69.3826 102.468 69.9365 102.777C70.4908 103.084 70.8359 103.612 70.9726 104.358C71.0649 104.863 71.0216 105.313 70.8439 105.707C70.6658 106.102 70.3716 106.435 69.9611 106.705L72.2512 109.579ZM67.0909 106.43L68.4473 106.183C68.903 106.099 69.2304 105.922 69.4288 105.65C69.6275 105.379 69.6924 105.054 69.6231 104.675C69.549 104.272 69.3765 103.979 69.1041 103.797C68.832 103.615 68.458 103.568 67.9808 103.654L66.6296 103.901L67.0909 106.43Z" fill="#63C210"/>
<path d="M77.6066 106.019L74.785 107.001L74.7858 108.89L73.418 109.366L73.6322 101.052L74.5004 100.751L74.8084 100.644L80.1467 107.025L78.7789 107.501L77.6066 106.019ZM76.8713 105.092L74.7774 102.442L74.7809 105.819L76.8713 105.092Z" fill="#63C210"/>
<path d="M86.018 103.945L80.3858 100.787L83.0115 105.588L81.7977 106.253L78.064 99.4257L79.2781 98.761L84.9249 101.923L82.2933 97.1119L83.4984 96.4531L87.2322 103.28L86.018 103.945Z" fill="#63C210"/>
<path d="M89.6824 93.1321L87.7717 94.6188L91.8636 99.8788L90.7759 100.726L86.6833 95.4653L84.7938 96.9357L84.1077 96.0539L87.086 93.7369L88.9971 92.2501L89.6824 93.1321Z" fill="#63C210"/>
<path d="M97.861 92.6567L98.6615 93.4281L95.8257 96.3736L95.1214 97.1043L89.5159 91.7071L90.4759 90.7102L93.0343 88.0533L93.8387 88.8285L91.2807 91.4842L92.8014 92.9489L95.0074 90.6584L95.7929 91.415L93.5864 93.7052L95.2805 95.3371L97.861 92.6567Z" fill="#63C210"/>
<path d="M101.966 87.1696L102.864 87.8245L100.457 91.1287L99.8588 91.9498L93.5691 87.3676L94.3841 86.2488L96.5552 83.2684L97.4584 83.9256L95.287 86.9068L96.9933 88.1499L98.8659 85.5792L99.7471 86.2214L97.8745 88.7918L99.7752 90.1767L101.966 87.1696Z" fill="#63C210"/>
<path d="M28.4366 49.1987V70.8149H23.7898V61.6399H15.3717V70.8149H10.71V49.1987H15.3717V57.8837H23.7898V49.1987H28.4366Z" fill="#63C210"/>
<path d="M44.4709 66.5241H36.8102L35.3997 70.8149H30.4414L38.4585 49.1987H41.6059H42.7936L50.8549 70.8149H45.8816L44.4709 66.5241ZM43.2237 62.7533L40.6253 54.8701L38.0425 62.7533H43.2237Z" fill="#63C210"/>
<path d="M68.6482 67.5044C67.9304 68.6425 66.9283 69.5286 65.6417 70.1621C64.3551 70.7956 62.8455 71.1121 61.1133 71.1121C59.2629 71.1121 57.6594 70.689 56.3031 69.8429C54.9471 68.9964 53.9102 67.789 53.1928 66.2202C52.4753 64.6514 52.1167 62.8033 52.1167 60.6749V59.3537C52.1167 57.2356 52.4876 55.3872 53.2299 53.8087C53.9722 52.2299 55.021 51.0152 56.3773 50.1636C57.7333 49.3124 59.3169 48.8868 61.1282 48.8868C62.8998 48.8868 64.419 49.2135 65.6859 49.8667C66.9528 50.5199 67.9353 51.4235 68.633 52.5763C69.3306 53.7295 69.7487 55.0631 69.8876 56.5772H65.2409C65.1514 55.2708 64.7928 54.2985 64.164 53.6602C63.5357 53.0216 62.5237 52.7025 61.1282 52.7025C59.6732 52.7025 58.5944 53.237 57.8917 54.3059C57.189 55.3748 56.8374 57.0476 56.8374 59.324V60.6749C56.8374 62.2094 56.9807 63.459 57.2682 64.4237C57.5552 65.389 58.0105 66.1086 58.634 66.5836C59.2575 67.0589 60.0839 67.2962 61.1132 67.2962C62.4498 67.2962 63.4467 66.9921 64.1047 66.3833C64.763 65.7748 65.1368 64.8368 65.2259 63.5699H69.873C69.7741 65.0548 69.3655 66.3666 68.6482 67.5044Z" fill="#63C210"/>
<path d="M88.5715 67.5044C87.8541 68.6425 86.8517 69.5286 85.5655 70.1621C84.2788 70.7956 82.7694 71.1121 81.0375 71.1121C79.1863 71.1121 77.5829 70.689 76.2272 69.8429C74.8709 68.9964 73.8344 67.789 73.1169 66.2202C72.3988 64.6514 72.04 62.8033 72.04 60.6749V59.3537C72.04 57.2356 72.4114 55.3872 73.1537 53.8087C73.896 52.2299 74.9452 51.0152 76.3011 50.1636C77.6571 49.3124 79.2407 48.8868 81.0519 48.8868C82.8236 48.8868 84.3427 49.2135 85.6099 49.8667C86.8768 50.5199 87.8586 51.4235 88.5571 52.5763C89.2546 53.7295 89.6728 55.0631 89.8113 56.5772H85.1641C85.0755 55.2708 84.7164 54.2985 84.088 53.6602C83.4594 53.0216 82.4473 52.7025 81.0518 52.7025C79.5968 52.7025 78.518 53.237 77.8153 54.3059C77.1122 55.3748 76.7614 57.0476 76.7614 59.324V60.6749C76.7614 62.2094 76.9048 63.459 77.1918 64.4237C77.4788 65.389 77.9341 66.1086 78.5576 66.5836C79.1811 67.0589 80.0075 67.2962 81.0372 67.2962C82.373 67.2962 83.3703 66.9921 84.0287 66.3833C84.6867 65.7748 85.0604 64.8368 85.1495 63.5699H89.7963C89.6975 65.0548 89.2895 66.3666 88.5715 67.5044Z" fill="#63C210"/>
<path d="M105.46 50.1275C106.697 50.7459 107.645 51.5996 108.303 52.6882C108.961 53.7774 109.29 55.0193 109.29 56.415C109.29 57.8005 108.963 59.0128 108.31 60.0521C107.657 61.0915 106.712 61.8932 105.474 62.4573C104.237 63.0215 102.778 63.3036 101.095 63.3036H97.2645V70.8159H92.6028V49.1997H101.095C102.767 49.1996 104.222 49.5088 105.46 50.1275ZM103.723 58.7012C104.297 58.1469 104.584 57.3948 104.584 56.4446C104.584 55.8111 104.46 55.2323 104.213 54.7074C103.965 54.1828 103.579 53.7624 103.055 53.4457C102.53 53.1289 101.876 52.9705 101.095 52.9705H97.2645V59.5327H101.095C102.273 59.5327 103.149 59.2555 103.723 58.7012Z" fill="#63C210"/>
</svg>
