<svg width="120" height="120" viewBox="0 0 120 120" fill="none" xmlns="http://www.w3.org/2000/svg">
<path d="M97.8844 60.128C97.7028 81.1447 80.6165 98.1001 59.5994 97.9515C38.5575 97.8607 21.5869 80.6907 21.686 59.6492C21.8264 38.5995 38.9869 21.6607 60.0041 21.7762C81.0625 21.8835 98.0166 39.0783 97.8844 60.128Z" fill="#069547"/>
<path d="M12.3709 61.5312L13.4196 63.6032L15.7732 63.9994L13.9895 65.6256L14.3941 67.9287L12.3626 66.8143L10.2567 67.9287L10.7027 65.5678L8.98499 63.9251L11.3055 63.5949L12.3709 61.5312Z" fill="#069547"/>
<path d="M17.5322 51.1465L17.5818 52.7397C17.524 53.4579 17.2762 53.9779 16.9211 54.4567L15.6907 55.6702C15.2199 55.9591 14.7162 56.1572 14.0968 56.2398H12.3626C11.6772 56.1572 11.1569 55.9591 10.5375 55.6702L9.15842 54.6136L8.31608 53.1029C8.12614 52.5168 8.10137 51.906 8.19221 51.1548L8.61338 49.801L9.35662 48.7444L10.4137 48.084L11.8506 47.8694L11.6524 49.0168L10.7275 49.1902L9.97599 49.6442L9.45572 50.4531L9.23275 51.3281L9.33185 52.814L9.9925 53.8706L11.1487 54.6383L12.4947 55.0345L13.8573 55.0511L15.0878 54.6631L16.1283 53.8541L16.6073 52.5581L16.5908 51.3034L16.1283 50.2715L15.2447 49.5864L14.1299 49.2479L13.6757 52.0793L12.6764 51.9142L13.3288 47.9767L18.0608 48.7444L17.9452 49.5286L16.7642 49.6277L17.5322 51.1465Z" fill="#069547"/>
<path d="M14.394 45.1373L13.5847 44.155L13.304 42.958L13.5682 41.6208L14.3445 40.4238L15.3355 39.7222L16.6072 39.5901L17.9368 39.9038L19.1012 40.5724L19.9023 41.5217L20.1996 42.7434L19.9518 44.1467L19.2003 45.3107L18.1763 45.9793L16.9045 46.1609L15.5832 45.8472L14.394 45.1373ZM17.0697 45.0135L17.9451 44.8897L18.6057 44.4522L19.0847 43.7588L19.2168 42.9746L19.0186 42.2069L18.3993 41.53L17.5156 40.9851L16.4586 40.7127L15.575 40.8531L14.8565 41.2493L14.4271 41.9344L14.3362 42.7434L14.4931 43.5359L15.063 44.2293L15.9714 44.7824L17.0697 45.0135Z" fill="#069547"/>
<path d="M17.8047 37.2456L17.2101 36.156L17.0697 34.9178L17.59 33.6053L18.5727 32.5569L19.7206 32.1029L20.9593 32.1607L22.2311 32.7055L23.2221 33.6053L23.8662 34.6949L23.924 35.9166L23.412 37.2456L22.4953 38.294L21.3227 38.7315L20.0592 38.682L18.8122 38.1289L17.8047 37.2456ZM20.4391 37.6089L21.3144 37.6419L22.0824 37.3199L22.6688 36.7586L22.8752 36.0074L22.8587 35.1654L22.4375 34.3977L21.6117 33.6796L20.629 33.2916L19.7206 33.2421L18.9939 33.5557L18.4075 34.1171L18.1433 34.8848L18.168 35.6442L18.6057 36.4449L19.4316 37.1548L20.4391 37.6089Z" fill="#069547"/>
<path d="M29.2423 29.5521L28.6147 28.9412V28.9742V30.1464L27.9706 31.203L26.864 31.9955L25.6748 32.1936L24.4856 31.8387L23.3955 31.0792L22.5037 30.1299L22.1238 28.933L22.2311 27.736L22.8588 26.5886L23.2964 26.2502L23.7919 25.8704L24.403 25.7136H25.0885V25.6723L22.611 23.4353L23.3295 22.618L30.0186 28.7514L29.2423 29.5521ZM24.9481 30.8563L25.7739 31.0875L26.608 30.9636L27.3843 30.4188L27.8137 29.6264V28.7926L27.4751 27.9672L26.9301 27.3315L26.162 26.762L25.3197 26.5061L24.4774 26.5969L23.635 27.1169L23.1891 27.9672V28.8504L23.5524 29.6264L24.1801 30.295L24.9481 30.8563Z" fill="#069547"/>
<path d="M31.7693 15.9315L38.0043 21.1403L36.7573 13.1166L38.2025 12.2664L42.6619 20.1992L41.6544 20.7605L37.9299 14.1567V14.198L39.1522 22.1556L38.2768 22.6922L32.0666 17.5164L35.7498 24.0872L34.767 24.6651L30.3076 16.7652L31.7693 15.9315Z" fill="#069547"/>
<path d="M49.888 18.1772L49.1613 18.1111L48.7154 17.4425L47.9061 18.4661L46.7747 19.0522L45.9406 19.2338L45.1808 19.11L44.578 18.6972L44.1734 17.9295L44.066 16.9885L44.4128 16.2951L44.9579 15.775L45.7011 15.3375L46.4526 14.9826L47.1628 14.6359L47.551 14.3139L47.5675 13.7856L47.2619 13.2986L46.849 13.084H46.3287L45.8332 13.1748L44.8092 13.7444L44.6193 14.8257L43.5953 15.1477L43.5127 14.0911L43.9256 13.2656L44.6441 12.6712L45.6268 12.2337L46.5022 12.0521H47.3362L48.0382 12.4401L48.4924 13.2656L49.4669 16.551L49.6981 17.0298L50.0119 17.0876L50.2927 16.9885L50.5569 17.7644L49.888 18.1772ZM47.4931 15.4036L46.8738 15.6677L46.1471 16.0062L45.5772 16.3776L45.2717 16.8564V17.5168L45.5029 17.9295L45.858 18.1359L46.304 18.1854L46.7499 18.1111L47.5757 17.6901L48.0547 17.1618L48.2529 16.6005L48.1951 16.064L47.8978 15.0404L47.4931 15.4036Z" fill="#069547"/>
<path d="M52.2167 10.8964L52.3488 11.8787C52.7535 11.0368 53.4059 10.5662 54.339 10.4259L55.4704 10.5167L56.2054 10.9377L56.6844 11.5981L56.8908 12.6217L57.4194 16.8977L56.3375 17.0215L55.809 12.6299L55.3548 11.6724L54.339 11.4412L53.4884 11.6724L52.9352 12.1759L52.6461 12.8776V13.7196L53.059 17.4177L52.0102 17.5085L51.2009 10.9707L52.2167 10.8964Z" fill="#069547"/>
<path d="M63.9433 17.0711L64.0342 16.0558H63.9764L63.0515 16.906L61.7797 17.0711L60.7061 16.873L60.0868 16.3282L59.6986 15.5522L59.6326 14.5699L59.9299 10.2692L60.9869 10.3517L60.7392 14.768L61.02 15.7669L61.9862 16.1548L62.845 16.0558L63.4561 15.6595L63.8855 15.0322L64.0342 14.2315L64.2819 10.5333L65.3472 10.5663L64.9591 17.1619L63.9433 17.0711Z" fill="#069547"/>
<path d="M67.2053 11.8291L67.4283 10.8963L68.5184 11.0449L68.6835 10.1617L69.3937 9.05552L70.7811 8.89868L71.1527 8.96472L71.4666 9.13807L71.2766 10.0461L70.9958 9.94704L70.6903 9.84798L70.0379 9.881L69.7406 10.4093L69.5919 11.3091L70.8307 11.565L70.682 12.4235L69.3937 12.2584L68.3367 17.8056L67.3044 17.5745L68.3367 12.0355L67.2053 11.8291Z" fill="#069547"/>
<path d="M75.6866 20.0261L75.1498 19.6051V18.7713L73.9523 19.1923L72.6475 18.9777L71.8382 18.6558L71.318 18.1275L71.0537 17.4423L71.1776 16.5921L71.6318 15.7666L72.3007 15.3951L73.0522 15.2961L73.9028 15.3786L74.7369 15.5107L75.4719 15.6428L75.9921 15.5355L76.3224 15.1475L76.3472 14.5697L76.1821 14.1569L75.7526 13.868L75.2737 13.6369L74.1092 13.5461L73.3577 14.3055L72.3007 13.9836L72.8788 13.1086L73.6468 12.6545L74.5965 12.5885L75.637 12.7453L76.4546 13.1251L77.107 13.6204L77.4703 14.3138L77.4043 15.2713L76.3472 18.4659L76.2068 18.986L76.4215 19.2914L76.7849 19.3657L76.4793 20.1169L75.6866 20.0261ZM75.3315 16.4435L74.6047 16.2949L73.911 16.1463L73.2256 16.1381L72.6475 16.3197L72.309 16.9058L72.2677 17.3185L72.4163 17.6817L72.7549 17.9706L73.2008 18.1935L74.1092 18.3421L74.8195 18.1935L75.3315 17.8551L75.5627 17.4176L75.8848 16.3609L75.3315 16.4435Z" fill="#069547"/>
<path d="M83.763 17.8223L82.9867 16.9803L81.9792 16.7657L81.1699 16.9638L80.468 17.5086L79.9642 18.3011L79.6504 19.1018L79.5926 19.9438L79.7991 20.7197L80.4845 21.3554L81.8388 21.5122L82.8711 20.7445L83.8704 21.248C83.3253 21.9497 82.7803 22.3624 82.1609 22.4863C81.5003 22.6844 80.8148 22.5606 80.0633 22.1478L79.0145 21.3554L78.4695 20.241V19.0358L78.9567 17.7398L79.7578 16.6501L80.8148 15.9072L81.9792 15.6595L83.3253 16.1053L84.2337 16.7657L84.754 17.5086L85.043 18.4167L84.754 19.4733L83.763 18.978V17.8223Z" fill="#069547"/>
<path d="M90.1052 20.6532L89.5106 21.4127L88.4949 20.6532L86.1083 23.9799L85.9348 24.2358V24.4587L86.1083 24.6651L86.4221 24.9705L86.8185 25.1934L86.2239 26.0023L85.5715 25.5236L85.0429 25.0365L84.7539 24.5577V24.046L85.1503 23.4433L87.5947 20.0259L86.6946 19.3655L87.2809 18.5648L88.1811 19.2582L89.3042 17.6567L90.2208 18.3006L89.0399 19.8443L90.1052 20.6532Z" fill="#069547"/>
<path d="M90.6173 29.9567L91.3853 29.1807L91.3771 29.1477L90.1136 29.2137L89.0152 28.5368L88.3463 27.7031L88.1812 26.8859L88.4537 26.0439L89.0152 25.2679L92.0212 22.1559L92.7645 22.9071L89.7089 26.0769L89.296 27.0345L89.7502 27.9673L90.4769 28.4708L91.2367 28.6029L91.9469 28.3387L92.5993 27.8682L95.2006 25.1606L95.9439 25.8788L91.3853 30.6583L90.6173 29.9567Z" fill="#069547"/>
<path d="M98.4875 28.8917L97.3644 29.7668V29.8163C97.992 29.6512 98.4875 29.6512 98.9087 29.8163L100.081 30.7161L99.206 31.4507L98.3636 30.6913L97.513 30.4106L96.6046 30.65L95.6302 31.2031L93.3014 33.0522L92.6572 32.1854L97.8434 28.1075L98.4875 28.8917Z" fill="#069547"/>
<path d="M101.526 33.1512L95.9602 36.7668L95.4399 35.8423L100.899 32.2102L101.526 33.1512ZM101.914 31.5581L102.98 30.8481L103.574 31.7644L102.501 32.4991L101.914 31.5581Z" fill="#069547"/>
<path d="M103.467 36.4366L102.509 36.8823L102.575 36.9071C103.467 36.9318 104.136 37.3941 104.549 38.2856L104.863 39.3092L104.722 40.1677L104.252 40.8446L103.385 41.3647L99.5279 43.288L99.0407 42.3057L103.013 40.3328L103.773 39.5734L103.657 38.5333L103.095 37.8069L102.435 37.5014L101.7 37.4519L100.899 37.7078L97.5872 39.3505L97.0835 38.4012L102.98 35.479L103.467 36.4366Z" fill="#069547"/>
<path d="M99.8914 50.5194C99.2473 50.1892 98.7683 49.5289 98.4875 48.53L98.3389 47.5725L98.4297 46.681L98.7683 45.8968L99.5363 45.3602L99.8832 46.4498L99.4537 46.7222L99.239 47.2423L99.206 47.7871L99.3299 48.3319L99.7758 49.1409L100.395 49.5866L101.221 49.727L102.237 49.5619L102.641 49.405L101.543 48.852L100.924 47.7623L100.833 46.4746L101.32 45.385L102.146 44.5842L103.31 44.0394L104.549 43.8413L105.788 44.0394L106.812 44.6833L107.514 45.9876L107.563 47.1432L107.026 48.1751L107.918 47.9109L108.199 48.9015L102.427 50.5277C101.337 50.8579 100.544 50.8249 99.8914 50.5194ZM102.352 48.3319L103.071 48.7447L103.979 48.8932L104.871 48.7447L105.689 48.4227L106.316 47.8696L106.663 47.1845V46.3012L106.192 45.4345L105.532 45.0217L104.665 44.9392L103.781 45.0713L102.963 45.4097L102.237 45.9463L101.873 46.6149L101.915 47.5477L102.352 48.3319Z" fill="#069547"/>
<path d="M111.857 60.5819C111.857 61.4899 111.659 62.1916 111.18 62.6456C110.734 63.1491 110.057 63.3803 109.223 63.3803C108.356 63.3803 107.703 63.1821 107.208 62.7116C106.704 62.2328 106.498 61.5724 106.498 60.6314L106.448 57.8908H102.749V56.7104L111.849 56.5865L111.857 60.5819ZM107.514 60.2022C107.514 60.9203 107.637 61.3826 107.918 61.721L109.173 62.1668L110.363 61.688C110.726 61.3661 110.842 60.8213 110.842 60.1856L110.833 57.8248L107.431 57.8908L107.514 60.2022Z" fill="#069547"/>
<path d="M108.818 67.1777L107.439 66.9796L108.48 68.1188L108.579 69.5799L107.439 69.4313V68.3169L107.035 67.4832L106.308 66.9796L105.152 66.6577L102.286 66.2119L102.435 65.1636L108.951 66.1376L108.818 67.1777Z" fill="#069547"/>
<path d="M100.123 74.5077L100.544 73.9133H101.337L100.899 72.7164L101.039 71.4452L101.337 70.6197L101.915 70.0336L102.575 69.7529L103.409 69.8602L104.252 70.306L104.656 70.9746L104.714 71.7423V72.5761L104.607 73.4346L104.541 74.1362L104.607 74.6398L105.02 74.97L105.59 75.0277L106.002 74.7553L106.291 74.3426L106.506 73.8886L106.556 72.6834L105.771 71.9322L106.06 70.9169L107.01 71.4452L107.423 72.2129L107.555 73.2034L107.39 74.2105L107.06 75.069L106.556 75.7377L105.862 76.0926L104.888 76.0431L101.675 75.0938L101.13 74.97L100.841 75.1681L100.808 75.5726L100.04 75.3002L100.123 74.5077ZM103.731 74.0041L103.855 73.2777L103.946 72.5678V71.8744L103.731 71.3296L103.211 70.9746L102.716 70.9169L102.352 71.1232L102.072 71.4534L101.915 71.9322L101.758 72.799L101.964 73.5419L102.286 74.0537L102.732 74.3178L103.781 74.6315L103.731 74.0041Z" fill="#069547"/>
<path d="M102.575 82.5729L103.343 81.7722L103.608 80.7816L103.343 79.9149L102.782 79.304L101.956 78.7675L101.114 78.4868L100.304 78.396L99.5445 78.7014L98.9169 79.4113L98.7765 80.7403L99.5445 81.7722L99.1151 82.7215C98.4296 82.2675 97.992 81.7062 97.8103 81.1036C97.6203 80.4597 97.6947 79.7663 98.1158 78.9986L98.9169 77.9255L99.9904 77.3476L101.188 77.2981L102.468 77.7273L103.657 78.5115L104.367 79.4939L104.615 80.7734L104.252 82.1106L103.657 82.9361L102.889 83.5552L101.981 83.8276L100.915 83.6295L101.469 82.6142L102.575 82.5729Z" fill="#069547"/>
<path d="M99.9656 88.8961L99.148 88.343L99.8913 87.2864L96.5219 85.0163L96.2411 84.8842H96.0264L95.853 85.0163L95.597 85.3795L95.3245 85.8005L94.4739 85.2392L94.9611 84.5293L95.4483 83.9927L95.853 83.712H96.3567L97.0339 84.0587L100.445 86.4279L101.113 85.4621L101.915 86.0069L101.32 86.9314L102.897 88.0458L102.286 88.9291L100.668 87.8064L99.9656 88.8961Z" fill="#069547"/>
<path d="M98.0167 91.3561L92.9131 87.2204L93.6315 86.3784L98.7351 90.5223L98.0167 91.3561ZM99.6353 91.29L100.659 92.0577L99.9986 92.9327L98.9746 92.1155L99.6353 91.29Z" fill="#069547"/>
<path d="M92.657 95.4336L93.6892 94.9218L94.2343 94.0716L94.3003 93.1883L93.937 92.4124L93.3011 91.6116L92.657 91.0586L91.8559 90.7779H91.0218L90.2869 91.2815L89.7088 92.4206L90.1134 93.6836L89.3124 94.4183C88.8664 93.7496 88.6104 93.114 88.6435 92.4371C88.7013 91.7685 89.0233 91.2072 89.6592 90.5633L90.7658 89.8781L91.8972 89.6305L93.0533 90.002L94.16 90.8357L95.0023 91.9749L95.3326 93.1553L95.2088 94.3853L94.416 95.5574L93.5819 96.16L92.6652 96.4737L91.7238 96.3829L90.7741 95.8629L91.6164 95.0952L92.657 95.4336Z" fill="#069547"/>
<path d="M82.7224 96.7297C82.9123 96.1601 83.3252 95.6731 83.9529 95.2191L85.2081 94.666L86.4221 94.6825L87.5287 95.2356L88.5279 96.2674L89.0895 97.5057L89.1638 98.7769L88.7591 99.8996L87.9086 100.832L86.5294 101.394L85.2081 101.13L84.0933 100.395L83.3252 99.4208L87.3552 96.6307L86.8185 96.0363L86.1 95.6648L85.3155 95.6071L84.4318 96.0363L83.6721 96.9278L83.7547 98.0175L82.871 98.6613C82.5985 97.9432 82.5655 97.3241 82.7224 96.7297ZM85.3568 100.073L86.0174 100.304H86.7111L87.4213 100.023L87.9746 99.5033L88.1728 98.8099V98.1165L87.9003 97.4396L84.7457 99.5694L85.3568 100.073Z" fill="#069547"/>
<path d="M73.9026 108.707L75.6368 108.6L76.8343 107.89L77.4867 106.784L77.6601 105.521L77.3711 104.151L76.7765 102.813L75.8681 101.831L74.7119 101.336L73.2667 101.509L72.317 102.046L71.7307 102.813L71.4417 103.787L71.5408 104.819L70.4589 105.215C70.1534 104.076 70.2855 103.094 70.7067 102.293C71.1526 101.468 71.8959 100.89 73.0272 100.551L74.8853 100.304L76.4379 100.824L77.6353 102.013L78.5024 103.68C78.7006 104.357 78.7749 104.951 78.808 105.546L78.5189 107.296L77.5197 108.674L75.9424 109.599L74.5715 109.83L73.3245 109.665L72.2345 109.013L71.4086 107.923L72.5648 107.543L73.9026 108.707Z" fill="#069547"/>
<path d="M62.9193 103.193C63.4231 102.805 63.9764 102.475 64.7113 102.417L66.0822 102.533L67.1723 103.094L67.866 104.118L68.2376 105.455L68.188 106.834L67.6678 107.997L66.7676 108.806L65.595 109.203L64.0755 109.005L63.0762 108.245L62.4321 107.065L62.1843 105.835L67.098 105.249L66.875 104.415L66.4125 103.812L65.7106 103.408L64.8022 103.35L63.7451 103.821L63.2496 104.819L62.1926 104.951C62.2586 104.167 62.4899 103.606 62.9193 103.193ZM63.6791 107.37L64.158 107.898L64.7857 108.187L65.5206 108.253L66.2474 107.997L66.7676 107.543L67.1227 106.916L67.1723 106.181L63.4231 106.627L63.6791 107.37Z" fill="#069547"/>
<path d="M59.1949 109.426V107.997L58.1709 109.178L56.7422 109.516V108.427L57.8983 108.187L58.6416 107.692L59.038 106.842L59.1949 105.777L59.3022 102.813L60.3428 102.822L60.2024 109.426H59.1949Z" fill="#069547"/>
<path d="M52.3486 108.889L52.4312 107.931L53.769 108.105L54.2067 104.019V103.746L54.1572 103.507L53.9177 103.416L53.48 103.35L52.9928 103.309L53.0919 102.335L53.9177 102.45L54.6114 102.574L55.0656 102.822L55.3464 103.309V104.076L54.8591 108.187L55.9492 108.336L55.8501 109.302L54.7187 109.178L54.471 111.11L53.4057 110.986L53.6617 109.013L52.3486 108.889Z" fill="#069547"/>
<path d="M50.0611 109.681L49.8547 110.953L48.7563 110.721L49.0206 109.45L50.0611 109.681ZM49.2601 108.295L50.5897 101.831L51.6467 102.062L50.3254 108.567L49.2601 108.295Z" fill="#069547"/>
<path d="M47.7903 107.015L47.5095 107.898L46.4359 107.61L46.1469 108.567L45.4284 109.599H43.9833L43.6364 109.467L43.3391 109.302L43.6199 108.427L43.8924 108.567L44.1319 108.674L44.7926 108.707L45.1972 108.187L45.445 107.296L44.1897 106.933L44.4292 106.016L45.7092 106.355L47.2535 101.022L48.3188 101.295L46.7415 106.693L47.7903 107.015Z" fill="#069547"/>
<path d="M42.1086 107.395L41.6461 108.707L40.6304 108.295L41.1259 107.048L42.1086 107.395ZM41.4975 105.95L43.8924 99.7756L44.8833 100.188L42.538 106.305L41.4975 105.95Z" fill="#069547"/>
<path d="M35.9811 102.005L36.7822 102.822L37.7319 103.094L38.5742 102.904L39.2679 102.327L39.8212 101.551L40.0937 100.676L40.1846 99.8749L39.8873 99.0989L39.2018 98.5046L37.9218 98.29L36.873 99.0989L35.8903 98.5789C36.3858 97.8855 36.8895 97.4892 37.5584 97.3159C38.2191 97.2251 38.8963 97.2829 39.6726 97.6874L40.6801 98.4963L41.2581 99.5447V100.783L40.7874 102.054L39.9864 103.185L38.9128 103.92L37.7319 104.11L36.394 103.738L35.5517 103.103L34.9571 102.327L34.7837 101.46L34.9571 100.403L35.9811 100.89V102.005Z" fill="#069547"/>
<path d="M31.7692 92.3219L32.0995 92.9162L31.8931 93.7087L33.1648 93.7417L34.3127 94.303L34.9486 94.9139L35.2624 95.5578L35.312 96.2842L34.9486 97.0766L34.1971 97.704L33.4043 97.8526L32.6859 97.6958L31.9591 97.3243L31.1333 96.9446L30.5222 96.6144L30.0019 96.474L29.6056 96.7382L29.333 97.2913L29.4074 97.7453L29.6386 98.1663L30.0515 98.5047L31.1333 98.9835L32.0913 98.513L32.9997 99.2064L32.1573 99.8668L31.315 99.9906L30.2992 99.7677L29.4817 99.2146L28.7962 98.6285L28.3173 97.9351L28.2017 97.217L28.5815 96.2759L30.6543 93.5766L30.9764 93.1309L30.8278 92.8007L30.514 92.6768L31.0095 91.9669L31.7692 92.3219ZM30.9103 95.8714L31.571 96.2264L32.1656 96.5814L32.8345 96.8455H33.3961L33.9494 96.4493L34.131 96.053L34.1145 95.6238L33.8833 95.2276L33.5365 94.9221L32.7272 94.4186L32.0417 94.3773L31.4637 94.5507L31.0177 94.8478L30.3405 95.7229L30.9103 95.8714Z" fill="#069547"/>
<path d="M23.5194 93.6508L24.1883 92.9822L25.0802 93.8902L27.9954 91.001L28.2101 90.7864L28.2183 90.5635L28.1357 90.3571L27.8137 90.0187L27.4833 89.6802L28.1357 89.0116L28.7716 89.5812L29.2258 90.1342L29.4158 90.646L29.2423 91.1166L28.8294 91.7192L25.8152 94.6909L26.6245 95.4751L25.9473 96.119L25.1958 95.343L23.7672 96.672L22.9744 95.9786L24.3948 94.5836L23.5194 93.6508Z" fill="#069547"/>
<path d="M21.2236 92.8172L20.1996 93.717L19.5142 92.8585L20.5299 91.9999L21.2236 92.8172ZM21.4383 91.29L26.4841 87.0388L27.1778 87.9056L22.132 92.0577L21.4383 91.29Z" fill="#069547"/>
<path d="M21.3806 88.1612L20.0758 88.252L18.9857 87.7815L18.003 86.7992L17.4414 85.4619L17.524 84.2402L18.1434 83.1175L19.1756 82.2425L20.4309 81.6894L21.6448 81.5986L22.801 82.0114L23.7589 83.035L24.2709 84.3805L24.2627 85.5692L23.6433 86.6588L22.6523 87.5669L21.3806 88.1612ZM22.801 85.9159L23.2139 85.0904L23.2634 84.3145L22.9579 83.5633L22.4211 83.0267L21.6448 82.7213L20.7695 82.7378L19.762 83.2413L18.994 83.91L18.5728 84.7107L18.515 85.5197L18.8205 86.2708L19.3408 86.8735L20.0758 87.1871L21.0255 87.0551L22.0082 86.6341L22.801 85.9159Z" fill="#069547"/>
<path d="M14.6336 80.4594L15.6163 80.0384V80.0219C14.7327 79.9063 14.0803 79.4111 13.7334 78.503L13.4279 77.4464L13.6591 76.5962L14.2124 75.9853L15.0547 75.4653L19.0434 73.8308L19.4646 74.8379L15.352 76.5384L14.5757 77.2318L14.6418 78.2719L15.1208 78.9983L15.7814 79.4111L16.4834 79.4936L17.301 79.312L20.7446 77.8674L21.1245 78.8827L15.0878 81.384L14.6336 80.4594Z" fill="#069547"/>
<path d="M42.7692 59.3603C41.2662 61.3167 39.2099 62.0431 37.2775 62.0431C31.0839 62.0431 27.4585 57.4452 27.4585 51.6668C27.4585 45.7399 31.0839 41.1007 37.2775 41.1007C41.3736 41.1007 45.2054 43.6432 45.7174 48.1586H41.4974C41.0102 45.971 39.3503 44.8484 37.2775 44.8484C33.3549 44.8484 31.8188 48.1586 31.8188 51.6668C31.8188 54.9853 33.3466 58.3615 37.2775 58.3615C40.1514 58.3615 41.8195 56.8674 42.0177 54.0525H37.6409V50.7588H46.0312V61.5726H43.2234L42.7692 59.3603Z" fill="white"/>
<path d="M49.6069 41.6122H55.7593L60.45 55.3317H60.4747L64.9259 41.6122H71.1526V61.5723H67.0152V47.3823H66.9574L62.0355 61.5723H58.6579L53.7608 47.5556H53.6617V61.5723H49.6069V41.6122Z" fill="white"/>
<path d="M74.9846 41.6122H83.986C88.9822 41.6122 90.9147 44.7655 90.9147 47.9766C90.9147 51.2538 88.9822 54.3989 83.986 54.3989H79.3945V61.5723H74.9763V41.6122H74.9846ZM79.3945 51.0061H82.7803C84.8531 51.0061 86.6534 50.5191 86.6534 47.9849C86.6534 45.4424 84.8531 45.0214 82.7803 45.0214H79.3945V51.0061Z" fill="white"/>
<path d="M44.0658 79.3283L42.9427 80.55L41.1341 78.9403C40.1514 79.4604 39.0943 79.7163 38.1364 79.7163C34.3211 79.7163 32.0583 76.629 32.0583 73.0134C32.0583 69.4391 34.3211 66.4095 38.1364 66.4095C41.8856 66.4095 44.1979 69.4391 44.1979 73.0134C44.1979 74.8212 43.6529 76.6868 42.4059 77.9332L44.0658 79.3283ZM38.252 76.4639L39.3421 75.2339L40.8699 76.596C41.6627 75.6219 41.9682 74.3342 41.9682 73.0051C41.9682 70.6112 40.8699 68.2421 38.1281 68.2421C35.3699 68.2421 34.2055 70.6112 34.2055 73.0051C34.2055 75.4568 35.3699 77.9085 38.1281 77.9085L39.5403 77.603L38.252 76.4639Z" fill="white"/>
<path d="M54.0748 79.4113H52.0515V78.1153H52.002C51.5148 79.0234 50.3916 79.6094 49.3429 79.6094C46.9975 79.6094 45.9487 78.4125 45.9487 76.0351V70.199H47.972V75.8287C47.972 77.4549 48.6739 78.0575 49.731 78.0575C51.4487 78.0575 52.002 76.9762 52.002 75.5728V70.2072H54.0748V79.4113Z" fill="white"/>
<path d="M63.9186 77.3474L64.3893 78.0491L64.893 77.9995V79.4111L63.5965 79.6092C62.7542 79.6092 62.1843 79.3616 62.0192 78.5113C61.2429 79.3285 59.9298 79.6092 58.815 79.6092C57.1881 79.6092 55.6521 78.7672 55.6521 76.9842C55.6521 74.6398 57.5185 74.3096 59.2527 74.1363C60.7061 73.8226 61.9944 73.9959 61.9944 72.799C61.9944 71.7424 60.9126 71.5608 60.095 71.5608C58.9554 71.5608 58.1461 72.0396 58.0305 73.0136H56.032C56.1558 70.6528 58.1708 69.9594 60.2106 69.9594C62.0192 69.9594 63.9186 70.6858 63.9186 72.6257V77.3474ZM61.8623 74.8132C61.2346 75.1846 60.285 75.1599 59.4096 75.3332C58.5094 75.4653 57.6754 75.7872 57.6754 76.8934C57.6754 77.7684 58.8728 78.0573 59.5913 78.0573C60.4666 78.0573 61.8623 77.6116 61.8623 76.2908V74.8132Z" fill="white"/>
<path d="M68.2047 66.6985H66.1401V79.4109H68.2047V66.6985Z" fill="white"/>
<path d="M70.4177 68.5806H72.5236V66.7068H70.4177V68.5806ZM70.4177 79.4109H72.5236V70.1986H70.4177V79.4109Z" fill="white"/>
<path d="M73.7212 70.1989H75.3315V67.4253H77.3383V70.1989H79.1221V71.6765H77.3383V76.5964C77.3383 77.4466 77.3796 77.9089 78.3128 77.9089L79.1221 77.7933V79.403L77.842 79.4938C75.6866 79.4938 75.3315 78.6766 75.3315 77.1329V71.6765H73.7212V70.1989Z" fill="white"/>
<path d="M79.5928 70.199H81.8886L84.2669 77.0174H84.2752L86.5875 70.199H88.7264L85.1588 79.9149C84.4982 81.5988 83.9944 83.0352 81.8886 83.0352L80.4764 82.9361V81.1944L81.4756 81.3677C82.3758 81.3677 82.6401 80.8312 82.8795 80.0882L83.119 79.3618L79.5928 70.199Z" fill="white"/>
<path d="M1.31305 59.6987L2.61785 59.707C2.75824 28.1241 28.433 2.62502 59.9959 2.62502H60.3427C91.8808 2.80663 117.399 28.4708 117.399 59.9876V60.3343V60.3261C117.233 91.9007 91.6083 117.4 60.0537 117.4L59.6655 117.391C28.0862 117.169 2.61785 91.62 2.61785 60.1362V59.6987V59.6904L1.31305 59.6987L0.00825619 59.6822L0 60.1445C0.00825821 93.0646 26.641 119.761 59.649 120H60.0537C93.0369 120 119.818 93.3453 120 60.3426V60.3343V59.9876C120 27.0345 93.326 0.214625 60.3592 0.0082553L59.9876 0C26.9878 0.0082548 0.165162 26.663 0.00825619 59.6822V59.6739L1.31305 59.6987Z" fill="#069547"/>
</svg>
