<svg width="120" height="120" viewBox="0 0 120 120" fill="none" xmlns="http://www.w3.org/2000/svg">
<path d="M119 60.0007C119.132 92.4029 92.6083 119.247 59.5114 118.998C27.3531 118.757 0.953623 92.5165 1.00006 59.8829C1.04612 27.5098 27.4069 0.912641 60.1885 1.00022C92.6836 1.08703 119.108 27.5332 119 60.0007ZM60.016 117.798C91.8453 117.831 118.02 91.9482 117.843 59.6319C117.67 28.0578 91.9472 2.00714 59.6173 2.19945C28.0328 2.38733 2.25105 27.9908 2.18319 59.8755C2.11482 92.0154 28.1975 117.83 60.016 117.798Z" fill="#009247" stroke="#009247"/>
<path d="M54.1599 109.231C54.019 109.329 53.9806 109.477 53.9246 109.613C53.1159 111.584 52.3046 113.555 51.5033 115.529C51.4174 115.74 51.3311 115.804 51.0967 115.736C50.7578 115.638 50.4046 115.584 50.0544 115.534C49.8711 115.507 49.7854 115.43 49.7923 115.248C49.8181 114.569 49.7016 113.899 49.6711 113.223C49.6008 111.667 49.522 110.111 49.4448 108.554C49.4427 108.513 49.4191 108.473 49.3927 108.393C49.1347 108.662 49.1995 108.992 49.1477 109.273C48.8698 110.78 48.62 112.292 48.3631 113.803C48.296 114.198 48.2307 114.594 48.1792 114.991C48.1542 115.184 48.0938 115.245 47.8884 115.193C47.5683 115.111 47.2403 115.05 46.9119 115.012C46.6491 114.983 46.6675 114.823 46.6976 114.648C46.8183 113.95 46.9496 113.253 47.0668 112.554C47.3634 110.783 47.6566 109.012 47.9464 107.241C48.0135 106.831 48.0574 106.797 48.4847 106.87C49.0261 106.963 49.5668 107.066 50.1119 107.129C50.3762 107.16 50.4492 107.259 50.4622 107.516C50.5354 108.97 50.6043 110.425 50.7261 111.876C50.776 112.469 50.7333 113.07 50.8567 113.657C50.8734 113.736 50.8085 113.866 50.947 113.875C51.0399 113.882 51.0511 113.766 51.0803 113.696C51.6691 112.279 52.2557 110.86 52.8434 109.443C53.0452 108.956 53.2565 108.473 53.4481 107.982C53.5204 107.797 53.6354 107.734 53.8167 107.764C54.4823 107.877 55.1474 107.993 55.8127 108.107C55.9629 108.132 55.9369 108.219 55.9163 108.335C55.6467 109.855 55.3815 111.376 55.1207 112.897C54.9467 113.912 54.7749 114.926 54.6166 115.943C54.5735 116.22 54.483 116.344 54.18 116.261C53.883 116.18 53.5757 116.133 53.2705 116.086C53.1197 116.063 53.0918 116.012 53.1169 115.86C53.4725 113.717 53.8132 111.572 54.223 109.438C54.2364 109.369 54.2486 109.302 54.1599 109.231Z" fill="#009247"/>
<path d="M83.3259 104.883C83.2943 104.897 83.2464 104.901 83.2379 104.922C83.2037 105.007 83.2581 105.075 83.2966 105.144C83.632 105.744 83.9664 106.345 84.3041 106.944C84.8613 107.932 85.419 108.92 85.9814 109.906C86.0633 110.049 86.0343 110.127 85.8926 110.203C85.5794 110.37 85.2697 110.545 84.9656 110.729C84.8087 110.824 84.7395 110.78 84.6547 110.628C83.5037 108.567 82.3459 106.51 81.1895 104.451C81.1558 104.392 81.1187 104.333 81.0841 104.274C80.6153 103.465 80.6135 103.717 81.3716 103.182C81.9731 102.758 82.4371 102.824 83.0401 103.212C84.5623 104.192 86.136 105.092 87.6921 106.019C87.7793 106.071 87.8873 106.215 87.986 106.105C88.0711 106.01 87.9441 105.896 87.8908 105.802C87.0515 104.315 86.2144 102.826 85.3625 101.347C85.2165 101.093 85.256 100.977 85.5179 100.863C85.779 100.749 86.0261 100.597 86.2648 100.44C86.4531 100.316 86.5542 100.347 86.6627 100.543C87.2681 101.635 87.8841 102.722 88.4958 103.811C89.1354 104.95 89.7659 106.095 90.4199 107.225C90.5653 107.477 90.5185 107.58 90.2849 107.725C89.1831 108.407 89.1991 108.396 88.0875 107.717C86.5517 106.779 84.9965 105.873 83.4494 104.953C83.4104 104.93 83.3704 104.909 83.3259 104.883Z" fill="#009247"/>
<path d="M42.8408 107.238C42.7461 108.793 42.1495 110.207 40.9268 111.29C39.8164 112.273 38.5123 112.356 37.1551 111.841C35.6171 111.258 34.6641 110.195 34.5241 108.515C34.4642 107.796 34.6777 107.105 34.9205 106.437C35.1201 105.888 35.3975 105.371 35.7464 104.898C36.7675 103.513 38.4473 102.828 40.3442 103.657C41.6064 104.209 42.5394 105.018 42.7804 106.443C42.8202 106.679 42.8181 106.921 42.8408 107.238ZM36.1334 108.314C36.191 109.348 36.603 110.11 37.5586 110.496C38.4264 110.847 39.2821 110.671 39.9466 109.979C40.7134 109.181 41.1512 108.224 41.2092 107.119C41.2521 106.301 40.9681 105.612 40.2378 105.16C39.4592 104.679 38.659 104.583 37.8776 105.117C36.7253 105.904 36.3226 107.105 36.1334 108.314Z" fill="#009247"/>
<path d="M71.8481 114.785C71.9825 113.452 72.0036 112.054 72.1426 110.663C72.2383 109.706 72.2652 108.742 72.3239 107.78C72.3469 107.403 72.3789 107.026 72.3938 106.648C72.3997 106.502 72.4717 106.46 72.5979 106.425C73.0615 106.298 73.5257 106.17 73.9811 106.016C74.1704 105.952 74.2708 105.991 74.3815 106.148C75.578 107.844 76.7805 109.536 77.9813 111.229C78.3727 111.781 78.7592 112.337 79.1584 112.883C79.2859 113.057 79.3058 113.137 79.0555 113.195C78.677 113.283 78.3003 113.391 77.9369 113.528C77.6846 113.623 77.5607 113.538 77.4353 113.334C77.2257 112.992 76.983 112.67 76.7766 112.326C76.6587 112.129 76.5216 112.096 76.3177 112.157C75.5065 112.402 74.6956 112.648 73.8789 112.872C73.6208 112.943 73.5329 113.075 73.5313 113.332C73.5288 113.745 73.4863 114.157 73.4773 114.569C73.4737 114.736 73.4167 114.809 73.2539 114.851C72.9105 114.94 72.575 115.059 72.2336 115.156C71.842 115.267 71.8407 115.263 71.8481 114.785ZM73.6183 110.71C73.6183 110.882 73.6245 111.054 73.6169 111.226C73.6063 111.464 73.67 111.567 73.9366 111.482C74.4589 111.314 74.9855 111.157 75.5174 111.024C75.7892 110.955 75.7909 110.85 75.655 110.648C75.1042 109.832 74.5597 109.011 74.0113 108.193C73.9626 108.121 73.9194 108.013 73.8035 108.061C73.7127 108.099 73.7331 108.199 73.7362 108.274C73.7693 109.09 73.6355 109.897 73.6183 110.71Z" fill="#009247"/>
<path d="M66.8025 110.702C66.7909 110.919 66.7927 111.138 66.7652 111.353C66.6142 112.536 65.656 113.058 64.5446 113.169C63.9402 113.229 63.3338 113.275 62.7274 113.31C62.4519 113.326 62.3787 113.452 62.4026 113.709C62.4786 114.53 62.5344 115.353 62.612 116.173C62.6272 116.334 62.57 116.388 62.4342 116.393C62.0332 116.409 61.631 116.4 61.2331 116.468C61.0611 116.497 61.0207 116.393 61.0076 116.247C60.9533 115.642 60.8787 115.039 60.8373 114.434C60.7124 112.606 60.6052 110.778 60.4792 108.95C60.4278 108.205 60.4141 108.21 61.1674 108.159C62.0708 108.098 62.974 108.034 63.8765 107.963C64.293 107.929 64.7037 107.958 65.1067 108.055C66.1312 108.304 66.73 109.092 66.7874 110.254C66.7948 110.403 66.7884 110.552 66.7884 110.701C66.7931 110.701 66.7978 110.701 66.8025 110.702ZM63.4729 109.313C63.1689 109.301 62.7933 109.348 62.4167 109.386C62.2311 109.405 62.1515 109.486 62.1647 109.673C62.2147 110.381 62.261 111.089 62.3075 111.797C62.3178 111.955 62.4049 112.034 62.5549 112.011C63.1112 111.924 63.683 112.003 64.2318 111.869C64.6775 111.76 65.0697 111.523 65.1359 111.035C65.2092 110.494 65.258 109.928 64.7374 109.523C64.374 109.24 63.9592 109.3 63.4729 109.313Z" fill="#009247"/>
<path d="M23.9019 101.974C23.9428 101.097 24.1995 100.295 24.6893 99.5591C25.2184 98.7644 25.8325 98.0504 26.6765 97.5931C28.1986 96.7684 29.6855 96.9959 30.9781 98.1741C32.0037 99.109 32.3878 100.232 32.0555 101.588C32.023 101.72 31.9782 101.851 31.925 101.978C31.7611 102.366 31.7597 102.364 31.4265 102.1C31.1746 101.901 30.9311 101.687 30.6614 101.515C30.4619 101.388 30.4613 101.26 30.525 101.061C30.7801 100.264 30.5981 99.6516 29.9702 99.1266C29.2997 98.5659 28.5319 98.4423 27.8331 98.8307C26.6445 99.4915 25.8351 100.479 25.502 101.801C25.3192 102.526 25.5953 103.166 26.1625 103.643C26.7647 104.15 27.4338 104.309 28.1679 103.897C28.7097 103.593 28.7117 103.599 29.1874 103.982C29.3838 104.141 29.5836 104.295 29.7843 104.448C29.9092 104.544 29.8989 104.629 29.7816 104.722C28.6491 105.626 27.156 105.919 25.7789 105.061C24.8502 104.482 24.1669 103.703 23.9564 102.585C23.9438 102.518 23.9084 102.454 23.9044 102.387C23.8961 102.249 23.9019 102.111 23.9019 101.974Z" fill="#009247"/>
<path d="M89.7871 98.026C90.2009 97.6467 90.5853 97.3028 90.9591 96.9477C91.1283 96.7869 91.2964 96.7963 91.4944 96.8768C92.5348 97.3004 93.5772 97.7187 94.6195 98.1372C94.7118 98.1743 94.8231 98.2706 94.9029 98.1996C94.9976 98.1154 94.9201 97.9904 94.8849 97.881C94.5444 96.8238 94.2138 95.7634 93.8659 94.7086C93.7918 94.4842 93.8092 94.3366 94.0018 94.1764C94.38 93.8619 94.7336 93.5176 95.1297 93.1562C95.3072 93.8234 95.4834 94.455 95.6426 95.0909C95.9287 96.2336 96.2082 97.378 96.4812 98.5239C96.5286 98.7225 96.6175 98.8834 96.7531 99.0305C97.3132 99.6378 97.8621 100.256 98.4315 100.854C98.6254 101.058 98.6501 101.193 98.4136 101.376C98.1511 101.579 97.9004 101.802 97.6699 102.041C97.5026 102.214 97.4014 102.176 97.2602 102.018C96.6937 101.386 96.1153 100.765 95.5488 100.132C95.4046 99.9713 95.2342 99.8766 95.0334 99.8094C93.3285 99.2384 91.6252 98.6626 89.9215 98.0878C89.891 98.0773 89.8624 98.0608 89.7871 98.026Z" fill="#009247"/>
<path d="M94.9219 26.6381C94.0566 26.6923 93.3747 26.2938 92.7694 25.7333C91.9868 25.0085 91.2154 24.2714 90.4386 23.5404C90.3072 23.4168 90.1953 23.3205 90.3809 23.1261C92.171 21.2514 93.9545 19.3703 95.732 17.4836C95.8852 17.321 95.9654 17.3436 96.1108 17.4827C96.9396 18.2758 97.7859 19.0508 98.6097 19.849C99.1381 20.361 99.5182 20.9618 99.6165 21.7174C99.7012 22.3691 99.5561 22.9746 99.262 23.5404C98.5254 24.9578 97.4405 25.996 95.9039 26.5152C95.7314 26.5734 95.5492 26.6104 95.3684 26.6341C95.222 26.6534 95.071 26.6381 94.9219 26.6381ZM94.7556 25.0924C94.8587 25.0924 94.9623 25.0978 95.0649 25.0902C95.1204 25.0861 95.1746 25.061 95.2288 25.0435C96.5771 24.607 97.4185 23.6255 98.0004 22.3989C98.2386 21.8967 98.1097 21.3934 97.7592 20.9518C97.3362 20.4187 96.7986 20.0031 96.323 19.5242C96.1873 19.3875 96.0856 19.4437 95.977 19.5586C94.82 20.783 93.6637 22.008 92.5018 23.2275C92.3465 23.3905 92.3568 23.5054 92.5197 23.6518C92.8776 23.9733 93.2237 24.3078 93.5756 24.6361C93.9076 24.946 94.2936 25.1194 94.7556 25.0924Z" fill="#009247"/>
<path d="M46.5395 6.00169C47.7611 5.88656 48.9873 7.19698 48.7751 8.66378C48.7114 9.10418 48.5362 9.47436 48.2032 9.7643C48.0174 9.926 48.0761 9.98985 48.2795 10.0393C48.9114 10.1928 49.2703 10.613 49.4458 11.2238C49.5817 11.6964 49.7428 12.1617 49.8884 12.6317C49.9656 12.8809 50.08 13.1011 50.3248 13.222C50.5174 13.317 50.4394 13.4 50.3055 13.4385C49.8331 13.5747 49.3568 13.6977 48.8805 13.8203C48.6732 13.8738 48.5977 13.7114 48.5179 13.5734C48.2329 13.0804 48.1853 12.5025 47.9558 11.9893C47.9186 11.9062 47.8987 11.8155 47.8642 11.731C47.5959 11.074 47.2244 10.8809 46.5282 11.0602C45.9859 11.1999 45.4499 11.3642 44.9096 11.5123C44.6857 11.5737 44.6365 11.6767 44.7077 11.9138C44.964 12.768 45.1832 13.6332 45.4334 14.4893C45.5008 14.7199 45.4546 14.8177 45.2178 14.8704C44.9053 14.9398 44.5921 15.0228 44.2951 15.1402C44.0444 15.2393 43.9584 15.1682 43.8918 14.9257C43.4524 13.3262 43.0027 11.7296 42.553 10.133C42.3049 9.25212 42.057 8.37104 41.7935 7.49468C41.7357 7.3025 41.7312 7.21546 41.9574 7.15509C43.3053 6.7952 44.6494 6.42117 45.9933 6.0465C46.1753 5.99573 46.3577 6.01923 46.5395 6.00169ZM47.2476 8.7407C47.2476 7.79038 46.6619 7.30426 45.7231 7.48555C45.0933 7.6072 44.4975 7.84887 43.8752 7.99564C43.6727 8.04341 43.6367 8.15489 43.6936 8.34686C43.8687 8.93769 44.0299 9.53263 44.1964 10.126C44.2436 10.2943 44.3388 10.3816 44.5239 10.3264C45.2018 10.1241 45.8882 9.94637 46.5551 9.71272C46.9783 9.56453 47.2716 9.26155 47.2476 8.7407Z" fill="#009247"/>
<path d="M91.5478 14.1225C91.345 14.4554 91.1777 14.8243 90.9158 15.1315C90.8146 15.2502 90.731 15.1117 90.6539 15.0652C89.5829 14.4202 88.5095 13.779 87.4486 13.1178C87.168 12.9428 87.011 12.9669 86.8587 13.266C86.698 13.582 86.5127 13.8889 86.3067 14.1775C86.1209 14.4379 86.1718 14.5884 86.4372 14.7425C87.1216 15.1399 87.7958 15.5549 88.4736 15.9635C88.7783 16.1471 89.0765 16.3424 89.3882 16.5128C89.5588 16.606 89.5907 16.6916 89.4796 16.8548C89.3249 17.082 89.1781 17.3161 89.0478 17.5579C88.9486 17.7419 88.8437 17.7726 88.6662 17.6619C88.2185 17.3828 87.7635 17.1153 87.3122 16.842C86.7628 16.5092 86.211 16.18 85.6668 15.8389C85.4637 15.7117 85.3427 15.7516 85.2254 15.9543C84.9438 16.4404 84.6516 16.9206 84.3541 17.3973C84.2571 17.5527 84.248 17.6445 84.4276 17.7527C85.5575 18.4336 86.6786 19.1292 87.8072 19.8123C88.186 20.0415 88.1942 20.0323 87.9604 20.4257C87.8316 20.6426 87.691 20.8525 87.5638 21.0702C87.4921 21.1927 87.4347 21.2183 87.297 21.1341C85.6333 20.1167 83.9653 19.1064 82.2954 18.0993C82.1497 18.0114 82.1472 17.9381 82.231 17.8009C83.1702 16.2645 84.1029 14.7243 85.0387 13.1859C85.45 12.5099 85.8743 11.8416 86.2713 11.1574C86.3926 10.9483 86.484 10.917 86.6889 11.0434C88.0456 11.8806 89.4084 12.7081 90.7696 13.5379C90.9753 13.6633 91.1845 13.7831 91.39 13.9087C91.4656 13.955 91.5585 13.993 91.5478 14.1225Z" fill="#009247"/>
<path d="M38.4992 13.473C38.486 13.5887 38.3835 13.6053 38.307 13.6463C37.296 14.1872 36.2897 14.7371 35.2692 15.2596C35.0017 15.3966 34.9402 15.5072 35.0988 15.7758C35.3665 16.2294 35.6131 16.697 35.8398 17.1725C35.9575 17.4194 36.078 17.4181 36.2919 17.3028C37.4527 16.6772 38.6233 16.0698 39.7808 15.4384C40.0499 15.2916 40.1953 15.3273 40.2992 15.6092C40.3465 15.7376 40.4158 15.8581 40.4773 15.9811C40.7408 16.5085 40.7441 16.5139 40.2291 16.7881C38.6715 17.6172 37.1091 18.4372 35.5547 19.2721C35.3016 19.4081 35.1858 19.3541 35.0567 19.1086C33.9093 16.9274 32.75 14.7524 31.5953 12.5749C31.3567 12.1249 31.358 12.1223 31.8071 11.8822C33.3341 11.0659 34.8651 10.257 36.3857 9.42903C36.6315 9.29525 36.7523 9.33114 36.8584 9.57139C36.9508 9.78077 37.0378 9.99834 37.1676 10.184C37.3383 10.4282 37.2445 10.5422 37.0224 10.6588C35.9466 11.2242 34.8741 11.7961 33.8019 12.3682C33.412 12.5762 33.4109 12.5808 33.6181 12.9799C33.7925 13.3157 33.9849 13.6427 34.1494 13.9831C34.2554 14.2022 34.3745 14.2267 34.5824 14.1143C35.5809 13.5745 36.5925 13.0583 37.5828 12.5042C37.8691 12.344 37.9783 12.4182 38.0926 12.6772C38.2126 12.9491 38.3622 13.2079 38.4992 13.473Z" fill="#009247"/>
<path d="M27.3052 24.7232C26.0463 24.7037 25.0561 24.0425 24.2201 23.1078C23.5963 22.4102 23.0932 21.6415 22.8863 20.6994C22.6316 19.5394 22.8602 18.5044 23.655 17.6317C24.4636 16.7437 25.4455 16.144 26.6995 16.2253C27.3317 16.2662 27.9297 16.4809 28.4377 16.8931C28.5801 17.0087 28.6337 17.0968 28.4603 17.2351C28.1465 17.4855 27.839 17.7445 27.5388 18.0111C27.3695 18.1615 27.2399 18.0539 27.1091 17.9694C26.3709 17.4923 25.7058 17.7015 25.0836 18.1953C24.5077 18.6523 24.2374 19.2627 24.381 19.9871C24.5581 20.8805 25.067 21.5986 25.708 22.2315C26.1815 22.699 26.6938 23.062 27.3804 23.1754C28.4562 23.353 29.9285 22.1756 29.3544 20.7525C29.2078 20.3892 29.2903 20.1859 29.5835 19.9836C29.7998 19.8344 30.0047 19.6627 30.1902 19.4766C30.4028 19.2633 30.4995 19.3517 30.6056 19.5744C31.1327 20.6807 31.2041 22.2947 30.1103 23.4192C29.3611 24.1894 28.483 24.716 27.3052 24.7232Z" fill="#009247"/>
<path d="M76.0989 6.75308C76.0171 7.04997 75.9327 7.34618 75.8548 7.64406C75.807 7.82706 75.6928 7.82917 75.5379 7.79148C74.3931 7.51293 73.2453 7.24683 72.1026 6.96001C71.7863 6.8806 71.6518 6.95954 71.5941 7.28829C71.5191 7.71528 71.3963 8.13472 71.278 8.55283C71.205 8.81079 71.2901 8.92262 71.5464 8.98226C72.5489 9.21565 73.5465 9.47018 74.5489 9.70387C74.7463 9.74984 74.8286 9.80253 74.7552 10.0217C74.6755 10.2597 74.6199 10.509 74.5845 10.7577C74.55 10.9996 74.4314 11.0245 74.2249 10.9751C73.246 10.7412 72.2622 10.5273 71.2866 10.2809C70.9888 10.2057 70.8633 10.2938 70.7995 10.571C70.5918 11.4737 70.3701 12.3731 70.168 13.277C70.1081 13.545 70.0321 13.6892 69.7143 13.5714C69.4162 13.4609 69.1004 13.3878 68.7862 13.3341C68.5047 13.2861 68.5152 13.142 68.569 12.9232C68.8967 11.5908 69.2173 10.2567 69.5357 8.92202C69.8061 7.78817 70.0765 6.65416 70.3323 5.51697C70.3866 5.27552 70.4815 5.22981 70.7143 5.28538C72.4388 5.69719 74.1663 6.09656 75.8927 6.50104C76.02 6.53088 76.1487 6.56741 76.0989 6.75308Z" fill="#009247"/>
<path d="M59.4963 5.09703C59.4916 5.61063 59.4908 5.59601 58.9921 5.62066C58.4095 5.64939 57.8285 5.70878 57.2466 5.75102C57.0495 5.76529 57.0167 5.85856 57.0302 6.04808C57.1231 7.35035 57.1966 8.654 57.2842 9.95666C57.3365 10.7341 57.3974 11.5111 57.4661 12.2873C57.4903 12.56 57.4166 12.6845 57.1168 12.6764C56.8204 12.6684 56.5217 12.7079 56.2257 12.7413C55.9614 12.7711 55.8506 12.652 55.8236 12.4017C55.7806 12.0033 55.7737 11.6023 55.743 11.2033C55.6172 9.57049 55.526 7.93488 55.4383 6.29939C55.4212 5.98029 55.3406 5.85418 54.9888 5.89046C54.3737 5.95388 53.7521 5.951 53.1348 5.99658C52.9023 6.01374 52.8261 5.93582 52.8265 5.71371C52.8271 5.43903 52.8159 5.16302 52.7862 4.89009C52.7683 4.72535 52.8393 4.69461 52.9751 4.68415C53.7288 4.62618 54.4819 4.55946 55.2358 4.50341C56.503 4.40921 57.7713 4.32988 59.0374 4.2229C59.3188 4.19915 59.4398 4.25759 59.435 4.55144C59.432 4.7329 59.4744 4.91514 59.4963 5.09703Z" fill="#009247"/>
<path d="M80.3895 8.15875C80.8031 8.33442 81.2501 8.51181 81.6841 8.71707C81.7981 8.77101 81.7079 8.90377 81.6706 8.99519C81.0567 10.4991 80.441 12.0023 79.8269 13.5061C79.4766 14.3639 79.1199 15.2192 78.7845 16.0828C78.6825 16.3454 78.5639 16.4222 78.3001 16.2943C77.9915 16.1448 77.67 16.0213 77.3507 15.8949C77.2059 15.8376 77.1297 15.7909 77.207 15.603C77.9295 13.8469 78.64 12.0858 79.3556 10.3269C79.6187 9.68022 79.885 9.03489 80.1523 8.38995C80.1927 8.2924 80.1911 8.15107 80.3895 8.15875Z" fill="#009247"/>
<path d="M63.1006 12.2297C63.2595 11.1104 63.3053 9.96446 63.3951 8.82221C63.4551 8.05751 63.5179 7.29298 63.5834 6.52876C63.641 5.85667 63.7064 5.18523 63.762 4.51302C63.7717 4.39592 63.8138 4.34644 63.9304 4.35844C64.3511 4.40175 64.7717 4.44459 65.1926 4.48584C65.3498 4.50123 65.3967 4.56872 65.3785 4.73646C65.2452 5.96644 65.1364 7.19857 65.058 8.43373C64.9753 9.73622 64.8648 11.0369 64.7677 12.3385C64.7466 12.6214 64.6405 12.784 64.3147 12.7396C63.9857 12.6949 63.6523 12.6805 63.3202 12.6606C63.0076 12.6419 63.1403 12.4051 63.1006 12.2297Z" fill="#009247"/>
<path d="M65.3306 75.8011C66.0363 75.4542 66.7227 75.1473 67.3746 74.768C68.7709 73.9557 70.0337 72.9745 71.1593 71.8217C71.3943 71.581 71.5532 71.5779 71.8201 71.7389C72.3992 72.088 72.9695 72.4483 73.5292 72.828C73.7539 72.9805 73.7085 73.0636 73.5277 73.1881C72.744 73.7276 71.9375 74.2284 71.0983 74.6783C69.6713 75.4435 68.1813 76.0531 66.6313 76.5202C66.5243 76.5524 66.4413 76.5715 66.3442 76.5029C66.0181 76.2727 65.6881 76.048 65.3306 75.8011Z" fill="#009247"/>
<path d="M60.0458 104.814C53.9295 104.814 48.0103 103.612 42.4529 101.241C37.1121 98.9621 32.3186 95.702 28.2053 91.551C26.1875 89.5148 24.3558 87.2755 22.761 84.8955C21.1555 82.4995 19.7769 79.9409 18.6633 77.2907C16.3536 71.7934 15.1843 65.978 15.188 60.0061C15.1917 54.0184 16.3611 48.1951 18.6636 42.6979C20.8998 37.3593 24.1015 32.5617 28.1799 28.4384C32.2826 24.2904 37.0684 21.0327 42.4041 18.7558C47.9554 16.387 53.8771 15.1833 60.0049 15.1782H60.0432C66.0997 15.1782 71.9734 16.3628 77.5012 18.6992C82.8467 20.9585 87.6431 24.1934 91.7569 28.3138C95.8638 32.4274 99.0846 37.218 101.33 42.5526C103.656 48.0808 104.83 53.9594 104.818 60.0253C104.829 66.0442 103.664 71.8812 101.355 77.3746C99.1313 82.6639 95.942 87.4257 91.8755 91.5276C87.8254 95.613 83.1061 98.8422 77.8486 101.126C72.4264 103.481 66.6709 104.72 60.7418 104.809C60.5107 104.812 60.2765 104.814 60.0458 104.814ZM73.2911 79.3033C73.2352 79.3033 73.1786 79.3052 73.1229 79.3088C71.8423 79.3918 70.9395 80.0481 70.4393 81.2596C70.1769 81.8952 70.0209 82.6051 69.9622 83.4297C69.8586 84.8876 70.0227 86.0596 70.4788 87.1179C71.0004 88.3284 71.9238 88.9507 73.223 88.9677C73.2376 88.9679 73.2522 88.968 73.2667 88.968C74.4708 88.968 75.4291 88.3092 75.9649 87.113C76.3903 86.1635 76.467 85.1829 76.5056 84.3383L76.5058 84.3321C76.4894 82.8618 76.3029 81.8636 75.8823 80.9944C75.385 79.9671 74.3679 79.3033 73.2911 79.3033ZM41.0021 79.3261C39.9499 79.3261 39.1639 79.719 38.5994 80.5273C37.8688 81.5735 37.7704 82.7712 37.6836 83.8279L37.6725 83.9624L37.6725 83.9673C37.6839 85.1033 37.8134 85.9651 38.0923 86.7618C38.5962 88.201 39.5614 88.9619 40.8836 88.962C40.8836 88.962 40.8837 88.962 40.8838 88.962C41.1889 88.962 41.5142 88.9204 41.8507 88.8384C42.9031 88.5822 43.5736 87.8263 43.9609 86.4599C44.3581 85.0583 44.3831 83.59 44.0352 82.0956C43.6427 80.4093 42.6172 79.4019 41.2218 79.3317C41.1477 79.328 41.0737 79.3261 41.0021 79.3261ZM84.5695 86.1196C84.4483 86.1196 84.3568 86.1563 84.2973 86.2287C84.2326 86.3076 84.2143 86.4206 84.243 86.5645C84.3803 87.2534 84.6088 87.7316 84.9841 88.1149C85.5494 88.6924 86.2926 88.9613 87.3228 88.9613L87.3595 88.9612C88.2075 88.9563 88.8511 88.7866 89.3849 88.427C90.0219 87.998 90.4222 87.38 90.6829 86.4232C91.0907 84.9265 90.2556 83.2871 88.8214 82.7687C88.411 82.6204 88.0186 82.5483 87.6218 82.5483C87.1096 82.5483 86.6061 82.6695 86.0888 82.918L86.1589 82.5108C86.2454 82.0073 86.3271 81.5317 86.4103 81.0581C86.4204 81.0008 86.4319 80.9863 86.514 80.9863C86.5325 80.9863 86.5512 80.9872 86.5698 80.988C86.591 80.9889 86.6121 80.9898 86.6323 80.9898C86.8411 80.989 87.0473 80.9888 87.2534 80.9888C87.4293 80.9888 88.1326 80.9895 88.3085 80.9895C88.7017 80.9895 89.0038 80.9886 89.2884 80.9866C89.3148 80.9864 89.3406 80.9863 89.3655 80.9863C89.4567 80.9863 89.5375 80.9874 89.6091 80.9884C89.6669 80.9892 89.7187 80.9899 89.7653 80.9899C90.2764 80.9899 90.2766 80.8293 90.277 80.2974C90.2771 80.2026 90.2772 80.0952 90.2795 79.9698C90.2825 79.8076 90.249 79.6964 90.174 79.6201C90.076 79.5203 89.9303 79.5075 89.8143 79.5075L89.8053 79.5075C89.0482 79.5125 88.3651 79.5149 87.7171 79.5149C86.9934 79.5149 86.3246 79.512 85.6727 79.5058L85.663 79.5058C85.2584 79.5058 85.1806 79.7625 85.158 79.9861C85.1302 80.2611 85.0937 80.554 85.0397 80.9359C84.8869 82.019 84.7289 83.1199 84.5761 84.1845L84.5546 84.3343C84.5428 84.4164 84.5152 84.6086 84.7296 84.7019C84.854 84.7561 85.0043 84.7848 85.1643 84.7848C85.5059 84.7848 85.8424 84.6605 86.0426 84.4603C86.3926 84.1101 86.8979 83.9093 87.429 83.9093C88.1009 83.9093 88.6812 84.2256 88.9434 84.7349C89.3152 85.457 89.289 86.2063 88.8677 86.9017C88.5697 87.3937 88.0986 87.6432 87.4678 87.6432C87.3449 87.6432 87.2144 87.6336 87.0798 87.6148C86.4548 87.5272 86.0574 87.2565 85.865 86.7872L85.8587 86.7718C85.6148 86.1768 85.5741 86.1218 84.9384 86.1218L84.8588 86.1219C84.8317 86.1219 84.8046 86.1227 84.7775 86.1235C84.7513 86.1242 84.7251 86.1249 84.699 86.1249C84.6716 86.1249 84.6481 86.1241 84.6271 86.1222C84.6068 86.1205 84.5876 86.1196 84.5695 86.1196ZM31.056 86.1921C30.9321 86.1921 30.8379 86.2295 30.776 86.3035C30.7071 86.3857 30.6862 86.5061 30.7139 86.6612C30.7669 86.9592 30.8324 87.2752 30.995 87.5759C31.4852 88.4819 32.3329 88.9608 33.4467 88.9608C33.705 88.9608 33.9769 88.9347 34.2548 88.8832C35.3706 88.6766 36.1302 87.9181 36.5773 86.5643C37.0776 85.0491 37.1834 83.5502 36.8916 82.1091C36.5329 80.3372 35.4022 79.3209 33.7896 79.3209C33.5059 79.3209 33.2082 79.3527 32.9049 79.4154C31.9069 79.6216 31.1642 80.301 30.8137 81.3285C30.4162 82.4936 30.6168 83.9086 31.2908 84.6932C31.8233 85.313 32.7054 85.6981 33.5927 85.6981C34.2767 85.6981 34.9085 85.48 35.4352 85.0648C35.3511 85.8531 35.0823 86.6335 34.7241 87.1065C34.4331 87.4909 34.0346 87.6941 33.5718 87.6941C33.5172 87.6941 33.461 87.6913 33.4048 87.6857C32.8497 87.6309 32.472 87.357 32.2822 86.8718C32.2616 86.8192 32.2541 86.7516 32.2463 86.6801C32.2287 86.5189 32.2067 86.3182 31.9995 86.2359C31.9115 86.201 31.8126 86.1853 31.6788 86.1853C31.6222 86.1853 31.5648 86.1881 31.5093 86.1907C31.4539 86.1934 31.4017 86.1959 31.3502 86.1959C31.3386 86.1959 31.3271 86.1957 31.3157 86.1954C31.3063 86.1952 31.2967 86.1951 31.2873 86.1951C31.2673 86.1951 31.2474 86.1956 31.2274 86.196C31.2091 86.1964 31.1908 86.1969 31.1726 86.1969C31.1535 86.1969 31.1345 86.1964 31.1156 86.1948C31.0946 86.1929 31.0748 86.1921 31.056 86.1921ZM48.2288 79.3196C47.9099 79.3196 47.5722 79.3665 47.2253 79.4592C46.2826 79.7109 45.638 80.3943 45.2549 81.5482C44.7535 83.0585 44.7029 84.6405 45.1045 86.2505C45.5308 87.9592 46.5597 88.9193 48.0017 88.9539C48.0377 88.9548 48.0735 88.9552 48.109 88.9552C49.2394 88.9552 50.0623 88.5184 50.6245 87.62C51.2939 86.5503 51.3671 85.3633 51.4379 84.2154L51.4382 84.2104L51.438 84.2053C51.4061 83.2204 51.3308 82.4033 51.0673 81.6164C50.5713 80.1352 49.5632 79.3196 48.2288 79.3196ZM53.7824 82.3047C53.9189 82.3047 54.0554 82.3056 54.192 82.3063C54.3154 82.3071 54.4388 82.3078 54.5623 82.3079C54.7526 82.3081 54.9029 82.3083 54.9358 82.3401C54.9672 82.3705 54.9672 82.5143 54.9672 82.6964L54.9672 87.6151C54.9672 88.562 54.9911 88.7191 55.8355 88.7191C55.9084 88.7191 55.9882 88.7183 56.0756 88.7176L56.0981 88.7174C56.4161 88.7145 56.5448 88.5864 56.5426 88.2754C56.5351 87.2357 56.5362 86.1783 56.5372 85.1558C56.5375 84.7976 56.5378 84.4393 56.5378 84.081C56.5383 83.6028 56.5455 83.1159 56.5525 82.6452C56.5666 81.6946 56.5812 80.7117 56.5408 79.7436C56.5283 79.4464 56.3939 79.3019 56.1297 79.3019C56.1108 79.3019 56.091 79.3027 56.0704 79.3042C56.0197 79.3079 55.9699 79.3098 55.9225 79.3098C55.8727 79.3098 55.8241 79.3077 55.778 79.3037C55.7528 79.3014 55.7284 79.3004 55.7054 79.3004C55.4588 79.3004 55.3108 79.4229 55.2255 79.6976C54.9117 80.7095 54.542 80.903 53.5159 81.0045C52.9803 81.0575 52.8909 81.0773 52.8719 81.4612C52.8688 81.5239 52.8649 81.6019 52.8547 81.6952C52.8502 81.736 52.8506 81.7747 52.8509 81.8122C52.8511 81.833 52.8513 81.8538 52.8505 81.8745C52.8447 82.017 52.877 82.1228 52.9491 82.1978C53.0215 82.2732 53.1271 82.3098 53.2718 82.3098C53.2784 82.3098 53.285 82.3097 53.2918 82.3096C53.438 82.3063 53.5939 82.3047 53.7824 82.3047ZM79.829 82.3006C79.9191 82.3006 79.9766 82.3144 80.005 82.3429C80.0388 82.3771 80.0547 82.4543 80.0537 82.5788C80.0424 83.8464 80.0439 85.1351 80.0454 86.3813C80.0459 86.8122 80.0463 87.2431 80.0463 87.6739C80.0463 88.6578 80.0936 88.7066 81.0571 88.7181L81.1118 88.7187C81.2381 88.7187 81.3962 88.7053 81.4989 88.6014C81.5806 88.5189 81.616 88.3965 81.6139 88.2047C81.6023 87.162 81.6042 86.1012 81.6062 85.0754C81.6069 84.7192 81.6076 84.363 81.6077 84.0067L81.6078 83.104C81.608 82.0347 81.6082 80.9291 81.6059 79.8416C81.6058 79.8184 81.6075 79.7931 81.6093 79.7664C81.6173 79.6484 81.6281 79.4867 81.4758 79.372C81.3861 79.3044 81.262 79.2686 81.1171 79.2686C80.7933 79.2686 80.3847 79.4488 80.2892 79.74C79.9864 80.6632 79.6535 80.9015 78.5083 81.0147L78.4367 81.0216C77.957 81.0676 77.9183 81.1137 77.9176 81.638C77.9176 81.6622 77.9183 81.6863 77.9189 81.7104C77.9201 81.7544 77.9213 81.796 77.9179 81.8353C77.9045 81.9888 77.9346 82.1031 78.0096 82.1849C78.087 82.2692 78.2065 82.3103 78.375 82.3103C78.3826 82.3103 78.3902 82.3102 78.3979 82.31C78.4811 82.3083 78.5644 82.3077 78.6477 82.3077C78.7557 82.3077 78.8638 82.3087 78.9718 82.3098C79.0805 82.3108 79.1892 82.3118 79.298 82.3118C79.4846 82.3118 79.6371 82.3087 79.7778 82.3019C79.7957 82.3011 79.8128 82.3006 79.829 82.3006ZM66.1176 80.7003C66.6355 80.7003 67.0354 80.8913 67.3405 81.2841C67.5734 81.584 67.6752 81.9937 67.6198 82.408C67.5609 82.8488 67.3354 83.2458 67.0011 83.4973C66.4533 83.9095 65.848 84.2439 65.2242 84.5784C63.6018 85.4486 62.7588 86.6398 62.6468 88.2204C62.6365 88.3652 62.6395 88.5127 62.7304 88.6103C62.8177 88.7039 62.9523 88.7166 63.0724 88.7166L63.0918 88.7165C63.45 88.7119 63.8414 88.7097 64.3236 88.7097C64.583 88.7097 64.8423 88.7103 65.1015 88.7109C65.361 88.7115 65.6205 88.712 65.8799 88.712C66.1288 88.712 66.3778 88.7126 66.6267 88.7132C66.8758 88.7138 67.1249 88.7144 67.374 88.7144C67.7409 88.7144 68.0434 88.7131 68.3261 88.7103C68.3529 88.71 68.3789 88.7099 68.4038 88.7099C68.4908 88.7099 68.5665 88.7113 68.6324 88.7125C68.6845 88.7134 68.7305 88.7143 68.7713 88.7143C69.189 88.7143 69.1908 88.5537 69.1956 88.1247C69.1965 88.0434 69.1975 87.9484 69.2008 87.8375C69.2049 87.7008 69.1955 87.5294 69.0855 87.4162C69.0007 87.3289 68.8763 87.2899 68.6821 87.2899L68.6655 87.29C68.0668 87.2966 67.4762 87.2975 66.9774 87.2975C66.777 87.2975 65.9751 87.2968 65.7747 87.2968C65.4167 87.2968 64.9443 87.2973 64.4645 87.3008L64.455 87.3009C64.3694 87.3009 64.3321 87.2919 64.3173 87.2863C64.3196 87.2695 64.3306 87.2304 64.3752 87.1451C64.6844 86.5546 65.1856 86.1929 65.8429 85.8313C65.9956 85.7474 66.149 85.6646 66.3024 85.582C66.7782 85.3255 67.2701 85.0602 67.7336 84.7585C68.5008 84.2591 69.0058 83.5279 69.1557 82.6997C69.2986 81.9097 69.1011 81.1003 68.5993 80.4205C68.0811 79.7184 67.1784 79.3157 66.1226 79.3157C65.4893 79.3157 64.8593 79.4685 64.3488 79.746C63.4998 80.2074 63.0335 80.9903 62.8815 82.2098C62.8422 82.5246 62.8206 82.6981 62.9215 82.8123C63.0119 82.9147 63.1683 82.9225 63.3793 82.9225C63.4141 82.9225 63.4514 82.9222 63.4915 82.9218C63.5158 82.9216 63.5394 82.9214 63.5621 82.9214C63.6355 82.9214 63.7005 82.9225 63.7583 82.9236C63.8057 82.9244 63.8482 82.9251 63.8866 82.9251C64.3185 82.9251 64.3411 82.7702 64.4254 82.194L64.4365 82.1182C64.5537 81.3222 64.8664 80.9102 65.4505 80.782C65.7014 80.7271 65.9196 80.7003 66.1176 80.7003ZM60.291 87.0002C60.1465 87.0002 60.0203 87.0068 59.9402 87.0874C59.8507 87.1774 59.8516 87.3084 59.8534 87.5696C59.8539 87.6512 59.8545 87.7436 59.8528 87.8532C59.8527 88.2511 59.8527 88.4501 59.9571 88.5752C60.0713 88.7121 60.2688 88.712 60.596 88.712H60.6288C61.0751 88.7119 61.2991 88.7118 61.4302 88.5719C61.5628 88.4303 61.5468 88.186 61.5203 87.7814C61.5126 87.6635 61.5096 87.5645 61.5071 87.485C61.4959 87.1176 61.4738 87.0013 61.0843 87.0013C61.0435 87.0013 60.9975 87.002 60.9453 87.0028C60.8785 87.0038 60.8017 87.005 60.7131 87.005C60.6114 87.005 60.5235 87.0035 60.4476 87.0021C60.3886 87.0011 60.3367 87.0002 60.291 87.0002ZM60.7157 83.4576C60.8067 83.4576 60.8853 83.4599 60.9547 83.4618C61.009 83.4634 61.0569 83.4647 61.0991 83.4647C61.5155 83.4647 61.5178 83.2742 61.5253 82.6431L61.5262 82.5733C61.5309 82.185 61.5336 81.9712 61.4084 81.8444C61.2842 81.7186 61.0829 81.7185 60.6818 81.7184C60.6385 81.7188 60.5987 81.719 60.5613 81.719C60.5177 81.719 60.3765 81.7183 60.348 81.7183C60.1481 81.7183 60.0207 81.7243 59.9381 81.8075C59.8504 81.8959 59.8513 82.0213 59.8532 82.2713C59.8538 82.3448 59.8544 82.4305 59.853 82.5304C59.8523 82.5777 59.8521 82.6249 59.8532 82.6721C59.8558 82.7837 59.8538 82.8751 59.852 82.9559C59.8477 83.1551 59.8451 83.2752 59.9305 83.3625C60.0128 83.4465 60.1377 83.4607 60.3867 83.4607C60.4525 83.4607 60.5282 83.4596 60.6154 83.4585L60.6434 83.4581C60.6682 83.4578 60.6924 83.4576 60.7157 83.4576ZM38.6028 66.5674C38.5403 66.5674 38.3502 66.5674 38.2813 66.6995C38.2119 66.8326 38.3223 66.9905 38.3585 67.0424C38.4565 67.1826 38.5544 67.3268 38.6492 67.4662C38.7891 67.6722 38.9339 67.8852 39.0823 68.0911C41.2738 71.1318 44.0434 73.6071 47.3142 75.4483C49.9439 76.9287 52.872 77.9257 56.017 78.4116C57.0727 78.5747 58.1207 78.6609 59.0478 78.6609C59.2027 78.6609 59.3559 78.6584 59.5033 78.6537C59.5431 78.6539 59.5868 78.654 59.6302 78.654C61.1474 78.654 62.4382 78.5531 63.6925 78.3367C65.197 78.077 66.3338 77.8103 67.3782 77.4719C70.0456 76.6077 72.5157 75.3412 74.7199 73.7075C77.0878 71.9524 79.137 69.7969 80.8107 67.3008C80.8316 67.2696 80.8594 67.2355 80.8888 67.1995C80.991 67.0741 81.131 66.9025 81.0393 66.7179C80.9822 66.6029 80.8774 66.5446 80.728 66.5446C80.6714 66.5446 80.6143 66.5521 80.5591 66.5594C80.5099 66.5659 80.4634 66.572 80.4233 66.572C80.4188 66.572 80.4143 66.572 80.4099 66.5718C80.3813 66.5707 80.3525 66.5689 80.3236 66.5672C80.2729 66.5641 80.2206 66.5609 80.1679 66.5609C80.0005 66.5609 79.7885 66.5913 79.6355 66.8281C79.1505 67.579 78.5577 68.3511 77.8232 69.1886C76.9084 70.2318 75.8799 71.2227 74.7664 72.134C74.6927 72.1943 74.6497 72.2012 74.6238 72.2012C74.5826 72.2012 74.5354 72.1801 74.4753 72.1346C73.8797 71.6839 73.2173 71.2508 72.5067 70.8473C72.3939 70.7833 72.3664 70.7478 72.3633 70.7293C72.3616 70.7194 72.3629 70.6793 72.45 70.5797C72.9387 70.0202 73.4152 69.3879 73.9069 68.6464C74.221 68.1729 74.5841 67.6095 74.8962 67.0218L74.9078 67.0002C74.9497 66.9231 75.0016 66.8273 74.9592 66.7264C74.9301 66.6572 74.8654 66.6092 74.7616 66.5797C74.6278 66.5416 74.4983 66.5223 74.3768 66.5223C73.9739 66.5223 73.6488 66.7263 73.4105 67.1284C72.8433 68.0856 72.1776 69.0122 71.3755 69.9612C71.285 70.0682 71.2279 70.0827 71.1839 70.0827C71.1387 70.0827 71.0813 70.0649 71.0085 70.0281C69.8045 69.4209 68.6876 68.9624 67.5938 68.6261C67.4902 68.5943 67.463 68.5651 67.456 68.5505C67.4382 68.5133 67.479 68.4108 67.4944 68.3721C67.644 67.996 67.7831 67.6092 67.9177 67.2352L67.9847 67.0489C68.0202 66.9505 68.0587 66.8068 67.9831 66.6947C67.9308 66.6172 67.8376 66.5755 67.706 66.5705C67.6865 66.5697 67.6668 66.5695 67.6472 66.5695C67.6209 66.5695 67.5946 66.57 67.5683 66.5705C67.5433 66.571 67.5184 66.5714 67.4936 66.5714C67.4438 66.5714 67.4063 66.5694 67.372 66.5648C67.3266 66.5588 67.2831 66.5558 67.2425 66.5558C66.9432 66.5558 66.754 66.7213 66.6643 67.0618C66.6032 67.2935 66.5101 67.5245 66.42 67.7478C66.3802 67.8464 66.3391 67.9482 66.301 68.0496C66.2503 68.1842 66.2047 68.1954 66.1585 68.1954C66.1271 68.1954 66.0877 68.1874 66.0412 68.1716C65.7045 68.0574 65.3419 67.9633 64.9636 67.8917C63.4233 67.6005 61.9818 67.4207 60.557 67.3419C60.3348 67.3296 60.2936 67.2897 60.2976 67.0905C60.3074 66.6001 60.1907 66.5791 59.6374 66.5605L59.6093 66.5595C59.5933 66.559 59.5778 66.5587 59.5627 66.5587C59.3723 66.5587 59.2455 66.6022 59.1638 66.6955C59.0813 66.7898 59.0548 66.9231 59.0805 67.115C59.0923 67.2028 59.087 67.2591 59.0643 67.2874C59.0371 67.3212 58.9708 67.3334 58.9199 67.3377C58.7192 67.3545 58.5147 67.3696 58.317 67.3843C57.9079 67.4146 57.4848 67.446 57.068 67.494C55.6666 67.6554 54.4962 67.8307 53.3396 68.1612C53.2789 68.1784 53.2279 68.1872 53.1878 68.1872C53.1163 68.1872 53.0608 68.1721 52.9974 67.9764C52.9433 67.8094 52.8818 67.643 52.8222 67.4821C52.7605 67.3153 52.6967 67.143 52.6421 66.9721C52.5536 66.6952 52.386 66.5606 52.1297 66.5606C52.1033 66.5606 52.0755 66.5621 52.0472 66.565C52.0053 66.5694 51.9594 66.5714 51.9026 66.5714C51.8648 66.5714 51.8269 66.5705 51.789 66.5696C51.7526 66.5688 51.7161 66.568 51.6798 66.5679C51.5784 66.5679 51.4394 66.5799 51.3647 66.6844C51.2881 66.7914 51.3238 66.9345 51.3574 67.0327C51.393 67.1371 51.4272 67.2421 51.4614 67.3469C51.5719 67.686 51.6861 68.0366 51.8498 68.3665C51.8902 68.4478 51.9045 68.5071 51.8911 68.5382C51.8812 68.5613 51.8448 68.5964 51.7275 68.6327C50.5873 68.9857 49.4807 69.4391 48.4387 69.9803C48.332 70.0357 48.246 70.0627 48.1755 70.0627C48.0701 70.0627 47.9779 70.0011 47.8573 69.8502C47.1254 68.9336 46.4779 68.0991 45.967 67.1684C45.733 66.7421 45.4324 66.5519 44.9925 66.5519C44.9373 66.5519 44.8783 66.5548 44.8171 66.5608C44.5779 66.5837 44.4399 66.6022 44.3827 66.7132C44.3266 66.8219 44.3917 66.9501 44.4974 67.1332C45.3033 68.5298 46.0683 69.6281 46.905 70.5894C46.9857 70.6821 46.9875 70.7171 46.9862 70.7255C46.9844 70.7367 46.9682 70.7697 46.8563 70.8366C46.3636 71.1306 45.8394 71.4629 45.2537 71.8525L45.2273 71.8701C44.969 72.0419 44.8267 72.1366 44.7197 72.1366C44.6097 72.1366 44.4762 72.0311 44.2085 71.8116C42.5686 70.4668 41.1458 68.9197 39.9794 67.2132C39.66 66.746 39.3416 66.5467 38.9146 66.5467C38.8366 66.5467 38.7534 66.5539 38.6673 66.568C38.6637 66.5686 38.66 66.5686 38.6563 66.5686C38.6561 66.5686 38.656 66.5686 38.6558 66.5686C38.6497 66.5686 38.6436 66.5683 38.6375 66.5681C38.6307 66.5678 38.6239 66.5676 38.6171 66.5675L38.6028 66.5674ZM50.8721 63.0265C50.915 63.0422 50.9838 63.0746 51.0509 63.1062L51.0564 63.1088C51.2551 63.2026 51.456 63.3033 51.6503 63.4008C52.095 63.6237 52.5548 63.8543 53.0312 64.0232C54.7763 64.6418 56.4007 64.9425 57.997 64.9425C58.5778 64.9425 59.1615 64.9012 59.732 64.8196C61.2475 64.603 62.4144 64.222 63.4044 63.6206C65.6324 62.2672 66.7882 60.2102 66.7469 57.6721C66.7124 55.5508 65.6795 53.6989 63.6769 52.1676C62.627 51.3648 61.4059 50.968 60.1424 50.5999C59.446 50.397 58.7496 50.1938 58.0533 49.9906C56.6305 49.5754 55.1594 49.146 53.7114 48.7268C53.3235 48.6145 53.0297 48.4773 52.7868 48.2949C52.6021 48.1562 52.5058 47.984 52.5158 47.8102C52.5254 47.6418 52.6356 47.4875 52.8263 47.3757C53.112 47.2083 53.4586 47.0371 53.8633 47.0371C53.8872 47.0371 53.9112 47.0377 53.9355 47.0389C54.1238 47.0482 54.3146 47.0546 54.4992 47.0608C54.9076 47.0744 55.3299 47.0885 55.7454 47.1355C58.0055 47.3912 59.7373 48.2974 61.0397 49.9058C61.1673 50.0634 61.3198 50.1337 61.5342 50.1337L61.6603 50.1332C62.3206 50.131 63.0034 50.1287 63.6747 50.1287C64.3521 50.1287 64.9486 50.1311 65.4984 50.136L65.5105 50.136C65.6805 50.136 65.7901 50.1022 65.8658 50.0261C65.9639 49.9276 65.9766 49.7818 65.976 49.6521C65.9662 47.3474 65.9666 45.0881 65.9773 42.9369C65.978 42.7996 65.9651 42.6457 65.8648 42.5449C65.7878 42.4676 65.676 42.4331 65.5022 42.4331L65.483 42.4332C64.9726 42.4402 64.4698 42.441 64.0888 42.441C63.8747 42.441 63.6607 42.4407 63.4466 42.4404C63.2325 42.4401 63.0184 42.4398 62.8042 42.4398C62.4536 42.4398 62.1664 42.4407 61.9006 42.4425L61.8449 42.4427C61.7465 42.4427 61.6614 42.4409 61.5878 42.4393C61.5304 42.4381 61.4799 42.437 61.4355 42.437C61.3052 42.437 61.1817 42.4437 61.1016 42.5246C61.0059 42.6213 61.0074 42.7668 61.0108 43.0857C61.0116 43.1585 61.0124 43.2409 61.0123 43.3344L61.0122 43.3497C61.0122 43.4169 61.0121 43.4857 61.0087 43.5298C60.9653 43.5124 60.8976 43.479 60.8315 43.4464L60.7937 43.4278C59.8152 42.9455 58.8034 42.4468 57.7135 42.1812C56.6456 41.9209 55.4871 41.7944 54.1719 41.7944C53.9959 41.7944 53.8134 41.7967 53.6293 41.8012C52.2514 41.8347 51.1187 42.0389 50.0645 42.4439C49.065 42.8278 47.8012 43.418 46.8931 44.5836C46.0311 45.69 45.5563 47.0178 45.4818 48.5301C45.404 50.108 45.8001 51.4711 46.6591 52.5815C47.7815 54.0323 49.3019 55.0573 51.1782 55.628C52.1751 55.9311 53.1895 56.2363 54.1705 56.5313C55.3454 56.8847 56.5602 57.2501 57.7534 57.6147C58.2475 57.7657 58.727 57.9558 59.131 58.1218C59.3055 58.1935 59.599 58.3562 59.6035 58.6399C59.6069 58.8556 59.462 59.0217 59.1189 59.1954C59.0628 59.2238 58.9987 59.2492 58.9112 59.2777C58.4213 59.4374 57.9205 59.5257 57.4228 59.5401C57.3264 59.5429 57.2288 59.5444 57.1329 59.5444C55.8438 59.5444 54.5798 59.2895 53.3761 58.7867C52.0936 58.2509 51.1619 57.4682 50.528 56.3938C50.4009 56.1784 50.2326 56.0865 49.9652 56.0865H49.9584C49.3311 56.0898 48.6626 56.0931 47.9943 56.0931C47.3482 56.0931 46.7742 56.09 46.2393 56.0837L46.2213 56.0835C46.0958 56.0835 45.9383 56.0971 45.8339 56.2028C45.7511 56.2867 45.7152 56.4107 45.7177 56.6049C45.7291 57.4859 45.7273 58.3823 45.7255 59.2492C45.7248 59.5842 45.7242 59.9193 45.7243 60.2543C45.7243 60.5885 45.7251 60.9228 45.726 61.257C45.7282 62.1246 45.7304 63.0218 45.7171 63.9034C45.7141 64.1029 45.7537 64.2374 45.8418 64.3268C45.921 64.4072 46.0366 64.4463 46.1953 64.4463C46.2198 64.4463 46.2455 64.4454 46.2724 64.4436C46.3429 64.4391 46.4184 64.4369 46.51 64.4369C46.5777 64.4369 46.6454 64.438 46.7131 64.4392C46.7821 64.4404 46.851 64.4416 46.9199 64.4416L48.8027 64.442C49.2892 64.442 49.7756 64.4417 50.262 64.441C50.8021 64.4401 50.8642 64.3767 50.8663 63.825C50.8667 63.7263 50.8666 63.6276 50.8664 63.5291C50.8664 63.4325 50.8662 63.336 50.8666 63.2394C50.867 63.1577 50.8673 63.0747 50.8721 63.0265ZM78.9561 41.7146C78.3986 41.7146 77.8367 41.7495 77.2859 41.8184C75.347 42.0609 73.6522 42.5617 72.1044 43.3493C70.2808 44.2775 68.9442 45.7012 68.1318 47.5809C67.4073 49.2571 67.029 51.1746 67.0074 53.2801L67.0075 53.2848C67.013 53.4472 67.0174 53.5984 67.0217 53.7414C67.0341 54.1568 67.0447 54.5156 67.0722 54.8692C67.1949 56.4463 67.5591 57.8531 68.1856 59.1701C68.936 60.7477 70.0701 62.0129 71.5561 62.9308C73.7407 64.2801 76.1926 64.936 79.0523 64.936C79.5755 64.936 80.121 64.9133 80.6735 64.8685C82.272 64.7388 83.8628 64.3173 85.4016 63.6156C87.1469 62.8198 88.468 61.6343 89.3281 60.0919C90.3602 58.2409 90.8933 56.1321 90.9577 53.6449C90.9931 52.2804 90.8191 50.8475 90.4256 49.2643C90.0202 47.6331 89.2952 46.2864 88.2089 45.1473C87.226 44.1164 85.9967 43.3373 84.4506 42.7653C82.5396 42.0583 80.7424 41.7146 78.9561 41.7146ZM30.7651 58.7852C30.591 58.7852 30.4729 58.8244 30.3935 58.9086C30.3152 58.9915 30.282 59.114 30.2919 59.283C30.3036 59.4843 30.3006 59.6918 30.2976 59.8925C30.2963 59.9856 30.2949 60.0789 30.2949 60.172C30.2949 60.5167 30.2958 60.8614 30.2968 61.2062C30.2992 62.086 30.3017 62.9957 30.2871 63.8897C30.2837 64.0977 30.3245 64.2375 30.4154 64.33C30.4949 64.4107 30.6085 64.4499 30.763 64.4499C30.794 64.4499 30.8275 64.4483 30.8627 64.4453C30.8965 64.4423 30.9327 64.4409 30.977 64.4409C31.0128 64.4409 31.0487 64.4418 31.0846 64.4427C31.1223 64.4436 31.16 64.4445 31.1977 64.4445L41.8778 64.4444C42.1381 64.4444 42.3984 64.4439 42.6588 64.4435C42.9264 64.4429 43.194 64.4424 43.4616 64.4424C43.6914 64.4424 43.9212 64.4428 44.1511 64.4439H44.1567C44.2565 64.4439 44.4002 64.4326 44.4967 64.3355C44.571 64.2608 44.6051 64.153 44.6041 63.9963C44.5942 62.4718 44.594 60.8617 44.6034 59.2104C44.6043 59.0497 44.5725 58.9457 44.5001 58.8728C44.4087 58.781 44.2761 58.7692 44.1707 58.7692L44.1542 58.7693C43.8086 58.7739 43.4652 58.7746 43.2047 58.7746C43.0672 58.7746 42.5168 58.7738 42.3792 58.7738C42.0833 58.7738 41.8552 58.7747 41.6397 58.7766L41.6257 58.7767C41.5976 58.7767 41.5122 58.7767 41.4902 58.7547C41.4829 58.7473 41.4657 58.7198 41.466 58.625C41.4756 54.7229 41.4762 51.2529 41.468 48.0167C41.4676 47.8842 41.488 47.7992 41.5304 47.7567C41.5706 47.7164 41.647 47.6976 41.7709 47.6976C41.7809 47.6976 41.7912 47.6978 41.8017 47.698C42.0007 47.7026 42.2173 47.7047 42.4834 47.7047C42.632 47.7047 42.7807 47.7041 42.9294 47.7034C43.0777 47.7028 43.2261 47.7022 43.3744 47.7022C43.6344 47.7022 43.8462 47.7042 44.0408 47.7086C44.0539 47.7089 44.0667 47.709 44.0792 47.709C44.2099 47.709 44.3739 47.6948 44.4831 47.5843C44.5716 47.4946 44.6099 47.3624 44.6073 47.1557C44.5879 45.6547 44.5879 44.1145 44.6071 42.578C44.6097 42.3703 44.5726 42.2389 44.4867 42.152C44.3785 42.0424 44.2109 42.0276 44.0613 42.0276L44.0487 42.0277C42.816 42.0353 41.5947 42.0363 40.6683 42.0363C40.1712 42.0363 39.6741 42.036 39.177 42.0357C38.6799 42.0354 38.1827 42.035 37.6856 42.035C37.6856 42.035 34.873 42.0358 34.3539 42.0358C33.3755 42.0358 32.0857 42.0352 30.7858 42.0307H30.78C30.648 42.0307 30.4997 42.0442 30.4006 42.144C30.3242 42.2209 30.2892 42.335 30.2905 42.5031C30.3018 44.0381 30.302 45.6251 30.2911 47.2199C30.2899 47.3917 30.3267 47.5092 30.4069 47.59C30.5112 47.6949 30.667 47.707 30.7752 47.707L30.7865 47.707C30.9348 47.7057 31.0832 47.7052 31.2316 47.7052C31.4064 47.7052 31.5812 47.7059 31.756 47.7065C31.931 47.7071 32.1061 47.7077 32.2811 47.7077C32.6628 47.7077 32.9567 47.7046 33.234 47.6978C33.2436 47.6976 33.2529 47.6974 33.2618 47.6974C33.3485 47.6974 33.404 47.709 33.4269 47.7319C33.4526 47.7577 33.4644 47.8217 33.4641 47.9334C33.4551 51.663 33.4553 55.1218 33.4649 58.5073C33.4652 58.638 33.4495 58.7149 33.4153 58.7491C33.3848 58.7798 33.3206 58.7947 33.2192 58.7947C33.2105 58.7947 33.2017 58.7946 33.1926 58.7944C32.943 58.7885 32.6683 58.7858 32.328 58.7858C32.1604 58.7858 31.9928 58.7864 31.8251 58.787C31.6578 58.7877 31.4904 58.7882 31.323 58.7882C31.116 58.7882 30.9434 58.7873 30.78 58.7853L30.7651 58.7852ZM59.6661 27.9618C57.8124 27.9618 55.9974 28.155 54.2714 28.536C51.8468 29.0712 49.5398 29.9399 47.4147 31.1178C44.589 32.6841 42.1204 34.742 40.0775 37.2341C39.4204 38.0358 38.86 38.8023 38.3643 39.5773C38.3571 39.5885 38.3492 39.5999 38.3412 39.6115C38.2949 39.6786 38.2314 39.7706 38.2698 39.8711C38.3096 39.9756 38.4339 40.0057 38.4747 40.0156C38.614 40.0493 38.7472 40.0664 38.8708 40.0664C39.297 40.0664 39.6434 39.8674 39.9299 39.4581C41.1831 37.6679 42.7091 36.0249 44.4655 34.5748C44.5387 34.5144 44.5925 34.4875 44.6402 34.4875C44.6813 34.4875 44.7285 34.5081 44.7843 34.5505C45.4149 35.0286 46.0958 35.4762 46.8084 35.8807C46.9004 35.9329 46.9077 35.9576 46.9077 35.9579C46.908 35.9604 46.9083 35.9866 46.8325 36.0771C45.9751 37.1003 45.2383 38.1593 44.6425 39.2246C44.6164 39.2714 44.5754 39.3222 44.5319 39.376C44.4149 39.521 44.2692 39.7014 44.387 39.8921C44.479 40.041 44.6467 40.041 44.7018 40.041C44.7609 40.041 44.8225 40.034 44.882 40.0273C44.9398 40.0208 44.9946 40.0145 45.0449 40.0145C45.068 40.0145 45.088 40.0159 45.1061 40.0186C45.1502 40.0252 45.193 40.0286 45.2332 40.0286C45.4816 40.0286 45.6621 39.9088 45.8182 39.6405C46.3848 38.6669 47.0492 37.7254 47.8496 36.7624L47.8743 36.7323C47.9429 36.6482 47.9879 36.5967 48.0453 36.5967C48.0718 36.5967 48.1042 36.6063 48.1415 36.6253C49.3808 37.2543 50.548 37.7387 51.7101 38.1061C51.7563 38.1207 51.8147 38.1453 51.8302 38.1792C51.8399 38.2007 51.8419 38.2483 51.7961 38.3533C51.67 38.6426 51.5669 38.9453 51.4672 39.238L51.4456 39.3016C51.3348 39.6267 51.2842 39.7751 51.3646 39.8918C51.4444 40.0075 51.5966 40.0129 51.93 40.0248L51.9801 40.0266C51.9984 40.0272 52.0164 40.0276 52.0339 40.0276C52.3806 40.0276 52.5755 39.8829 52.6659 39.5583C52.708 39.4071 52.7665 39.2549 52.8232 39.1078C52.8758 38.9709 52.9303 38.8293 52.9733 38.6849C53.0197 38.529 53.0635 38.529 53.1057 38.529C53.1388 38.529 53.1814 38.5364 53.2362 38.5516C55.0131 39.0434 56.9157 39.3213 58.8912 39.3774C58.9814 39.38 59.0417 39.3962 59.0655 39.4243C59.091 39.4544 59.0888 39.5163 59.0825 39.563C59.0614 39.7173 59.0855 39.8316 59.156 39.9123C59.221 39.9867 59.3205 40.0244 59.4521 40.0244C59.4762 40.0244 59.5021 40.0232 59.5289 40.0207C59.5768 40.0162 59.6288 40.0141 59.6922 40.0141C59.7387 40.0141 59.7853 40.0153 59.8319 40.0163C59.8649 40.0171 59.8979 40.0179 59.9308 40.0183L59.9385 40.0183C60.062 40.0183 60.1608 39.9808 60.2241 39.91C60.2646 39.8648 60.3097 39.7834 60.2951 39.653C60.2834 39.549 60.2938 39.4775 60.326 39.4404C60.3752 39.3839 60.5017 39.3758 60.6498 39.3716C62.2053 39.3277 63.792 39.1152 65.5007 38.7218L65.5777 38.704C65.8417 38.6431 66.0324 38.599 66.157 38.599C66.3511 38.599 66.3968 38.695 66.5934 39.2932C66.7801 39.8612 66.8364 40.0326 67.3194 40.0326C67.4055 40.0326 67.5087 40.0283 67.6281 40.0232L67.6531 40.0222C67.759 40.0177 67.9086 39.9987 67.9841 39.885C68.0589 39.7724 68.0186 39.6279 67.9817 39.529C67.9329 39.3982 67.8857 39.2667 67.8384 39.1352C67.7436 38.8713 67.6456 38.5983 67.5358 38.3339C67.4941 38.2335 67.4958 38.1903 67.5046 38.1718C67.5163 38.1471 67.5616 38.1219 67.6322 38.1007C68.9298 37.712 70.1183 37.1593 71.1097 36.6699C71.18 36.6352 71.2365 36.6184 71.2826 36.6184C71.3407 36.6184 71.3996 36.6432 71.4981 36.7643C72.2161 37.6467 72.8497 38.4508 73.3334 39.3559C73.5865 39.8296 73.9005 40.0408 74.3514 40.0408C74.4247 40.0408 74.5037 40.0351 74.5864 40.0238C74.7918 39.9957 74.905 39.9803 74.9552 39.8815C75.007 39.7796 74.9446 39.664 74.8583 39.5039C74.2349 38.349 73.4538 37.2081 72.5365 36.1128C72.4479 36.007 72.4468 35.9674 72.4485 35.9578C72.4515 35.9412 72.4789 35.9081 72.5919 35.8446C73.246 35.4768 73.8884 35.0546 74.5012 34.5895C74.5819 34.5282 74.6453 34.4997 74.7006 34.4997C74.7579 34.4997 74.8227 34.5315 74.9048 34.5997C76.7069 36.0986 78.2426 37.7631 79.4694 39.5469C79.6402 39.7954 79.8366 40.038 80.1884 40.038C80.2517 40.038 80.3193 40.0299 80.3895 40.0138C80.4026 40.011 80.4199 40.0094 80.4398 40.0094C80.481 40.0094 80.5273 40.0158 80.5763 40.0225C80.6287 40.0298 80.6828 40.0372 80.7356 40.0372C80.8615 40.0372 80.9521 39.9908 81.0049 39.8993C81.1273 39.6875 80.9697 39.503 80.8546 39.3684C80.8207 39.3288 80.7887 39.2913 80.7654 39.2567C79.6001 37.5272 78.2633 35.9681 76.792 34.6227C74.4953 32.5224 71.8699 30.8762 68.9887 29.7299C66.4388 28.7154 63.7739 28.1324 61.068 27.9971C60.5985 27.9737 60.1268 27.9618 59.6661 27.9618Z" fill="#009247"/>
<path d="M82.6893 53.1263C82.732 54.4532 82.6037 55.7199 82.4241 56.9798C82.2813 57.9809 81.6825 58.6402 80.7266 58.9482C79.7364 59.2672 78.7351 59.3199 77.7112 59.0567C76.6159 58.775 75.9081 58.1757 75.7373 57.0069C75.5355 55.6257 75.2049 54.26 75.2957 52.8476C75.3707 51.6806 75.527 50.5224 75.7268 49.3725C75.8464 48.6841 76.307 48.1852 76.9323 47.9152C78.2668 47.3391 79.6351 47.2141 80.9965 47.8405C81.7436 48.1843 82.1923 48.7884 82.357 49.5916C82.5992 50.7737 82.756 51.9652 82.6893 53.1263Z" fill="#009247"/>
<path d="M59.1891 71.4007C59.1891 72.2606 59.1824 73.1205 59.1934 73.9803C59.1964 74.2188 59.1176 74.3019 58.878 74.3043C58.5935 74.3072 58.2999 74.3207 58.0274 74.3938C57.672 74.4891 57.4037 74.4114 57.1069 74.1987C55.9638 73.3798 55.1282 72.2992 54.4157 71.1127C54.1095 70.603 53.8508 70.0649 53.5635 69.5435C53.4707 69.3752 53.4459 69.2747 53.6849 69.2171C54.5636 69.0053 55.4535 68.8553 56.3437 68.7067C57.1457 68.5727 57.9594 68.5585 58.7669 68.4822C59.1351 68.4474 59.2058 68.5892 59.1965 68.9244C59.1736 69.7492 59.189 70.5752 59.1891 71.4007Z" fill="#009247"/>
<path d="M60.6891 68.495C62.3556 68.5453 63.9855 68.848 65.6084 69.1996C65.8149 69.2444 65.881 69.3176 65.7703 69.5491C65.1236 70.9016 64.3523 72.1699 63.3179 73.2637C62.9235 73.6809 62.4847 74.0524 61.9964 74.3576C61.6323 74.5853 61.2533 74.3816 60.893 74.3389C60.1941 74.2562 60.1979 74.225 60.1978 73.5044C60.1978 71.9902 60.1975 70.476 60.1975 68.9618C60.1976 68.4824 60.1979 68.4824 60.6891 68.495Z" fill="#009247"/>
<path d="M54.2517 76.8928C57.5574 74.6803 62.1137 74.8492 65.0517 76.8824C62.921 77.6257 57.323 77.7926 54.2517 76.8928Z" fill="#009247"/>
<path d="M55.2924 75.1544C55.1514 75.1112 55.0183 75.0782 54.8908 75.0302C53.3569 74.4536 51.9407 73.6659 50.6457 72.6609C50.0744 72.2176 49.5377 71.7352 49.0091 71.2425C48.8402 71.0851 48.8476 71.0098 49.059 70.9095C50.064 70.4329 51.0976 70.0293 52.1457 69.6593C52.3899 69.573 52.4965 69.6287 52.6078 69.869C53.3648 71.5017 54.3011 73.0163 55.6093 74.2753C55.7329 74.3943 55.8601 74.5116 55.997 74.6146C56.2037 74.77 56.1513 74.8554 55.936 74.9257C55.7195 74.9963 55.5064 75.0778 55.2924 75.1544Z" fill="#009247"/>
<path d="M64.0142 75.1493C63.7968 75.0648 63.5204 74.9835 63.2707 74.8516C63.0964 74.7596 63.2794 74.6803 63.3386 74.6291C63.8351 74.2 64.2838 73.7277 64.6976 73.2175C65.5272 72.1949 66.177 71.0638 66.7348 69.8782C66.8433 69.6477 66.9372 69.5677 67.192 69.6577C68.2409 70.028 69.2746 70.4331 70.2788 70.9127C70.4492 70.9941 70.5169 71.052 70.3442 71.2217C68.6362 72.8998 66.6845 74.1974 64.4352 75.0358C64.3494 75.0678 64.2621 75.0958 64.1746 75.1228C64.1421 75.1329 64.107 75.1344 64.0142 75.1493Z" fill="#009247"/>
<path d="M54.0203 75.7937C53.6405 76.0548 53.2948 76.2918 52.9499 76.53C52.8718 76.584 52.8034 76.5499 52.7239 76.5261C50.3328 75.8106 48.1076 74.7476 46.0404 73.3509C45.5692 73.0325 45.5615 73.027 45.9956 72.711C46.5431 72.3124 47.1284 71.972 47.7114 71.6279C47.9022 71.5153 47.9824 71.6352 48.085 71.7396C49.0377 72.7094 50.0827 73.5664 51.2198 74.3119C52.0928 74.8843 53.0191 75.3571 54.0203 75.7937Z" fill="#009247"/>
<path d="M59.1888 35.3846C59.1891 36.2453 59.1851 37.1061 59.1921 37.9667C59.1937 38.1622 59.1606 38.2438 58.9285 38.2423C57.1424 38.2308 55.4001 37.9172 53.668 37.5197C53.4869 37.4782 53.3646 37.4407 53.4783 37.2094C54.1536 35.8362 54.9068 34.5154 55.9618 33.3889C56.3244 33.0017 56.7347 32.6726 57.1534 32.3501C57.4205 32.1443 57.6843 32.315 57.9469 32.3333C58.2654 32.3553 58.5806 32.4252 58.8991 32.4453C59.1478 32.461 59.1946 32.583 59.1922 32.8023C59.1831 33.663 59.1885 34.5239 59.1888 35.3846Z" fill="#009247"/>
<path d="M60.1979 35.3409C60.1979 34.5032 60.2071 33.6654 60.1925 32.828C60.188 32.5694 60.2698 32.445 60.5298 32.4287C60.9632 32.4014 61.3938 32.3481 61.8193 32.2575C62.0066 32.2176 62.1448 32.318 62.2869 32.4232C63.4722 33.3004 64.3401 34.4469 65.0656 35.71C65.345 36.1965 65.5816 36.7074 65.8497 37.2007C65.9462 37.3783 65.9244 37.471 65.7211 37.5137C64.4904 37.7726 63.2638 38.0474 62.0049 38.1533C61.5242 38.1937 61.0423 38.1877 60.5645 38.2342C60.2372 38.2661 60.1856 38.1426 60.1916 37.8538C60.2091 37.0165 60.1978 36.1786 60.1979 35.3409Z" fill="#009247"/>
<path d="M54.0823 29.7372C57.8326 28.8813 61.5095 28.8957 65.2652 29.7325C61.9651 32.0101 57.3915 32.0193 54.0823 29.7372Z" fill="#009247"/>
<path d="M56.0503 31.9073C55.6509 32.2728 55.2627 32.6402 54.9132 33.0471C53.9419 34.1781 53.1832 35.441 52.5757 36.7964C52.4552 37.0653 52.328 37.1546 52.0302 37.0465C51.007 36.6752 49.9944 36.281 49.0143 35.8058C48.8442 35.7233 48.6915 35.6627 48.9072 35.4497C50.5748 33.8033 52.4671 32.4976 54.6586 31.6452C55.1149 31.4677 55.4077 31.5325 56.0503 31.9073Z" fill="#009247"/>
<path d="M63.2754 31.8962C63.8464 31.6121 64.3462 31.4654 64.9794 31.7436C67.0442 32.6508 68.8642 33.8939 70.4633 35.4753C70.6108 35.6212 70.5862 35.686 70.4192 35.7663C69.365 36.2727 68.2826 36.7091 67.176 37.0873C66.9725 37.1569 66.8918 37.0596 66.8155 36.89C66.2008 35.5245 65.4423 34.248 64.4749 33.0984C64.114 32.6697 63.7114 32.2847 63.2754 31.8962Z" fill="#009247"/>
<path d="M66.6482 30.0996C67.2225 30.2936 67.8061 30.4639 68.3694 30.6859C70.2098 31.4112 71.9496 32.3279 73.5753 33.4602C73.8273 33.6358 73.8489 33.7071 73.5752 33.8861C72.9996 34.2626 72.4334 34.6519 71.8337 34.9912C71.6322 35.1052 71.4948 35.1041 71.3261 34.9286C69.8751 33.4184 68.2134 32.1911 66.3371 31.2574C66.1323 31.1555 65.9217 31.0642 65.7103 30.9763C65.545 30.9076 65.4697 30.8398 65.663 30.7082C65.9186 30.5342 66.169 30.3527 66.4216 30.1745C66.4884 30.1275 66.5565 30.085 66.6482 30.0996Z" fill="#009247"/>
<path d="M53.8817 30.8593C52.4207 31.4747 51.1323 32.2599 49.9343 33.1958C49.2644 33.7192 48.6227 34.2754 48.0435 34.8986C47.8644 35.0913 47.7106 35.1129 47.4805 34.9793C46.8944 34.6393 46.3338 34.2622 45.7711 33.8865C45.5261 33.7229 45.5001 33.6376 45.7582 33.4671C46.3995 33.0436 47.0382 32.6166 47.7068 32.2372C49.217 31.3804 50.8046 30.7021 52.4581 30.1728C52.6899 30.0986 52.8605 30.1118 53.0525 30.2732C53.2959 30.4779 53.5721 30.6437 53.8817 30.8593Z" fill="#009247"/>
<path d="M35.4359 82.5024C35.4224 83.1903 35.3202 83.8443 34.6395 84.2146C33.4032 84.8872 32.1221 84.1858 32.0213 82.776C31.9825 82.232 32.0455 81.6951 32.3951 81.2404C32.8625 80.6323 33.5968 80.4404 34.4087 80.7047C35.0143 80.9018 35.4146 81.4946 35.4355 82.2268C35.4381 82.3186 35.4359 82.4106 35.4359 82.5024Z" fill="#009247"/>
<path d="M39.1724 84.2033C39.1578 83.4341 39.2073 82.735 39.3992 82.0603C39.5781 81.4314 39.8464 80.8486 40.5668 80.6522C41.2111 80.4765 41.8102 80.6957 42.1931 81.2409C42.5419 81.7376 42.6566 82.3118 42.7205 82.8916C42.8402 83.9779 42.8438 85.0686 42.5842 86.1369C42.4146 86.8349 42.1135 87.4593 41.3201 87.6659C40.8128 87.798 40.168 87.5801 39.8479 87.1658C39.4765 86.6853 39.3296 86.1226 39.2566 85.5406C39.1982 85.0758 39.1331 84.6079 39.1724 84.2033Z" fill="#009247"/>
<path d="M49.9847 84.1646C49.9106 85.0488 49.922 85.9443 49.5148 86.7777C49.2227 87.3758 48.7605 87.7285 48.1151 87.7163C47.4693 87.704 47.009 87.3238 46.7412 86.7291C46.5846 86.3813 46.515 86.0108 46.4435 85.639C46.2144 84.4481 46.2796 83.2657 46.5605 82.0955C46.7055 81.4915 46.9613 80.9332 47.6013 80.6939C48.3754 80.4044 49.0936 80.7106 49.4816 81.45C49.9299 82.3044 49.914 83.2383 49.9847 84.1646Z" fill="#009247"/>
<path d="M75.0554 84.1459C75.0346 85.0061 74.9828 85.8582 74.6405 86.6695C74.3359 87.3917 73.8517 87.7168 73.2058 87.7141C72.5323 87.7113 72.047 87.3189 71.8019 86.6767C71.419 85.6738 71.3367 84.6349 71.4095 83.5697C71.4535 82.9247 71.5401 82.2958 71.7708 81.69C72.0407 80.9816 72.5077 80.6157 73.1652 80.6025C73.876 80.5883 74.3379 80.9027 74.6351 81.6236C74.7395 81.8769 74.8437 82.1372 74.8939 82.4045C75.0016 82.9781 75.068 83.5589 75.0554 84.1459Z" fill="#009247"/>
<path d="M29 90L40.5 95H64.5C64.9 95 79 93.3333 86 92.5L93 89L95 87V80C95 79.6 93.6667 77.1667 93 76L83 77L66 79H57H53.5L43 78H34.5L25 77.5L29 90Z" fill="#009247"/>
<path d="M28.0475 88.834V87.6936L30.8602 84.7277C31.1292 84.4355 31.3534 84.1759 31.5327 83.9489C31.712 83.722 31.8465 83.5021 31.9362 83.2894C32.0259 83.0766 32.0707 82.8496 32.0707 82.6085C32.0707 82.3333 32.0127 82.0979 31.8967 81.9021C31.7806 81.7035 31.6211 81.5504 31.418 81.4426C31.2149 81.3348 30.9841 81.2809 30.7257 81.2809C30.4593 81.2809 30.2259 81.3404 30.0255 81.4596C29.825 81.5759 29.6694 81.7418 29.5587 81.9574C29.4505 82.173 29.3965 82.4298 29.3965 82.7277H28C28 82.1745 28.1174 81.6936 28.3521 81.2851C28.5868 80.8766 28.9099 80.5603 29.3213 80.3362C29.7354 80.1121 30.2101 80 30.7455 80C31.2888 80 31.7661 80.1092 32.1775 80.3277C32.589 80.5461 32.9081 80.8454 33.1349 81.2255C33.3643 81.6057 33.4791 82.0397 33.4791 82.5277C33.4791 82.8539 33.421 83.1745 33.305 83.4894C33.189 83.8043 32.9846 84.1532 32.6918 84.5362C32.4017 84.9191 31.9942 85.383 31.4694 85.9277L30.0729 87.4553V87.5149H33.6017V88.834H28.0475Z" fill="#FBFAF8"/>
<path d="M34.9665 88.834V87.6936L37.7792 84.7277C38.0482 84.4355 38.2724 84.1759 38.4517 83.9489C38.6311 83.722 38.7656 83.5021 38.8553 83.2894C38.9449 83.0766 38.9898 82.8496 38.9898 82.6085C38.9898 82.3333 38.9317 82.0979 38.8157 81.9021C38.6997 81.7035 38.5401 81.5504 38.337 81.4426C38.1339 81.3348 37.9032 81.2809 37.6447 81.2809C37.3784 81.2809 37.1449 81.3404 36.9445 81.4596C36.7441 81.5759 36.5885 81.7418 36.4777 81.9574C36.3696 82.173 36.3155 82.4298 36.3155 82.7277H34.919C34.919 82.1745 35.0364 81.6936 35.2711 81.2851C35.5058 80.8766 35.8289 80.5603 36.2403 80.3362C36.6544 80.1121 37.1291 80 37.6645 80C38.2078 80 38.6851 80.1092 39.0966 80.3277C39.508 80.5461 39.8271 80.8454 40.0539 81.2255C40.2834 81.6057 40.3981 82.0397 40.3981 82.5277C40.3981 82.8539 40.3401 83.1745 40.224 83.4894C40.108 83.8043 39.9036 84.1532 39.6109 84.5362C39.3207 84.9191 38.9133 85.383 38.3884 85.9277L36.992 87.4553V87.5149H40.5207V88.834H34.9665Z" fill="#FBFAF8"/>
<path d="M44.8802 89C44.2288 89 43.6697 88.8227 43.2029 88.4681C42.7387 88.1106 42.3814 87.5957 42.1308 86.9234C41.8829 86.2482 41.759 85.4355 41.759 84.4851C41.7616 83.5348 41.8869 82.7262 42.1348 82.0596C42.3853 81.3901 42.7427 80.8794 43.2069 80.5277C43.6737 80.1759 44.2315 80 44.8802 80C45.529 80 46.0868 80.1759 46.5536 80.5277C47.0204 80.8794 47.3778 81.3901 47.6257 82.0596C47.8762 82.7291 48.0015 83.5376 48.0015 84.4851C48.0015 85.4383 47.8762 86.2525 47.6257 86.9277C47.3778 87.6 47.0204 88.1135 46.5536 88.4681C46.0895 88.8227 45.5317 89 44.8802 89ZM44.8802 87.6681C45.3866 87.6681 45.7862 87.4 46.0789 86.8638C46.3743 86.3248 46.522 85.5319 46.522 84.4851C46.522 83.7929 46.4547 83.2113 46.3202 82.7404C46.1857 82.2695 45.9958 81.9149 45.7506 81.6766C45.5053 81.4355 45.2152 81.3149 44.8802 81.3149C44.3765 81.3149 43.9783 81.5844 43.6855 82.1234C43.3928 82.6596 43.2451 83.4468 43.2425 84.4851C43.2398 85.1801 43.3044 85.7645 43.4363 86.2383C43.5708 86.7121 43.7607 87.0695 44.006 87.3106C44.2512 87.5489 44.5427 87.6681 44.8802 87.6681Z" fill="#FBFAF8"/>
<path d="M52.3106 89C51.6592 89 51.1001 88.8227 50.6333 88.4681C50.1691 88.1106 49.8117 87.5957 49.5612 86.9234C49.3133 86.2482 49.1893 85.4355 49.1893 84.4851C49.1919 83.5348 49.3172 82.7262 49.5651 82.0596C49.8157 81.3901 50.173 80.8794 50.6372 80.5277C51.104 80.1759 51.6618 80 52.3106 80C52.9594 80 53.5172 80.1759 53.984 80.5277C54.4508 80.8794 54.8081 81.3901 55.0561 82.0596C55.3066 82.7291 55.4319 83.5376 55.4319 84.4851C55.4319 85.4383 55.3066 86.2525 55.0561 86.9277C54.8081 87.6 54.4508 88.1135 53.984 88.4681C53.5198 88.8227 52.962 89 52.3106 89ZM52.3106 87.6681C52.817 87.6681 53.2165 87.4 53.5093 86.8638C53.8046 86.3248 53.9523 85.5319 53.9523 84.4851C53.9523 83.7929 53.8851 83.2113 53.7506 82.7404C53.6161 82.2695 53.4262 81.9149 53.1809 81.6766C52.9356 81.4355 52.6455 81.3149 52.3106 81.3149C51.8069 81.3149 51.4086 81.5844 51.1159 82.1234C50.8231 82.6596 50.6754 83.4468 50.6728 84.4851C50.6702 85.1801 50.7348 85.7645 50.8667 86.2383C51.0012 86.7121 51.191 87.0695 51.4363 87.3106C51.6816 87.5489 51.973 87.6681 52.3106 87.6681Z" fill="#FBFAF8"/>
<path d="M59.7409 89C59.0895 89 58.5304 88.8227 58.0636 88.4681C57.5994 88.1106 57.2421 87.5957 56.9915 86.9234C56.7436 86.2482 56.6197 85.4355 56.6197 84.4851C56.6223 83.5348 56.7476 82.7262 56.9955 82.0596C57.246 81.3901 57.6034 80.8794 58.0676 80.5277C58.5344 80.1759 59.0922 80 59.7409 80C60.3897 80 60.9475 80.1759 61.4143 80.5277C61.8811 80.8794 62.2385 81.3901 62.4864 82.0596C62.737 82.7291 62.8622 83.5376 62.8622 84.4851C62.8622 85.4383 62.737 86.2525 62.4864 86.9277C62.2385 87.6 61.8811 88.1135 61.4143 88.4681C60.9502 88.8227 60.3924 89 59.7409 89ZM59.7409 87.6681C60.2473 87.6681 60.6469 87.4 60.9396 86.8638C61.235 86.3248 61.3827 85.5319 61.3827 84.4851C61.3827 83.7929 61.3154 83.2113 61.1809 82.7404C61.0464 82.2695 60.8565 81.9149 60.6113 81.6766C60.366 81.4355 60.0759 81.3149 59.7409 81.3149C59.2372 81.3149 58.839 81.5844 58.5462 82.1234C58.2535 82.6596 58.1058 83.4468 58.1032 84.4851C58.1005 85.1801 58.1651 85.7645 58.297 86.2383C58.4315 86.7121 58.6214 87.0695 58.8667 87.3106C59.1119 87.5489 59.4034 87.6681 59.7409 87.6681Z" fill="#FBFAF8"/>
<path d="M65.0746 87.7872C64.8346 87.7872 64.6289 87.6965 64.4575 87.5149C64.2861 87.3305 64.2017 87.1092 64.2043 86.8511C64.2017 86.5957 64.2861 86.3773 64.4575 86.1957C64.6289 86.0142 64.8346 85.9234 65.0746 85.9234C65.3067 85.9234 65.5085 86.0142 65.6799 86.1957C65.854 86.3773 65.9423 86.5957 65.9449 86.8511C65.9423 87.0241 65.9001 87.1816 65.8183 87.3234C65.7392 87.4652 65.6337 87.5787 65.5019 87.6638C65.3726 87.7461 65.2302 87.7872 65.0746 87.7872ZM65.0746 83.4681C64.8346 83.4681 64.6289 83.3773 64.4575 83.1957C64.2861 83.0113 64.2017 82.7901 64.2043 82.5319C64.2017 82.2766 64.2861 82.0582 64.4575 81.8766C64.6289 81.6922 64.8346 81.6 65.0746 81.6C65.3067 81.6 65.5085 81.6922 65.6799 81.8766C65.854 82.0582 65.9423 82.2766 65.9449 82.5319C65.9423 82.7021 65.9001 82.8582 65.8183 83C65.7392 83.1418 65.6337 83.2553 65.5019 83.3404C65.3726 83.4255 65.2302 83.4681 65.0746 83.4681Z" fill="#FBFAF8"/>
<path d="M67.4077 88.834V87.6936L70.2204 84.7277C70.4894 84.4355 70.7136 84.1759 70.8929 83.9489C71.0722 83.722 71.2067 83.5021 71.2964 83.2894C71.3861 83.0766 71.4309 82.8496 71.4309 82.6085C71.4309 82.3333 71.3729 82.0979 71.2569 81.9021C71.1408 81.7035 70.9813 81.5504 70.7782 81.4426C70.5751 81.3348 70.3443 81.2809 70.0859 81.2809C69.8195 81.2809 69.5861 81.3404 69.3857 81.4596C69.1852 81.5759 69.0296 81.7418 68.9189 81.9574C68.8107 82.173 68.7567 82.4298 68.7567 82.7277H67.3602C67.3602 82.1745 67.4776 81.6936 67.7123 81.2851C67.947 80.8766 68.2701 80.5603 68.6815 80.3362C69.0956 80.1121 69.5703 80 70.1057 80C70.649 80 71.1263 80.1092 71.5377 80.3277C71.9492 80.5461 72.2683 80.8454 72.4951 81.2255C72.7245 81.6057 72.8393 82.0397 72.8393 82.5277C72.8393 82.8539 72.7812 83.1745 72.6652 83.4894C72.5491 83.8043 72.3448 84.1532 72.052 84.5362C71.7619 84.9191 71.3544 85.383 70.8296 85.9277L69.4331 87.4553V87.5149H72.9619V88.834H67.4077Z" fill="#FBFAF8"/>
<path d="M77.3214 89C76.67 89 76.1109 88.8227 75.6441 88.4681C75.1799 88.1106 74.8225 87.5957 74.572 86.9234C74.3241 86.2482 74.2001 85.4355 74.2001 84.4851C74.2028 83.5348 74.328 82.7262 74.5759 82.0596C74.8265 81.3901 75.1838 80.8794 75.648 80.5277C76.1148 80.1759 76.6726 80 77.3214 80C77.9702 80 78.528 80.1759 78.9948 80.5277C79.4616 80.8794 79.819 81.3901 80.0669 82.0596C80.3174 82.7291 80.4427 83.5376 80.4427 84.4851C80.4427 85.4383 80.3174 86.2525 80.0669 86.9277C79.819 87.6 79.4616 88.1135 78.9948 88.4681C78.5306 88.8227 77.9728 89 77.3214 89ZM77.3214 87.6681C77.8278 87.6681 78.2273 87.4 78.5201 86.8638C78.8154 86.3248 78.9631 85.5319 78.9631 84.4851C78.9631 83.7929 78.8959 83.2113 78.7614 82.7404C78.6269 82.2695 78.437 81.9149 78.1917 81.6766C77.9464 81.4355 77.6563 81.3149 77.3214 81.3149C76.8177 81.3149 76.4194 81.5844 76.1267 82.1234C75.8339 82.6596 75.6863 83.4468 75.6836 84.4851C75.681 85.1801 75.7456 85.7645 75.8775 86.2383C76.012 86.7121 76.2019 87.0695 76.4471 87.3106C76.6924 87.5489 76.9838 87.6681 77.3214 87.6681Z" fill="#FBFAF8"/>
<path d="M85.0524 80.1191V88.834H83.5847V81.6553H83.5373L81.6423 82.9574V81.5106L83.6559 80.1191H85.0524Z" fill="#FBFAF8"/>
<path d="M89.9895 88.9532C89.4014 88.9532 88.8792 88.8468 88.4229 88.634C87.9693 88.4213 87.6133 88.1305 87.3548 87.7617C87.099 87.3901 86.9724 86.9688 86.975 86.4979C86.9724 86.1319 87.0462 85.7957 87.1966 85.4894C87.3469 85.183 87.55 84.9277 87.8058 84.7234C88.0642 84.5163 88.3517 84.3844 88.6682 84.3277V84.2681C88.2515 84.1688 87.9139 83.9404 87.6555 83.583C87.3996 83.2227 87.273 82.8071 87.2757 82.3362C87.273 81.8879 87.3891 81.4879 87.6238 81.1362C87.8585 80.7844 88.1803 80.5078 88.5891 80.3064C88.9978 80.1021 89.4647 80 89.9895 80C90.509 80 90.9719 80.1021 91.3781 80.3064C91.7868 80.5078 92.1086 80.7844 92.3433 81.1362C92.5807 81.4879 92.6993 81.8879 92.6993 82.3362C92.6993 82.8071 92.5688 83.2227 92.3077 83.583C92.0492 83.9404 91.7156 84.1688 91.3068 84.2681V84.3277C91.6233 84.3844 91.9081 84.5163 92.1613 84.7234C92.4172 84.9277 92.6202 85.183 92.7706 85.4894C92.9235 85.7957 93 86.1319 93 86.4979C93 86.9688 92.8708 87.3901 92.6123 87.7617C92.3539 88.1305 91.9978 88.4213 91.5442 88.634C91.0932 88.8468 90.575 88.9532 89.9895 88.9532ZM89.9895 87.7362C90.2928 87.7362 90.5565 87.6809 90.7807 87.5702C91.0049 87.4567 91.1789 87.2979 91.3029 87.0936C91.4268 86.8894 91.4901 86.6539 91.4928 86.3872C91.4901 86.1092 91.4229 85.8638 91.291 85.6511C91.1618 85.4355 90.9838 85.2667 90.757 85.1447C90.5328 85.0227 90.277 84.9617 89.9895 84.9617C89.6994 84.9617 89.4409 85.0227 89.2141 85.1447C88.9873 85.2667 88.808 85.4355 88.6761 85.6511C88.5469 85.8638 88.4836 86.1092 88.4862 86.3872C88.4836 86.6539 88.5442 86.8894 88.6682 87.0936C88.7921 87.295 88.9662 87.4525 89.1904 87.566C89.4172 87.6794 89.6836 87.7362 89.9895 87.7362ZM89.9895 83.766C90.2374 83.766 90.4563 83.7121 90.6462 83.6043C90.8387 83.4965 90.9904 83.3461 91.1011 83.1532C91.2119 82.9603 91.2686 82.7376 91.2712 82.4851C91.2686 82.2355 91.2132 82.017 91.1051 81.8298C90.997 81.6397 90.8466 81.4936 90.6541 81.3915C90.4616 81.2865 90.24 81.234 89.9895 81.234C89.7337 81.234 89.5082 81.2865 89.313 81.3915C89.1205 81.4936 88.9702 81.6397 88.862 81.8298C88.7565 82.017 88.7051 82.2355 88.7077 82.4851C88.7051 82.7376 88.7579 82.9603 88.866 83.1532C88.9768 83.3433 89.1284 83.4936 89.3209 83.6043C89.5161 83.7121 89.7389 83.766 89.9895 83.766Z" fill="#FBFAF8"/>
</svg>
