<svg width="76" height="81" viewBox="0 0 76 81" fill="none" xmlns="http://www.w3.org/2000/svg">
<path d="M26.2238 67.1343C26.8679 66.4848 27.5273 65.4385 29.5876 65.4385C31.648 65.4385 51.0744 65.4385 53.1348 65.4385C55.0034 65.4385 65.2834 55.0454 66.5903 53.5684C67.8467 52.1474 73.4476 43.6636 75 40.0025C74.0245 38.6781 71.3889 37.5776 68.2722 38.3068C65.2986 39.0037 63.5493 41.1556 61.5445 45.0897L53.8344 49.1256" stroke="#91C137" stroke-width="2" stroke-miterlimit="10" stroke-linejoin="round"/>
<path d="M36.3155 55.2642C36.3155 55.2642 48.089 55.2642 49.771 55.2642C56.4987 55.2642 56.4987 46.7855 49.771 46.7855C48.089 46.7855 45.5611 46.7855 40.8853 46.7855C39.4826 46.7855 36.8554 43.394 34.6335 43.394C33.6462 43.394 28.4978 43.394 26.2238 43.394C23.9498 43.394 21.1275 45.2526 19.4961 46.7855C16.9748 49.3274 12.7683 53.5685 12.7683 53.5685" stroke="#91C137" stroke-width="2" stroke-miterlimit="10" stroke-linejoin="round"/>
<path d="M21.1837 78.9999L29.5933 70.5214L9.40967 50.1722L1.00012 58.6507L21.1837 78.9999Z" stroke="#91C137" stroke-width="2" stroke-miterlimit="10" stroke-linejoin="round"/>
<path d="M9.40442 58.6556L12.7683 62.0471" stroke="#91C137" stroke-width="2" stroke-miterlimit="10" stroke-linejoin="round"/>
<path d="M66.3633 39.0446C66.5129 38.2663 66.5903 37.4422 66.5903 36.5723C66.5903 27.6985 61.0719 19.6607 51.4529 12.8727" stroke="#91C137" stroke-width="2" stroke-miterlimit="10"/>
<path d="M43.0431 12.8707C33.4241 19.6588 27.9056 27.6965 27.9056 36.5703C27.9056 39.2818 28.6575 41.5439 29.9778 43.3973" stroke="#91C137" stroke-width="2" stroke-miterlimit="10"/>
<path d="M51.4529 12.8708C51.0189 13.5441 48.3817 13.8934 47.248 13.8934C46.1144 13.8934 43.4973 13.4915 43.0432 12.8708C43.0432 12.8708 38.1723 3.76136 38.3691 3.40525C40.1334 0.212185 43.8084 0.826043 47.2531 1.70613C52.1542 2.95589 54.112 2.72357 55.0506 2.68965C55.133 3.99028 51.4529 12.8708 51.4529 12.8708Z" stroke="#91C137" stroke-width="2" stroke-miterlimit="10"/>
<path d="M41.3612 34.9153V36.611C41.3612 38.4831 42.8682 40.0025 44.7251 40.0025H48.089C49.9458 40.0025 51.4528 38.4831 51.4528 36.611V35.6631C51.4528 34.2031 50.5261 32.9076 49.1536 32.4463L43.6604 30.5997C42.288 30.1384 41.3612 28.8429 41.3612 27.3829V26.4366C41.3612 24.5645 42.8682 23.0452 44.7251 23.0452H48.089C49.9458 23.0452 51.4528 24.5645 51.4528 26.4366V28.1324" stroke="#91C137" stroke-width="2" stroke-miterlimit="10"/>
<path d="M46.407 23.0452V19.6537" stroke="#91C137" stroke-width="2" stroke-miterlimit="10"/>
<path d="M46.407 40.0026V43.394" stroke="#91C137" stroke-width="2" stroke-miterlimit="10"/>
</svg>
