<svg width="80" height="58" viewBox="0 0 80 58" fill="none" xmlns="http://www.w3.org/2000/svg">
<path d="M41.6957 50.2122H38.3044" stroke="#91C137" stroke-width="2" stroke-miterlimit="10" stroke-linejoin="round"/>
<path d="M7.78271 50.2122H11.174" stroke="#91C137" stroke-width="2" stroke-miterlimit="10" stroke-linejoin="round"/>
<path d="M28.1304 50.2122H31.5217" stroke="#91C137" stroke-width="2" stroke-miterlimit="10" stroke-linejoin="round"/>
<path d="M17.9565 50.2122H21.3478" stroke="#91C137" stroke-width="2" stroke-miterlimit="10" stroke-linejoin="round"/>
<path d="M72.2175 50.2122H68.8262" stroke="#91C137" stroke-width="2" stroke-miterlimit="10" stroke-linejoin="round"/>
<path d="M51.8696 50.2122H48.4783" stroke="#91C137" stroke-width="2" stroke-miterlimit="10" stroke-linejoin="round"/>
<path d="M62.0434 50.2122H58.6521" stroke="#91C137" stroke-width="2" stroke-miterlimit="10" stroke-linejoin="round"/>
<path d="M17.9564 23.0605H16.2607C12.6574 23.0605 11.3857 25.8894 9.47809 29.8484L1.90869 46.8181" stroke="#91C137" stroke-width="2" stroke-miterlimit="10" stroke-linejoin="round"/>
<path d="M40 57.0001H72.2174C75.9631 57.0001 79 53.9608 79 50.2122C79 46.4636 75.9631 43.4243 72.2174 43.4243H40H7.78261C4.03691 43.4243 1 46.4636 1 50.2122C1 53.9608 4.03691 57.0001 7.78261 57.0001H40Z" stroke="#91C137" stroke-width="2" stroke-miterlimit="10" stroke-linejoin="round"/>
<path d="M62.0435 23.0605H63.7391C67.3424 23.0605 68.6141 25.8894 70.5217 29.8484L78.0928 46.8181" stroke="#91C137" stroke-width="2" stroke-miterlimit="10" stroke-linejoin="round"/>
<path d="M40.0001 34.9394H21.3479V9.48485L24.7392 1H40.0001H55.2609L58.6522 9.48485V34.9394H40.0001Z" stroke="#91C137" stroke-width="2" stroke-miterlimit="10" stroke-linejoin="round"/>
<path d="M21.3479 9.48486H58.6522" stroke="#91C137" stroke-width="2" stroke-miterlimit="10" stroke-linejoin="round"/>
</svg>
