<svg width="80" height="67" viewBox="0 0 80 67" fill="none" xmlns="http://www.w3.org/2000/svg">
<path d="M26.4348 28.7692H12.8696V42.3076H26.4348V28.7692Z" stroke="#91C137" stroke-width="2" stroke-miterlimit="10"/>
<path d="M50.1739 38.9231H36.6086V52.4616H50.1739V38.9231Z" stroke="#91C137" stroke-width="2" stroke-miterlimit="10"/>
<path d="M70.5218 38.9231H56.9565V52.4616H70.5218V38.9231Z" stroke="#91C137" stroke-width="2" stroke-miterlimit="10"/>
<path d="M72.2174 59.2307H68.826" stroke="#91C137" stroke-width="2" stroke-miterlimit="10" stroke-linejoin="round"/>
<path d="M11.1739 59.2307H7.78259" stroke="#91C137" stroke-width="2" stroke-miterlimit="10" stroke-linejoin="round"/>
<path d="M21.3478 59.2307H17.9565" stroke="#91C137" stroke-width="2" stroke-miterlimit="10" stroke-linejoin="round"/>
<path d="M31.5217 59.2307H28.1304" stroke="#91C137" stroke-width="2" stroke-miterlimit="10" stroke-linejoin="round"/>
<path d="M41.6956 59.2307H38.3043" stroke="#91C137" stroke-width="2" stroke-miterlimit="10" stroke-linejoin="round"/>
<path d="M51.8696 59.2307H48.4783" stroke="#91C137" stroke-width="2" stroke-miterlimit="10" stroke-linejoin="round"/>
<path d="M62.0435 59.2307H58.6522" stroke="#91C137" stroke-width="2" stroke-miterlimit="10" stroke-linejoin="round"/>
<path d="M79 59.2309C79 55.4926 75.9631 52.4617 72.2174 52.4617H7.78261C4.03691 52.4617 1 55.4926 1 59.2309C1 62.9692 4.03691 66.0001 7.78261 66.0001H72.2174C75.9631 66.0001 79 62.9692 79 59.2309Z" stroke="#91C137" stroke-width="2" stroke-miterlimit="10" stroke-linejoin="round"/>
<path d="M26.4347 35.5386L33.2173 32.154V20.3078L19.6521 13.5386L6.08691 20.3078V32.154L12.8695 35.5386" stroke="#91C137" stroke-width="2" stroke-miterlimit="10"/>
<path d="M19.6522 0V13.5385" stroke="#91C137" stroke-width="2" stroke-miterlimit="10"/>
</svg>
