<svg width="16" height="16" viewBox="0 0 16 16" fill="none" xmlns="http://www.w3.org/2000/svg">
<path d="M0.979776 7.09666L10.5124 2.94198C11.4527 2.50937 14.6433 1.12337 14.6433 1.12337C14.6433 1.12337 16.1168 0.517724 15.9926 1.99025C15.9517 2.5959 15.6262 4.71733 15.2975 7.0118L14.2754 13.807C14.2754 13.807 14.1936 14.802 13.4986 14.9751C12.8035 15.1481 11.6571 14.3694 11.4527 14.1947C11.2892 14.0649 8.38632 12.1182 7.32172 11.1665C7.03395 10.9069 6.70844 10.3861 7.36261 9.78048C8.83605 8.35288 10.5941 6.57753 11.6556 5.45276C12.1478 4.93197 12.6368 3.72067 10.5926 5.19319L4.82614 9.30628C4.82614 9.30628 4.17198 9.73888 2.94385 9.34788C1.71728 8.96019 0.286297 8.4394 0.286297 8.4394C0.286297 8.4394 -0.696524 7.78883 0.979776 7.09666Z" fill="white"/>
</svg>
