<svg width="40" height="56" fill="none" xmlns="http://www.w3.org/2000/svg"><path d="M39.965 19.251C39.965 8.625 31.028.01 20 0 8.972.009.035 8.625.035 19.251c-.824 9.417 13.152 28.911 18.2 35.611.567.753 1.176 1.132 1.765 1.138.589-.006 1.197-.385 1.765-1.138 5.047-6.7 19.024-26.194 18.2-35.61Z" fill="#91C137"/><g clip-path="url(#a)"><path d="M14.62 20.19a15.995 15.995 0 0 0-8.998-5.606.69.69 0 0 0-.836.453 16.005 16.005 0 0 0 3.9 16.267A15.951 15.951 0 0 0 20 35.987c4.417 0 8.417-1.79 11.312-4.684a15.966 15.966 0 0 0 4.473-13.914c-.131-.796-.32-1.569-.56-2.315a.691.691 0 0 0-.817-.499v.001c-7.513 1.653-12.682 8.387-12.543 15.906l.024.424c.088.371.46.6.832.513h-.001a11.751 11.751 0 0 0 6.501-4.156 11.692 11.692 0 0 0 2.525-7.27.69.69 0 1 0-1.382 0c0 2.426-.83 4.655-2.222 6.417a10.38 10.38 0 0 1-4.895 3.426c.158-6.534 4.637-12.111 10.839-13.762a14.635 14.635 0 0 1-3.75 14.252A14.575 14.575 0 0 1 20 34.607a14.573 14.573 0 0 1-10.336-4.28c-3.62-3.618-5.005-8.587-3.905-13.596l.155-.656a14.62 14.62 0 0 1 10.839 13.762 10.378 10.378 0 0 1-4.895-3.426 10.315 10.315 0 0 1-2.223-6.417.69.69 0 0 0-1.382 0c0 2.743.944 5.268 2.525 7.27a11.752 11.752 0 0 0 6.474 4.15.706.706 0 0 0 .162.024c.489.017.75-.462.715-.666.071-3.916-1.043-7.511-3.51-10.581ZM6.433 11.52a.69.69 0 1 0 1.17.729A14.614 14.614 0 0 1 27.086 7.21a14.612 14.612 0 0 1 5.31 5.038.69.69 0 0 0 1.17-.729 15.982 15.982 0 0 0-5.81-5.512A15.99 15.99 0 0 0 6.433 11.52Z" fill="#fff"/><path d="M11.507 12.64a.688.688 0 0 0-1.128.789 11.738 11.738 0 0 0 15.044 3.682 11.738 11.738 0 0 0 4.197-3.682.688.688 0 1 0-1.128-.788 10.365 10.365 0 0 1-13.28 3.246 10.358 10.358 0 0 1-3.705-3.246Z" fill="#fff"/><path d="M22.061 9.124A2.908 2.908 0 0 0 20 8.27c-.805 0-1.534.326-2.062.854a2.906 2.906 0 0 0-.854 2.061c0 .805.327 1.534.854 2.061A2.907 2.907 0 0 0 20 14.1c.805 0 1.534-.326 2.062-.854a2.907 2.907 0 0 0 .854-2.06c0-.806-.327-1.535-.854-2.062ZM20 6.889c1.187 0 2.261.48 3.039 1.259a4.281 4.281 0 0 1 1.259 3.037c0 1.186-.481 2.26-1.26 3.038A4.284 4.284 0 0 1 20 15.482a4.284 4.284 0 0 1-3.039-1.259 4.281 4.281 0 0 1-1.259-3.038c0-1.186.481-2.26 1.26-3.037a4.284 4.284 0 0 1 3.038-1.26Z" fill="#fff"/><path fill-rule="evenodd" clip-rule="evenodd" d="M19.99 5.423c8.09 0 14.65 6.558 14.65 14.647s-6.56 14.646-14.65 14.646c-8.092 0-14.651-6.557-14.651-14.646 0-8.09 6.56-14.647 14.65-14.647Zm0-1.283c8.8 0 15.934 7.132 15.934 15.93S28.79 36 19.99 36c-8.801 0-15.935-7.132-15.935-15.93S11.19 4.14 19.99 4.14Z" fill="#fff"/><path d="M19.99 5.423c8.09 0 14.65 6.558 14.65 14.647s-6.56 14.646-14.65 14.646c-8.092 0-14.651-6.557-14.651-14.646 0-8.09 6.56-14.647 14.65-14.647Zm0-1.283c8.8 0 15.934 7.132 15.934 15.93S28.79 36 19.99 36c-8.801 0-15.935-7.132-15.935-15.93S11.19 4.14 19.99 4.14Z" stroke="#fff" stroke-width=".283" stroke-miterlimit="22.926"/></g><defs><clipPath id="a"><path fill="#fff" transform="translate(4 4)" d="M0 0h32v32H0z"/></clipPath></defs></svg>