<svg width="48" height="67" viewBox="0 0 48 67" fill="none" xmlns="http://www.w3.org/2000/svg">
<path d="M47.9581 23.0328C47.9581 10.3187 37.2336 0.0108013 24 0C10.7664 0.0108013 0.0418756 10.3187 0.0418756 23.0328C-0.946337 34.2997 15.8251 57.6229 21.8821 65.6386C22.5631 66.5398 23.2932 66.9925 23.9999 67C24.7066 66.9925 25.4368 66.5398 26.1178 65.6386C32.1749 57.623 48.9463 34.2997 47.9581 23.0328Z" fill="#0580F2"/>
<g clip-path="url(#clip0_301_302)">
<path d="M18.6196 24.1907C16.3404 21.3535 13.1698 19.3721 9.62248 18.5843C9.2695 18.4886 8.90039 18.6854 8.78583 19.0368C6.92387 24.7518 8.42845 31.0461 12.6869 35.3035C15.5821 38.1979 19.5817 39.9883 23.9997 39.9883C28.4173 39.9883 32.4169 38.1979 35.3122 35.3035C38.9011 31.7155 40.6413 26.5728 39.7845 21.3904C39.6539 20.594 39.4652 19.821 39.2249 19.0753C39.1315 18.7186 38.7716 18.4965 38.4083 18.5763L38.4087 18.577C30.8947 20.2299 25.7257 26.9643 25.8652 34.4834L25.8886 34.9072C25.9769 35.2783 26.3491 35.5077 26.7205 35.42L26.72 35.4196C29.3318 34.8002 31.6076 33.3064 33.2211 31.2638C34.8019 29.2619 35.7457 26.7367 35.7457 23.9939C35.7457 23.6126 35.4371 23.3034 35.0553 23.3034C34.6737 23.3034 34.3643 23.6126 34.3643 23.9939C34.3643 26.42 33.5336 28.6491 32.1418 30.4113C30.8965 31.988 29.2005 33.1943 27.2468 33.8373C27.4049 27.3031 31.8836 21.7256 38.0859 20.075C39.5 25.1556 38.0504 30.6133 34.3358 34.327C31.6904 36.9712 28.0363 38.6069 23.9999 38.6069C19.9631 38.6069 16.3089 36.9712 13.664 34.327C10.0447 30.709 8.65946 25.7397 9.75869 20.7309L9.91368 20.075C16.0702 21.7137 20.4737 27.1875 20.7443 33.5707C20.7484 33.6594 20.7509 33.7486 20.7529 33.8373C18.7991 33.1943 17.1028 31.988 15.8578 30.4113C14.4657 28.649 13.6349 26.4199 13.6349 23.9939C13.6349 23.6126 13.3256 23.3034 12.944 23.3034C12.5624 23.3034 12.2534 23.6126 12.2534 23.9939C12.2534 26.7367 13.1973 29.2619 14.7781 31.2638C16.386 33.2992 18.6516 34.7898 21.2522 35.4131C21.3038 35.4275 21.3582 35.436 21.4141 35.4382C21.9026 35.4553 22.1645 34.9761 22.1288 34.7718C22.2 30.8561 21.0863 27.2609 18.6196 24.1907Z" fill="white"/>
<path d="M10.4325 15.5202C10.231 15.8437 10.33 16.2686 10.6535 16.47C10.977 16.671 11.4022 16.5719 11.6032 16.2488C12.9393 14.1114 14.7782 12.3939 16.9125 11.2107C19.045 10.0296 21.4762 9.38112 23.9995 9.38112C26.5228 9.38112 28.954 10.0296 31.0861 11.2107C33.2203 12.3939 35.0596 14.1115 36.3954 16.2488C36.5965 16.5719 37.0216 16.6711 37.3451 16.47C37.6685 16.2686 37.7676 15.8438 37.5665 15.5202C36.1055 13.1824 34.0924 11.3027 31.7553 10.0079C29.4156 8.71101 26.7548 8 23.9994 8C21.2441 8 18.5829 8.71101 16.2432 10.0079C13.9062 11.3027 11.8933 13.1824 10.4325 15.5202Z" fill="white"/>
<path d="M15.5074 16.6409C15.2899 16.3296 14.8609 16.2534 14.5495 16.4709C14.2381 16.6882 14.1618 17.1174 14.3793 17.4286C15.4803 19.0007 16.9275 20.2536 18.5763 21.1114C20.2279 21.9711 22.0844 22.4386 23.9997 22.4386C25.915 22.4386 27.771 21.9711 29.4227 21.1114C31.0716 20.2536 32.5186 19.0007 33.6197 17.4286C33.8372 17.1174 33.7613 16.6882 33.4499 16.4709C33.1385 16.2534 32.7092 16.3295 32.4919 16.6409C31.524 18.0226 30.2463 19.127 28.7861 19.8867C27.3291 20.6449 25.6908 21.0573 23.9997 21.0573C22.3081 21.0573 20.6703 20.645 19.2128 19.8867C17.753 19.127 16.475 18.0226 15.5074 16.6409Z" fill="white"/>
<path d="M26.0614 13.1237C25.5335 12.5962 24.8047 12.2701 23.9994 12.2701C23.1941 12.2701 22.465 12.5962 21.9374 13.1237C21.4097 13.6512 21.0836 14.3801 21.0836 15.1852C21.0836 15.9902 21.4097 16.7192 21.9374 17.2465C22.465 17.774 23.1941 18.1004 23.9994 18.1004C24.8047 18.1004 25.5335 17.7739 26.0614 17.2465C26.5887 16.7192 26.9152 15.9902 26.9152 15.1852C26.9152 14.38 26.5886 13.6512 26.0614 13.1237ZM23.9993 10.8889C25.1859 10.8889 26.2604 11.3698 27.038 12.1476C27.8158 12.9249 28.297 13.9991 28.297 15.1852C28.297 16.3714 27.8158 17.4457 27.038 18.223C26.2604 19.0007 25.1859 19.4817 23.9993 19.4817C22.8125 19.4817 21.7383 19.0007 20.9604 18.223C20.1825 17.4457 19.7017 16.3714 19.7017 15.1852C19.7017 13.9991 20.1825 12.9249 20.9604 12.1476C21.7383 11.3698 22.8125 10.8889 23.9993 10.8889Z" fill="white"/>
<path fill-rule="evenodd" clip-rule="evenodd" d="M23.9895 9.42313C32.0806 9.42313 38.6399 15.9806 38.6399 24.0697C38.6399 32.159 32.0806 38.7164 23.9895 38.7164C15.8981 38.7164 9.33871 32.159 9.33871 24.0697C9.33871 15.9806 15.8981 9.42313 23.9895 9.42313ZM23.9895 8.13965C32.7896 8.13965 39.9238 15.2718 39.9238 24.0697C39.9238 32.8676 32.7897 39.9999 23.9895 39.9999C15.189 39.9999 8.05518 32.8677 8.05518 24.0697C8.05518 15.2718 15.189 8.13965 23.9895 8.13965Z" fill="white"/>
<path d="M23.9895 9.42313C32.0806 9.42313 38.6399 15.9806 38.6399 24.0697C38.6399 32.159 32.0806 38.7164 23.9895 38.7164C15.8981 38.7164 9.33871 32.159 9.33871 24.0697C9.33871 15.9806 15.8981 9.42313 23.9895 9.42313ZM23.9895 8.13965C32.7896 8.13965 39.9238 15.2718 39.9238 24.0697C39.9238 32.8676 32.7897 39.9999 23.9895 39.9999C15.189 39.9999 8.05518 32.8677 8.05518 24.0697C8.05518 15.2718 15.189 8.13965 23.9895 8.13965Z" stroke="white" stroke-width="0.2835" stroke-miterlimit="22.9256"/>
</g>
<defs>
<clipPath id="clip0_301_302">
<rect width="32" height="32" fill="white" transform="translate(8 8)"/>
</clipPath>
</defs>
</svg>
