<svg width="22" height="24" fill="none" xmlns="http://www.w3.org/2000/svg"><path opacity=".2" d="M15.736 6.776c.442.114.74 1.057.494 2.099-.247 1.048-.944 1.793-1.386 1.681 0 0-.344 1.944-.844 2.444v1.5c0 .5.049.879 1.347 1.418 1.299.54 4.66 1.99 5.321 2.635 1 .974 1.332 3.697 1.332 4.008 0 .218-.113.396-.427.489-1.07.297-4.616.95-10.573.95-5.957 0-9.504-.652-10.573-.95-.315-.093-.427-.27-.427-.49 0-.31.332-3.032 1.332-4.008.66-.644 4.02-2.122 5.321-2.634C7.953 15.407 8 15 8 14.5V13c-.5-.5-.844-2.444-.844-2.444-.442.112-1.14-.633-1.385-1.681-.247-1.042.051-1.986.494-2.1.025-.006-.242-1.95-.244-3.297 0-1.286.247-2.478.992-2.478C8.7 1 9.51 0 11.303 0c1.702 0 2.325.393 2.702 1 1.42 0 1.994 1 1.994 2.5.001 1-.314 3.263-.264 3.276Z" fill="#4A4A4A"/></svg>