<svg width="16" height="16" viewBox="0 0 16 16" fill="none" xmlns="http://www.w3.org/2000/svg">
<path d="M13.2767 8.68525C13.018 8.35859 13.092 8.21325 13.2767 7.92125C13.28 7.91792 15.4153 4.96725 15.6353 3.96659L15.6367 3.96592C15.746 3.60125 15.6367 3.33325 15.108 3.33325H13.3587C12.9133 3.33325 12.708 3.56325 12.598 3.82059C12.598 3.82059 11.7073 5.95259 10.4473 7.33459C10.0407 7.73392 9.85267 7.86192 9.63067 7.86192C9.52133 7.86192 9.35133 7.73392 9.35133 7.36925V3.96592C9.35133 3.52859 9.22667 3.33325 8.858 3.33325H6.10733C5.828 3.33325 5.662 3.53725 5.662 3.72725C5.662 4.14192 6.292 4.23725 6.35733 5.40392V7.93525C6.35733 8.48992 6.25667 8.59192 6.03333 8.59192C5.43867 8.59192 3.99533 6.45125 3.14 4.00125C2.96733 3.52592 2.79867 3.33392 2.35 3.33392H0.6C0.100667 3.33392 0 3.56392 0 3.82125C0 4.27592 0.594666 6.53659 2.76533 9.52325C4.212 11.5619 6.24933 12.6666 8.10267 12.6666C9.21667 12.6666 9.35267 12.4213 9.35267 11.9993C9.35267 10.0513 9.252 9.86725 9.81 9.86725C10.0687 9.86725 10.514 9.99525 11.554 10.9786C12.7427 12.1446 12.938 12.6666 13.6033 12.6666H15.3527C15.8513 12.6666 16.104 12.4213 15.9587 11.9373C15.626 10.9193 13.378 8.82525 13.2767 8.68525Z" fill="white"/>
</svg>
