<svg width="78" height="76" viewBox="0 0 78 76" fill="none" xmlns="http://www.w3.org/2000/svg">
<path d="M77 23.7693H1" stroke="#91C137" stroke-width="2" stroke-miterlimit="10"/>
<path d="M12.3999 12.3845V16.1794H21.8999V12.3845" stroke="#91C137" stroke-width="2" stroke-miterlimit="10"/>
<path d="M56.1001 12.3845V16.1794H65.6001V12.3845" stroke="#91C137" stroke-width="2" stroke-miterlimit="10"/>
<path d="M12.4 8.58974H4.8C2.7024 8.58974 1 10.2898 1 12.3846V71.2051C1 73.2999 2.7024 75 4.8 75H73.2C75.2976 75 77 73.2999 77 71.2051V12.3846C77 10.2898 75.2976 8.58974 73.2 8.58974H65.6V2.89744C65.6 1.84815 64.7507 1 63.7 1H58C56.9493 1 56.1 1.84815 56.1 2.89744V8.58974H21.9V2.89744C21.9 1.84815 21.0507 1 20 1H14.3C13.2493 1 12.4 1.84815 12.4 2.89744V8.58974Z" stroke="#91C137" stroke-width="2" stroke-miterlimit="10"/>
<path d="M27.6001 38.9487H35.2001" stroke="#91C137" stroke-width="2" stroke-miterlimit="10"/>
<path d="M42.8 38.9487H50.4" stroke="#91C137" stroke-width="2" stroke-miterlimit="10"/>
<path d="M58 38.9487H65.6" stroke="#91C137" stroke-width="2" stroke-miterlimit="10"/>
<path d="M12.3999 48.4359H19.9999" stroke="#91C137" stroke-width="2" stroke-miterlimit="10"/>
<path d="M27.6001 48.4359H35.2001" stroke="#91C137" stroke-width="2" stroke-miterlimit="10"/>
<path d="M42.8 48.4359H50.4" stroke="#91C137" stroke-width="2" stroke-miterlimit="10"/>
<path d="M58 48.4359H65.6" stroke="#91C137" stroke-width="2" stroke-miterlimit="10"/>
<path d="M12.3999 57.9231H19.9999" stroke="#91C137" stroke-width="2" stroke-miterlimit="10"/>
<path d="M27.6001 57.9231H35.2001" stroke="#91C137" stroke-width="2" stroke-miterlimit="10"/>
<path d="M42.8 57.9231H50.4" stroke="#91C137" stroke-width="2" stroke-miterlimit="10"/>
</svg>
