<svg width="60" height="81" viewBox="0 0 60 81" fill="none" xmlns="http://www.w3.org/2000/svg">
<path d="M59 56.1702L38.5294 68.0851L30 62.9787V61.2766L50.4706 49.3617L59 54.4681V56.1702Z" stroke="#91C137" stroke-width="2" stroke-miterlimit="10" stroke-linejoin="round"/>
<path d="M47.0587 47.6595L50.4705 49.3617L58.9999 44.2553V42.5531L47.0587 35.7446" stroke="#91C137" stroke-width="2" stroke-miterlimit="10" stroke-linejoin="round"/>
<path d="M30 62.9788V80" stroke="#91C137" stroke-width="2" stroke-miterlimit="10" stroke-linejoin="round"/>
<path d="M30 44.2554V61.2766" stroke="#91C137" stroke-width="2" stroke-miterlimit="10" stroke-linejoin="round"/>
<path d="M47.0588 34.0426L30 44.2554" stroke="#91C137" stroke-width="2" stroke-miterlimit="10" stroke-linejoin="round"/>
<path d="M1 56.1702L21.4706 68.0851L30 62.9787V61.2766L9.52941 49.3617L1 54.4681V56.1702Z" stroke="#91C137" stroke-width="2" stroke-miterlimit="10" stroke-linejoin="round"/>
<path d="M12.9412 47.6595L9.52941 49.3617L1 44.2553V42.5531L12.9412 35.7446" stroke="#91C137" stroke-width="2" stroke-miterlimit="10" stroke-linejoin="round"/>
<path d="M12.9412 51.0639V34.0426L30 23.8298L47.0588 34.0426V51.0639" stroke="#91C137" stroke-width="2" stroke-miterlimit="10" stroke-linejoin="round"/>
<path d="M12.9412 34.0426L30 44.2554" stroke="#91C137" stroke-width="2" stroke-miterlimit="10" stroke-linejoin="round"/>
<path d="M30 8.51062H23.1765L18.0588 13.617V20.4255L21.4706 23.8298" stroke="#91C137" stroke-width="2" stroke-miterlimit="10"/>
<path d="M30 8.51062H36.8235L41.9412 13.617V20.4255L38.5294 23.8298" stroke="#91C137" stroke-width="2" stroke-miterlimit="10"/>
<path d="M30 0V8.51064" stroke="#91C137" stroke-width="2" stroke-miterlimit="10"/>
<path d="M9.52942 61.2766V68.0851L30 80L50.4706 68.0851V61.2766" stroke="#91C137" stroke-width="2" stroke-miterlimit="10" stroke-linejoin="round"/>
</svg>
