<svg width="80" height="75" viewBox="0 0 80 75" fill="none" xmlns="http://www.w3.org/2000/svg">
<path d="M40 45.375H38.2273" stroke="#91C137" stroke-width="2" stroke-miterlimit="10"/>
<path d="M11.6309 33.1346C10.7463 32.1601 9.86353 31.1856 9.86353 29.7816C9.86353 26.9665 13.4551 24.7282 13.4551 21.9131C13.4551 19.0979 8.19361 12.4949 10.5318 10.4874C12.7052 8.32365 19.8511 13.5794 22.8966 13.5794C25.9422 13.5794 28.3726 9.875 31.4181 9.875C34.4637 9.875 36.5519 13.583 39.5993 13.583C42.643 13.583 44.7331 9.87677 47.7786 9.87677C50.8242 9.87677 53.2563 13.5848 56.3019 13.583C59.3474 13.583 67.658 8.33252 69.5548 10.4945C71.5952 12.502 66.6386 19.1103 66.6386 21.9237C66.6386 24.7388 70.138 26.5849 70.138 29.4C70.138 32.2152 66.6386 34.0611 66.6386 36.8763C66.6386 39.6914 71.5952 46.4684 69.5548 48.3464C67.6597 50.3699 59.3474 45.4566 56.3019 45.4566C53.2563 45.4566 50.8224 48.925 47.7786 48.925C44.7348 48.925 42.3027 45.4566 39.2571 45.4566" stroke="#91C137" stroke-width="2" stroke-miterlimit="10"/>
<path d="M29.3637 50.7V72L24.0455 66.675L18.7273 72V50.7" stroke="#91C137" stroke-width="2" stroke-miterlimit="10"/>
<path d="M24.0455 52.475C28.9408 52.475 32.9092 48.5015 32.9092 43.6C32.9092 38.6984 28.9408 34.725 24.0455 34.725C19.1503 34.725 15.1819 38.6984 15.1819 43.6C15.1819 48.5015 19.1503 52.475 24.0455 52.475Z" stroke="#91C137" stroke-width="2" stroke-miterlimit="10"/>
<path d="M27.5908 22.3H52.409" stroke="#91C137" stroke-width="2" stroke-miterlimit="10"/>
<path d="M32.9092 29.4H47.091" stroke="#91C137" stroke-width="2" stroke-miterlimit="10"/>
<path d="M13.4091 57.8H1V1H79V57.8H34.6818" stroke="#91C137" stroke-width="2" stroke-miterlimit="10"/>
</svg>
