<svg width="72" height="72" viewBox="0 0 72 72" fill="none" xmlns="http://www.w3.org/2000/svg">
<path fill-rule="evenodd" clip-rule="evenodd" d="M2.46581 34.7468C3.12115 34.7468 3.6529 35.2781 3.6529 35.9333C3.6529 36.5888 3.12115 37.1202 2.46581 37.1202C1.81046 37.1202 1.2793 36.5888 1.2793 35.9333C1.2793 35.2781 1.81046 34.7468 2.46581 34.7468Z" fill="#91C137"/>
<path fill-rule="evenodd" clip-rule="evenodd" d="M67.5206 34.7468C68.1758 34.7468 68.7076 35.2781 68.7076 35.9333C68.7076 36.5888 68.176 37.1202 67.5206 37.1202C66.8653 37.1202 66.334 36.5888 66.334 35.9333C66.3341 35.2781 66.8653 34.7468 67.5206 34.7468Z" fill="#91C137"/>
<path d="M27.3596 35.934C24.0949 31.869 19.5535 29.0302 14.4724 27.9014C13.9668 27.7643 13.4381 28.0463 13.274 28.5498C10.607 36.7379 12.7621 45.756 18.8617 51.8558C23.0087 56.0028 28.7377 58.5679 35.0658 58.5679C41.3935 58.5679 47.1224 56.0028 51.2695 51.8558C56.4101 46.7151 58.9028 39.3469 57.6755 31.9219C57.4884 30.7809 57.2181 29.6733 56.874 28.6049C56.7401 28.0939 56.2246 27.7756 55.7042 27.89L55.7048 27.891C44.9421 30.2592 37.5381 39.9079 37.738 50.6808L37.7714 51.2881C37.8979 51.8197 38.4311 52.1484 38.963 52.0227L38.9624 52.0222C42.7034 51.1347 45.9632 48.9945 48.2743 46.0679C50.5386 43.1997 51.8905 39.5818 51.8905 35.6521C51.8905 35.1057 51.4484 34.6627 50.9015 34.6627C50.355 34.6627 49.9118 35.1057 49.9118 35.6521C49.9118 39.1281 48.7219 42.3217 46.7283 44.8466C44.9446 47.1055 42.5153 48.8339 39.7169 49.7551C39.9434 40.3933 46.3585 32.4021 55.2425 30.0373C57.268 37.3164 55.1917 45.1359 49.8709 50.4567C46.0818 54.2453 40.8478 56.5888 35.0661 56.5888C29.2839 56.5888 24.0498 54.2452 20.2613 50.4567C15.0771 45.2731 13.093 38.1533 14.6675 30.977L14.8895 30.0373C23.7079 32.3851 30.0154 40.2277 30.4029 49.3732C30.4088 49.5003 30.4124 49.628 30.4152 49.7551C27.6167 48.8339 25.187 47.1055 23.4037 44.8466C21.4097 42.3216 20.2197 39.1279 20.2197 35.6521C20.2197 35.1057 19.7766 34.6627 19.23 34.6627C18.6834 34.6627 18.2408 35.1057 18.2408 35.6521C18.2408 39.5818 19.5929 43.1998 21.8571 46.0679C24.1603 48.9842 27.4054 51.1199 31.1305 52.0128C31.2043 52.0335 31.2822 52.0457 31.3624 52.0488C32.0621 52.0733 32.4372 51.3868 32.386 51.0941C32.488 45.4838 30.8928 40.3329 27.3596 35.934Z" fill="#91C137"/>
<path d="M15.6329 23.5111C15.3443 23.9746 15.4861 24.5834 15.9495 24.872C16.4128 25.16 17.0218 25.018 17.3098 24.555C19.2236 21.4927 21.8575 19.0319 24.9146 17.3367C27.9692 15.6445 31.4515 14.7154 35.0658 14.7154C38.6801 14.7154 42.1625 15.6445 45.2165 17.3367C48.2734 19.0319 50.908 21.4929 52.8213 24.555C53.1093 25.018 53.7183 25.1601 54.1816 24.872C54.6448 24.5834 54.7868 23.9748 54.4987 23.5111C52.4061 20.1617 49.5225 17.4685 46.175 15.6134C42.8236 13.7553 39.0124 12.7366 35.0657 12.7366C31.119 12.7366 27.3073 13.7553 23.9559 15.6134C20.6085 17.4685 17.7253 20.1617 15.6329 23.5111Z" fill="#91C137"/>
<path d="M22.9018 25.117C22.5902 24.6709 21.9757 24.5618 21.5297 24.8734C21.0837 25.1848 20.9743 25.7996 21.2859 26.2456C22.863 28.4979 24.9358 30.293 27.2975 31.5221C29.6632 32.7538 32.3224 33.4236 35.0658 33.4236C37.8092 33.4236 40.4678 32.7538 42.8336 31.5221C45.1954 30.293 47.2681 28.4979 48.8452 26.2456C49.1568 25.7996 49.048 25.1848 48.602 24.8734C48.156 24.5618 47.5411 24.6708 47.2298 25.117C45.8434 27.0966 44.0133 28.6789 41.9218 29.7674C39.8348 30.8537 37.4882 31.4446 35.0658 31.4446C32.6429 31.4446 30.2969 30.8538 28.2093 29.7674C26.1183 28.6789 24.2877 27.0966 22.9018 25.117Z" fill="#91C137"/>
<path d="M38.0187 20.0779C37.2625 19.3221 36.2186 18.8549 35.0652 18.8549C33.9117 18.8549 32.8673 19.3221 32.1116 20.0779C31.3558 20.8337 30.8886 21.878 30.8886 23.0315C30.8886 24.1848 31.3558 25.2293 32.1116 25.9848C32.8673 26.7406 33.9117 27.2082 35.0652 27.2082C36.2186 27.2082 37.2626 26.7405 38.0187 25.9848C38.774 25.2293 39.2417 24.1848 39.2417 23.0315C39.2417 21.8779 38.7739 20.8337 38.0187 20.0779ZM35.065 16.876C36.7646 16.876 38.3038 17.565 39.4175 18.6794C40.5317 19.7931 41.2209 21.3321 41.2209 23.0315C41.2209 24.731 40.5317 26.2702 39.4175 27.3839C38.3038 28.4981 36.7646 29.1873 35.065 29.1873C33.365 29.1873 31.8264 28.4981 30.7122 27.3839C29.598 26.2702 28.9092 24.731 28.9092 23.0315C28.9092 21.3321 29.5979 19.7931 30.7122 18.6794C31.8264 17.565 33.365 16.876 35.065 16.876Z" fill="#91C137"/>
<path fill-rule="evenodd" clip-rule="evenodd" d="M35.0513 14.7757C46.6407 14.7757 56.0361 24.1709 56.0361 35.7605C56.0361 47.3505 46.6407 56.7456 35.0513 56.7456C23.4614 56.7456 14.066 47.3505 14.066 35.7605C14.066 24.1709 23.4615 14.7757 35.0513 14.7757ZM35.0513 12.9368C47.6563 12.9368 57.8751 23.1554 57.8751 35.7605C57.8751 48.3657 47.6564 58.5845 35.0513 58.5845C22.4458 58.5845 12.2275 48.3659 12.2275 35.7605C12.2275 23.1554 22.4458 12.9368 35.0513 12.9368Z" fill="#91C137"/>
<path d="M35.0513 14.7757C46.6407 14.7757 56.0361 24.1709 56.0361 35.7605C56.0361 47.3505 46.6407 56.7456 35.0513 56.7456C23.4614 56.7456 14.066 47.3505 14.066 35.7605C14.066 24.1709 23.4615 14.7757 35.0513 14.7757ZM35.0513 12.9368C47.6563 12.9368 57.8751 23.1554 57.8751 35.7605C57.8751 48.3657 47.6564 58.5845 35.0513 58.5845C22.4458 58.5845 12.2275 48.3659 12.2275 35.7605C12.2275 23.1554 22.4458 12.9368 35.0513 12.9368Z" stroke="#91C137" stroke-width="0.2835" stroke-miterlimit="22.9256"/>
<path d="M66.2964 45.523C65.0739 45.2352 64.3536 44.0837 64.6259 42.9262C64.8981 41.7684 66.0581 41.05 67.2806 41.3377C68.5434 41.6347 69.2943 42.8022 69.0221 43.9601C68.7498 45.1176 67.5588 45.8199 66.2964 45.523ZM66.0986 46.3651C67.7824 46.7611 69.3942 45.7904 69.7828 44.1392C70.1713 42.4876 69.1629 40.8921 67.479 40.4958C65.8352 40.1093 64.2616 41.0976 63.8731 42.749C63.4846 44.4006 64.455 45.9785 66.0986 46.3651ZM64.263 50.4041L62.3395 49.5514L62.784 48.5481C63.0371 47.9776 63.5382 47.7906 64.1389 48.0569C64.7396 48.3231 64.9606 48.8304 64.7042 49.4081L64.263 50.4041ZM66.7159 52.4012L67.0532 51.6407L64.9169 50.694L65.23 49.9869C65.358 49.6979 65.4432 49.6085 65.7514 49.5903L67.5195 49.5007C67.9469 49.4807 68.0674 49.3524 68.2561 48.9266L68.4214 48.5541L67.7676 48.2641L67.7237 48.3631C67.6429 48.5456 67.5737 48.6604 67.3767 48.6733L65.8057 48.7501C65.5905 48.7638 65.4615 48.8701 65.4615 48.8701L65.4462 48.8632C65.5308 48.4462 65.3526 47.6576 64.4556 47.2601C63.4747 46.8254 62.5852 47.2316 62.1705 48.1665L61.1292 50.516L61.7835 50.8057L62.0021 50.3116L66.7159 52.4012ZM61.5891 55.1337L59.757 53.7928L60.4006 52.9137C60.8083 52.3569 61.3942 52.2601 61.9648 52.6776C62.5351 53.0954 62.6403 53.698 62.2277 54.2615L61.5891 55.1337ZM63.4261 57.5096L63.9175 56.8387L62.166 55.5565L62.883 54.5767C63.5221 53.7044 63.37 52.6449 62.4709 51.9867C61.5714 51.3284 60.536 51.5182 59.8973 52.3907L58.3691 54.4775L58.9461 54.9002L59.2656 54.464L63.4261 57.5096ZM58.4499 62.844L59.0915 62.315L55.8113 58.3368L56.7227 57.5858C56.8123 57.5117 56.901 57.5141 56.9801 57.6103L57.2185 57.8991L57.7891 57.4282L57.2972 56.8315C57.0595 56.5427 56.8836 56.5258 56.5945 56.764L53.4765 59.3351C53.1875 59.5731 53.1707 59.749 53.409 60.0377L53.9009 60.6342L54.4784 60.1581L54.2402 59.8693C54.1609 59.7731 54.1689 59.6912 54.2654 59.6119L55.1698 58.8659L58.4499 62.844ZM49.5615 65.3012C50.4404 66.7912 52.1823 67.3377 53.6934 66.4464C54.9686 65.6942 55.1867 64.4265 55.1867 64.4265L54.4954 64.139C54.4954 64.139 54.3064 65.1773 53.3039 65.7688C52.2719 66.3769 50.9573 65.9648 50.3065 64.8617C49.6349 63.7228 49.9707 62.4918 50.9879 61.8915C51.4965 61.5917 52.3399 61.3842 52.5889 61.8066L52.7579 62.0932L53.4167 61.7044L53.1252 61.2104C52.6436 60.3939 51.2611 60.8325 50.5807 61.2341C49.1337 62.0874 48.6999 63.8398 49.5615 65.3012ZM44.1792 68.2823C44.5736 69.5008 45.6971 70.0547 46.9787 69.6399C48.2446 69.2304 48.8305 68.1228 48.436 66.9041L47.537 64.1271C47.4986 64.0087 47.544 63.9327 47.6546 63.8969L47.995 63.7866L47.7744 63.1061L46.9753 63.3646C46.6194 63.48 46.5173 63.679 46.6331 64.0351L47.6321 67.121C47.9058 67.9673 47.537 68.6375 46.7301 68.8985C45.9152 69.1624 45.2319 68.8328 44.96 67.9945L43.9586 64.9007C43.8435 64.5448 43.6366 64.4455 43.2805 64.5606L42.4893 64.817L42.7094 65.4974L43.0497 65.3873C43.1604 65.3513 43.2417 65.3863 43.2801 65.5049L44.1792 68.2823ZM38.5915 70.4506L38.1046 66.2206L39.0465 66.1123C40.3433 65.963 41.2911 66.6324 41.4555 68.0617C41.621 69.4992 40.8593 70.3737 39.554 70.5239L38.7938 70.6112C38.6782 70.6247 38.6048 70.5663 38.5915 70.4506ZM37.8067 70.909C37.8495 71.2809 38.0332 71.4188 38.4044 71.376L39.6934 71.2278C41.4697 71.0235 42.5278 69.8133 42.3146 67.9627C42.103 66.1204 40.7988 65.1906 39.0224 65.3948L36.6596 65.6668L36.7412 66.3773L37.2784 66.3156L37.8067 70.909ZM30.6273 68.2648C30.7228 67.0126 31.7494 66.1233 32.9355 66.214C34.121 66.3044 35.0097 67.3392 34.9142 68.5916C34.8158 69.8852 33.7778 70.8072 32.5922 70.7165C31.4063 70.6262 30.5288 69.5584 30.6273 68.2648ZM29.7647 68.1991C29.6332 69.924 30.841 71.367 32.5327 71.4958C34.2244 71.6248 35.6453 70.3821 35.7767 68.6571C35.9053 66.9739 34.6857 65.5716 32.9939 65.4426C31.3023 65.3139 29.8932 66.516 29.7647 68.1991ZM25.4537 66.9961L25.9761 64.958L27.0395 65.2307C27.6435 65.3858 27.911 65.8491 27.748 66.4855C27.5845 67.122 27.1207 67.4237 26.5088 67.2667L25.4537 66.9961ZM23.8895 69.7459L24.6955 69.9524L25.2759 67.6888L26.0249 67.8809C26.3311 67.9597 26.4335 68.0289 26.5024 68.3296L26.883 70.0584C26.9736 70.4765 27.1198 70.5742 27.5708 70.6899L27.9656 70.7911L28.1434 70.0983L28.039 70.0714C27.8455 70.0219 27.7205 69.9726 27.6752 69.7808L27.3399 68.2438C27.2906 68.0335 27.1641 67.9243 27.1641 67.9243L27.1686 67.9079C27.5939 67.9225 28.3418 67.6164 28.5861 66.6659C28.8524 65.6269 28.3044 64.8164 27.3138 64.5623L24.825 63.924L24.6467 64.6167L25.1706 64.7511L23.8895 69.7459ZM20.3697 65.0471L21.383 63.0152L22.3579 63.5015C22.9757 63.8095 23.1697 64.3707 22.8541 65.0034C22.539 65.6358 21.9624 65.8413 21.3372 65.5295L20.3697 65.0471ZM18.3379 67.2584L19.0823 67.6297L20.0508 65.6871L21.1374 66.2286C22.1049 66.7111 23.1235 66.3827 23.6208 65.3854C24.1181 64.3879 23.7562 63.3989 22.7887 62.9166L20.4742 61.7626L20.1551 62.4027L20.6385 62.6439L18.3379 67.2584ZM13.465 60.9555L15.136 60.0523C15.4157 59.8897 15.8529 59.5894 15.8529 59.5894L15.8652 59.6005C15.8652 59.6005 15.62 60.0732 15.4886 60.3687L14.7713 62.1272L13.465 60.9555ZM10.5405 61.5379L10.8812 61.8432C11.1903 62.1211 11.3563 62.1356 11.7167 61.9454L12.85 61.3419L14.4531 62.7805L13.976 63.9723C13.8258 64.3514 13.8584 64.5145 14.1675 64.7923L14.5082 65.0979L14.9858 64.5655L14.8991 64.488C14.7878 64.3877 14.7539 64.3132 14.8169 64.1684L16.77 59.2392L16.1201 58.6563L11.431 61.1306C11.2942 61.2087 11.2158 61.1833 11.1046 61.0834L11.0179 61.0056L10.5405 61.5379ZM7.81542 58.5066L8.3861 59.1784L13.3716 57.365C13.5233 57.3127 13.597 57.348 13.694 57.4623L13.7694 57.5509L14.3144 57.0876L14.0073 56.7265C13.7379 56.4098 13.5824 56.3674 13.1929 56.513L9.60177 57.873C9.29062 57.9953 8.84154 58.2245 8.84154 58.2245L8.83025 58.2115C8.83025 58.2115 9.12917 57.8053 9.29991 57.518L11.2221 54.1936C11.4337 53.839 11.4175 53.6786 11.1482 53.3617L10.841 53.0005L10.2959 53.4637L10.3713 53.5523C10.4683 53.6663 10.4914 53.7451 10.4152 53.8861L7.81542 58.5066ZM4.4812 53.7211L5.51566 55.3597L6.12032 54.9777L5.81846 54.4997L9.57308 52.1282L9.87494 52.6063L10.4801 52.2245L9.44514 50.5861L8.84001 50.968L9.14669 51.4531L5.39207 53.8245L5.08586 53.3394L4.4812 53.7211ZM1.79103 48.0392L3.41628 51.6304C3.57091 51.9713 3.77964 52.0503 4.12031 51.896L4.79482 51.5908L4.4832 50.9012L4.14195 51.0556C4.03564 51.1036 3.94803 51.0706 3.8997 50.9643L3.04598 49.0779C2.92933 48.8205 2.84901 48.6832 2.84901 48.6832L2.8643 48.6765C2.8643 48.6765 3.13947 48.7801 3.53093 48.8586L8.44407 49.8114L8.93643 49.5885L7.38656 46.164C7.2324 45.8233 7.0232 45.7443 6.68253 45.8983L6.00802 46.2036L6.32011 46.8932L6.66078 46.7388C6.77449 46.6873 6.85469 46.7242 6.90302 46.83L7.68137 48.5501C7.79802 48.8075 7.88621 48.9412 7.88621 48.9412L7.87104 48.9481C7.87104 48.9481 7.58494 48.8404 7.19653 48.7694L2.29068 47.813L1.79103 48.0392ZM1.2701 42.2955L5.41912 41.338L5.63231 42.2619C5.92583 43.5338 5.36691 44.5508 3.9652 44.874C2.55515 45.1995 1.60053 44.5405 1.30502 43.2604L1.13322 42.5147C1.10723 42.4016 1.15685 42.3216 1.2701 42.2955ZM0.726583 41.5675C0.362281 41.6516 0.245629 41.8493 0.329708 42.2138L0.62122 43.4782C1.0235 45.2202 2.34395 46.1359 4.15923 45.717C5.96663 45.3 6.74462 43.8999 6.34234 42.1576L5.80765 39.8401L5.11044 40.0011L5.23203 40.5278L0.726583 41.5675Z" fill="#91C137"/>
<path d="M66.4521 26.2634C67.6755 25.9813 68.8306 26.6961 69.0979 27.8549C69.3652 29.0136 68.642 30.1706 67.4186 30.4527C66.1542 30.7444 64.9652 30.0288 64.6978 28.8698C64.4305 27.7112 65.1879 26.5551 66.4521 26.2634ZM66.2577 25.4207C64.5724 25.8097 63.5547 27.3926 63.9362 29.0456C64.3173 30.6987 65.9274 31.6846 67.6132 31.2956C69.2581 30.9159 70.2329 29.3341 69.8513 27.6808C69.4703 26.028 67.9026 25.0411 66.2577 25.4207ZM64.434 21.7291L66.5029 20.7937L66.9519 21.7859C67.2358 22.4149 67.0322 22.9726 66.3881 23.264C65.7436 23.5555 65.1675 23.3506 64.8795 22.714L64.434 21.7291ZM61.4622 22.1605L61.8048 22.9184L63.7826 22.0238L64.2829 23.1301C64.7284 24.1153 65.7258 24.5037 66.7411 24.0444C67.7563 23.5853 68.1005 22.59 67.6549 21.6048L66.5891 19.2484L65.9371 19.5431L66.1602 20.0357L61.4622 22.1605ZM58.0123 17.0132L58.4968 17.6892L62.6882 14.6862L64.2672 16.8896C64.3351 16.9844 64.3262 17.0724 64.2254 17.1449L60.6155 19.7315C60.3113 19.9495 60.2748 20.1701 60.4973 20.4809L60.9818 21.1569L61.5632 20.7404L61.3549 20.4499C61.2869 20.3551 61.3022 20.2623 61.3967 20.1946L65.0071 17.6078C65.3109 17.3896 65.3473 17.1693 65.1292 16.8653L62.4701 13.1539L61.8886 13.5705L62.2037 14.0099L58.0123 17.0132ZM53.5684 12.8373L54.2247 13.3479L57.3905 9.2781L58.3226 10.0032C58.4146 10.0748 58.4313 10.1617 58.3545 10.2602L58.1245 10.5556L58.709 11.0101L59.1842 10.3996C59.4136 10.1042 59.3919 9.92897 59.0965 9.69919L55.9066 7.21776C55.6111 6.9881 55.4359 7.00974 55.206 7.30513L54.7314 7.91555L55.3222 8.37499L55.5516 8.07983C55.6283 7.9814 55.7101 7.97129 55.8087 8.04761L56.7336 8.76774L53.5684 12.8373ZM48.1255 9.33854L48.8458 9.75399L50.1923 7.42025L50.6247 7.6699C50.8339 7.7902 50.9797 7.9032 50.9702 8.11887L50.8308 10.3905C50.7979 10.8135 50.92 10.9511 51.3164 11.1797L51.7122 11.4082L52.07 10.7888L51.9333 10.71C51.7604 10.6101 51.653 10.529 51.6688 10.3363L51.7865 8.36899C51.8042 8.00492 51.6812 7.88557 51.6812 7.88557L51.6895 7.87122C51.6895 7.87122 51.8791 7.87522 52.1686 7.706L54.6185 6.30653L53.8116 5.8411L51.5463 7.15485C51.3765 7.24892 51.2158 7.19471 51.0283 7.08664L50.5458 6.80795L51.5146 5.12979C51.7013 4.80558 51.6438 4.58968 51.3198 4.40259L50.5921 3.98291L50.2346 4.6025L50.5444 4.78124C50.6453 4.83933 50.674 4.92306 50.6113 5.03113L48.1255 9.33854ZM43.2311 7.2127C43.3035 7.36063 43.6368 7.7735 44.1404 7.94624C44.8247 8.18084 45.3354 7.81948 45.7046 7.38356L48.5258 4.07851C48.6267 3.9635 48.7079 3.95633 48.8498 4.0049L48.9757 4.04817L49.2077 3.37143L48.7828 3.22596C48.3894 3.09109 48.2338 3.13436 47.9733 3.45809L46.2778 5.55818C46.004 5.8952 45.807 6.1619 45.807 6.1619L45.7913 6.15613C45.7913 6.15613 45.7814 5.7749 45.7347 5.37214L45.4324 2.58708C45.3941 2.1868 45.3216 2.03887 44.9519 1.91234L44.4718 1.74771L44.2399 2.42445L44.3975 2.47843C44.5309 2.52417 44.5776 2.59285 44.5974 2.74054L45.1336 6.79231C44.8544 7.14509 44.6294 7.31395 44.2912 7.198C44.0633 7.11992 43.9042 6.94224 43.7929 6.75468L43.2311 7.2127ZM38.2141 5.91566C39.0358 4.95246 39.3661 3.41776 39.5217 2.1467L39.5872 1.61013L41.2218 1.81027C41.3375 1.82426 41.3965 1.89023 41.3813 2.01406L40.8633 6.24009L38.2141 5.91566ZM36.6395 6.25068L36.4747 7.59605L37.2343 7.68907L37.3535 6.71493C37.3687 6.59134 37.4337 6.54066 37.5495 6.55465L41.3628 7.02197C41.4783 7.03596 41.5281 7.1091 41.5139 7.22481L41.3946 8.19871L42.1538 8.29185L42.3188 6.94647C42.3651 6.56665 42.2335 6.40802 41.8623 6.36263L41.6806 6.34052L42.2428 1.75088C42.2887 1.37964 42.1509 1.20361 41.7796 1.1581L38.3538 0.738412L38.2668 1.44832L38.795 1.51311L38.7354 2.00006C38.5798 3.27135 38.3042 4.77078 37.3554 5.81088L37.2235 5.79477C36.8518 5.74903 36.6859 5.87109 36.6395 6.25068ZM31.1759 3.73408C31.0809 2.48184 31.9607 1.44738 33.1468 1.35695C34.3324 1.26664 35.3678 2.15528 35.4628 3.40753C35.5618 4.70093 34.6755 5.76937 33.4895 5.85968C32.3039 5.95011 31.2745 5.02748 31.1759 3.73408ZM30.3139 3.79958C30.4449 5.52454 31.8574 6.76797 33.5491 6.63909C35.2408 6.51032 36.4569 5.06652 36.3254 3.34156C36.1974 1.65846 34.7799 0.456896 33.0878 0.585895C31.3965 0.714776 30.1853 2.11648 30.3139 3.79958ZM26.4765 4.77019L25.9659 2.55804L27.0274 2.31309C27.6999 2.15811 28.2065 2.46773 28.3656 3.15647C28.5247 3.84521 28.2105 4.37014 27.5296 4.52712L26.4765 4.77019ZM26.3145 7.76915L27.125 7.58206L26.6371 5.46716L27.8202 5.19423C28.8738 4.95128 29.4508 4.04982 29.2003 2.96409C28.9501 1.878 28.0417 1.34495 26.9881 1.58825L24.4682 2.16975L24.6287 2.8666L25.1555 2.74525L26.3145 7.76915ZM20.6126 10.2083L21.3708 9.86523L19.2458 5.16753L21.7158 4.0504C21.8217 4.00243 21.9065 4.02806 21.9581 4.14154L23.7882 8.1879C23.9423 8.5288 24.1515 8.60758 24.5001 8.45001L25.2573 8.10735L24.9628 7.45553L24.6368 7.60299C24.531 7.65097 24.4429 7.61769 24.3946 7.51162L22.5647 3.4655C22.4106 3.1246 22.2014 3.04558 21.8602 3.19986L17.7009 5.08134L17.9953 5.73292L18.4882 5.51043L20.6126 10.2083ZM13.6887 12.4065L13.0088 10.6333C12.8838 10.3347 12.642 9.8623 12.642 9.8623L12.6549 9.85171C12.6549 9.85171 13.0921 10.1557 13.3683 10.3241L15.0192 11.2624L13.6887 12.4065ZM13.8891 15.3817L14.2357 15.0834C14.5513 14.8126 14.5867 14.6498 14.445 14.2678L13.9929 13.066L15.6261 11.6618L16.7461 12.2888C17.1031 12.4867 17.269 12.4757 17.5841 12.2046L17.9312 11.9062L17.465 11.3638L17.3764 11.4399C17.2627 11.5374 17.1844 11.561 17.0495 11.48L12.4131 8.90744L11.7509 9.47683L13.6002 14.446C13.6598 14.592 13.6248 14.6658 13.511 14.7637L13.4229 14.8395L13.8891 15.3817ZM10.995 17.5281L9.55734 16.4101L10.3593 15.3794C10.7267 14.9069 11.2884 14.8486 11.761 15.2164C12.2336 15.5839 12.3189 16.1242 11.9412 16.61L11.2519 17.4962C11.1807 17.5882 11.0872 17.5998 10.995 17.5281ZM9.01936 15.9913L7.63435 14.9141L8.37483 13.9622C8.71209 13.5292 9.18187 13.4939 9.58851 13.8105C9.99573 14.127 10.0867 14.6194 9.76478 15.033L9.01936 15.9913ZM10.7784 18.4028C11.0738 18.6325 11.3008 18.5982 11.5308 18.3028L12.4751 17.0885C13.1082 16.2746 13.188 15.2512 12.315 14.5721C11.7961 14.1689 11.122 14.0872 10.6002 14.4604L10.5869 14.4503C10.676 14.0244 10.5441 13.4898 10.0384 13.0966C9.29006 12.5144 8.41752 12.7421 7.81003 13.5229L6.23253 15.5514L6.79674 15.9906L7.12906 15.5638L10.7784 18.4028ZM8.01841 24.2014L8.39071 23.4668L6.20372 19.4677C6.01557 19.1395 5.66503 18.6354 5.66503 18.6354L5.67291 18.6207C5.67291 18.6207 6.12493 18.906 6.41386 19.0525L9.29217 20.5112C9.62602 20.6806 9.83827 20.6112 10.0115 20.2701L10.3872 19.5283L9.74961 19.2049L9.58768 19.5237C9.53547 19.6278 9.44587 19.657 9.34203 19.6042L4.90644 17.3556L4.53767 18.0826L6.71725 22.0593C6.90539 22.3877 7.23712 22.91 7.23712 22.91L7.22971 22.9251C7.22971 22.9251 6.79933 22.6511 6.50299 22.5007L3.63208 21.0456C3.29824 20.8765 3.0861 20.9459 2.91677 21.2795L2.53718 22.0289L3.17524 22.3524L3.33669 22.0333C3.38937 21.9295 3.47157 21.8965 3.58281 21.9528L8.01841 24.2014ZM5.6147 31.9495L5.856 31.0672L3.85116 29.0357C3.68371 28.8608 3.68865 28.7154 3.7438 28.5148L3.84916 28.1298L6.46407 28.8451L6.6748 28.0751L4.05989 27.3598L4.16478 26.9748C4.21993 26.7742 4.28931 26.6469 4.52273 26.5814L7.28228 25.8532L7.52358 24.9709L4.54237 25.7848C4.21793 25.8685 4.07659 26.0369 4.07659 26.0369L4.06083 26.0324C4.06083 26.0324 4.04601 25.8645 3.79342 25.6231L2.53106 24.407C2.38878 24.2644 2.40548 24.1399 2.45816 23.9474L2.50237 23.7869L1.8121 23.5983L1.70227 23.9993C1.57927 24.4485 1.60879 24.5943 1.917 24.8858L3.40431 26.3188C3.57423 26.4856 3.55012 26.6686 3.49097 26.8852L3.40972 27.1821L1.0113 26.5259L0.801041 27.2961L3.19934 27.9521L3.11362 28.2653C3.05212 28.4895 2.9865 28.6355 2.7552 28.6932L0.74542 29.169C0.331847 29.2631 0.230482 29.3817 0.109832 29.8228L0 30.2238L0.689799 30.4126L0.733661 30.2521C0.786342 30.0596 0.835614 29.9437 1.02811 29.9016L2.73603 29.4893C3.07622 29.4103 3.17418 29.2732 3.17418 29.2732L3.19041 29.2776C3.19041 29.2776 3.22592 29.4942 3.46016 29.7394L5.6147 31.9495Z" fill="#91C137"/>
</svg>
