<svg width="40" height="40" viewBox="0 0 40 40" fill="none" xmlns="http://www.w3.org/2000/svg">
<rect width="40" height="40" rx="20" fill="#91C137"/>
<path d="M12.3542 19.3659C12.3542 19.3659 12.9747 19.2972 14.1492 17.3107C14.1492 17.3107 14.1759 17.2759 14.2199 17.2092C14.8027 19.9252 17.6081 19.4857 17.6081 19.4857L17.8773 18.4325C15.9927 18.8432 15.9683 16.6088 15.9683 16.6088L18.8562 17.6105C19.1125 17.3275 19.2755 16.9761 19.3443 16.5983C19.3717 17.5031 19.2903 18.4786 19.0278 19.4857C19.0278 19.4857 20.7733 18.8174 21.9807 19.9822C21.9807 19.9822 21.8653 17.9594 21.2618 15.8679C21.6079 15.6544 22.3479 15.3394 22.4785 16.4546C22.65 17.9188 24.6074 19.9479 26.4432 17.4305C26.4432 17.4305 25.2931 18.0984 24.6566 16.7115C24.0612 15.414 23.8301 13.7132 22.2211 14.2125C23.1423 13.4794 24.0039 12.2923 22.9189 11.1888C21.4722 9.71721 19.2167 11.4742 18.8196 11.8048C18.5596 11.6346 18.2789 11.5031 17.9753 11.4199C17.9753 11.4199 18.9057 13.0231 19.2356 15.3382C19.0244 14.7394 18.5821 14.1859 17.9017 13.8346C17.0918 13.4158 16.0157 13.4915 15.2187 14.052C15.3874 12.6507 15.3478 10.7743 14.7694 8.37207L11.9629 9.84486C11.9629 9.84486 14.1492 14.2285 12.1586 17.1397C12.1586 17.1397 9.61316 15.5299 11.2122 12.2763L9.58098 11.968C9.58098 11.968 8.73967 12.9637 8.84654 14.5283C8.97043 16.3364 10.1719 18.7827 12.3542 19.3659ZM21.818 12.1588C22.454 12.979 21.5022 13.714 20.6756 13.8733C20.6756 13.8733 20.524 12.9048 19.9741 12.2744C19.9741 12.2744 21.1819 11.3383 21.818 12.1588ZM17.6295 14.5782C18.1583 14.7672 18.4472 15.3917 18.3455 16.0459L16.2339 15.2399C16.5401 14.6848 17.1147 14.3944 17.6295 14.5782ZM27.7567 16.8653H27.7922C27.479 17.9953 26.9199 18.6398 26.2231 19.1086C24.9503 19.965 23.2861 19.4857 23.2861 19.4857C23.6615 20.5814 27.7567 22.6362 29.0293 19.006C30.3018 15.3757 28.0016 12.8927 28.0016 12.8927C28.1199 14.3955 28.0733 15.5326 27.8991 16.4133C27.5633 16.4644 25.7823 16.5698 26.5819 12.8244L24.7546 12.105C24.7546 12.105 23.8408 17.2424 27.7567 16.8653Z" fill="white"/>
<path d="M29.078 22.157C26.9084 21.6089 25.5212 22.3112 25.5212 22.3112C25.5212 22.3112 26.8266 22.739 27.0552 24.9484C27.2833 27.1573 24.9828 28.6813 24.9828 28.6813C24.9828 28.6813 27.5282 29.1778 29.4371 28.3385C31.3461 27.4997 31.3953 25.4449 31.3953 25.1537C31.3953 24.8625 31.2481 22.705 29.078 22.157ZM28.5289 26.8158C28.4904 26.8177 28.4527 26.8166 28.4146 26.8142C28.7467 26.4551 28.9501 25.8895 28.9242 25.2606C28.8931 24.4944 28.5311 23.8511 28.0389 23.5759C28.1513 23.5345 28.27 23.508 28.3939 23.5021C29.159 23.4678 29.8095 24.1817 29.8469 25.0967C29.8842 26.0121 29.2944 26.7818 28.5289 26.8158ZM26.0515 25.2122C26.0515 23.5532 24.7531 22.2081 23.1515 22.2081C22.9928 22.2081 22.8371 22.2222 22.6859 22.2475C22.2661 21.1698 21.2577 20.4102 20.0798 20.4102C18.6479 20.4102 17.4664 21.5332 17.2892 22.9857C16.0474 23.2254 14.7039 24.0537 14.255 26.395L15.7482 26.7549C15.7482 26.7549 16.0459 25.8832 16.8444 25.099L16.8739 25.188C16.8739 25.188 17.0699 27.7565 15.0874 28.0649C13.1048 28.3733 11.9056 26.087 12.5176 24.5717C13.1296 23.0559 14.3777 23.4584 14.3777 23.4584L16.7922 21.078L15.8866 20.6842C13.333 19.7423 10.0458 21.4891 9.84979 25.3161C9.65416 29.1434 13.7413 31.4812 16.5803 29.5291C18.118 28.4716 18.4205 26.9169 18.375 25.7138C18.8484 26.0929 19.4386 26.3181 20.0798 26.3181C20.2041 26.3181 20.3257 26.3087 20.4456 26.2927C20.8646 27.4173 21.9178 28.2156 23.1515 28.2156C24.7531 28.2156 26.0515 26.8708 26.0515 25.2122ZM20.7037 23.6016C20.676 23.6473 20.649 23.6934 20.6231 23.7406C20.4389 24.01 20.1386 24.186 19.7984 24.186C19.5506 24.186 19.3236 24.0927 19.1468 23.9377C19.3495 23.9053 19.5617 23.8835 19.7862 23.878L19.713 23.1075C19.713 23.1075 19.3458 22.9915 18.7995 22.9334C18.8839 22.4341 19.2984 22.0543 19.7984 22.0543C20.3594 22.0543 20.8143 22.5313 20.8143 23.1203C20.8143 23.2937 20.774 23.4568 20.7037 23.6016ZM22.5272 26.087C22.2247 26.087 21.9533 25.9488 21.765 25.7302C22.3016 25.3086 22.6896 24.6903 22.8331 23.9779C23.2517 24.1146 23.5553 24.5244 23.5553 25.0081C23.5553 25.6037 23.0949 26.087 22.5272 26.087Z" fill="white"/>
</svg>
